<svg width="16" height="16" viewBox="0 0 16 16" fill="none" xmlns="http://www.w3.org/2000/svg">
<path d="M0.838509 7.61829C0.917588 7.53656 1.03588 7.50196 1.1402 7.5237C1.24067 7.53354 1.34364 7.53524 1.44592 7.53692C1.47935 7.53747 1.51271 7.53802 1.54587 7.53885C1.59649 7.54078 1.64699 7.54256 1.6974 7.54434C1.76014 7.54654 1.82273 7.54873 1.88524 7.55123C1.91896 7.55256 1.95265 7.55398 1.98632 7.55553C2.25256 7.56692 2.52052 7.57479 2.78643 7.58005C3.11505 7.57763 3.44341 7.56608 3.77195 7.55451C4.09062 7.54328 4.40947 7.53205 4.7289 7.52916C5.33299 7.52225 5.93823 7.52881 6.54094 7.53534L6.70409 7.53709C7.23016 7.54293 7.75828 7.53422 8.28641 7.5255C8.40408 7.52356 8.52175 7.52163 8.63939 7.51984C9.2946 7.51082 9.95018 7.49941 10.6061 7.48555C10.9715 7.47794 11.339 7.47294 11.7048 7.47147C11.9858 7.47018 12.2657 7.47612 12.5462 7.48207C12.617 7.48358 12.6878 7.48508 12.7587 7.48646L12.7677 7.48638C12.771 7.48637 12.7743 7.48638 12.7776 7.48643C12.7829 7.48651 12.788 7.48671 12.793 7.48709C13.0421 7.49068 13.2911 7.48898 13.5405 7.48726C13.6481 7.48651 13.7558 7.48577 13.8637 7.48545C14.0132 7.48531 14.1614 7.48627 14.3096 7.48723L14.3171 7.48728C14.2162 7.39002 14.1139 7.29385 14.0113 7.20012C13.9788 7.17058 13.946 7.14122 13.9132 7.11183C13.8286 7.0359 13.7437 6.95981 13.6619 6.88016C13.5313 6.75365 13.4004 6.62954 13.2654 6.50878C13.1559 6.42062 13.0475 6.33376 12.9367 6.24671C12.9142 6.22889 12.8912 6.21131 12.8681 6.19368C12.8066 6.14674 12.7447 6.09939 12.6899 6.04615C12.5753 5.93436 12.5746 5.74237 12.6922 5.61847C12.8085 5.49569 13.0048 5.48075 13.1194 5.59254C13.13 5.60316 13.1419 5.61266 13.1535 5.62458C13.2293 5.6863 13.3059 5.74668 13.3823 5.80698C13.5307 5.92403 13.6788 6.0408 13.8203 6.16662C13.882 6.22064 13.9404 6.27802 13.9989 6.33557L13.9992 6.33591C14.0426 6.37853 14.086 6.42122 14.1309 6.4627C14.2309 6.55516 14.3311 6.64577 14.432 6.73703L14.4753 6.77615C14.6004 6.89058 14.7233 7.00736 14.8462 7.12413C14.9491 7.22187 15.052 7.31958 15.1561 7.41586C15.2478 7.50139 15.3412 7.60051 15.3385 7.73966C15.3366 7.863 15.2626 7.96411 15.1608 8.02662C15.1543 8.04684 15.1454 8.06687 15.134 8.08647C15.0672 8.20095 14.9782 8.29289 14.8865 8.38707C14.8357 8.43926 14.7873 8.49165 14.7355 8.54255C14.6081 8.66807 14.4805 8.79369 14.352 8.91792C14.1175 9.14375 13.8918 9.37519 13.6802 9.61875C13.5404 9.78857 13.4017 9.95111 13.2268 10.0876C13.1863 10.1188 13.1444 10.1488 13.1025 10.1789C13.0521 10.2151 13.0016 10.2513 12.9534 10.2896C12.9398 10.3178 12.9214 10.3457 12.8962 10.3706C12.783 10.4887 12.5795 10.5116 12.468 10.3952C12.4608 10.3861 12.4533 10.3794 12.4472 10.3716C12.381 10.2844 12.3524 10.1623 12.4045 10.0491C12.4414 9.96767 12.4959 9.90598 12.5651 9.85158C12.6213 9.80655 12.6789 9.76427 12.7364 9.72214C12.8193 9.66128 12.9019 9.6007 12.9793 9.53246C13.0396 9.47246 13.0941 9.41077 13.1504 9.34557C13.3552 9.09903 13.5693 8.86422 13.8001 8.63931C13.8569 8.58398 13.9141 8.52887 13.9714 8.47372C14.1014 8.34845 14.2316 8.22296 14.3585 8.09426C14.3221 8.09421 14.2857 8.09415 14.2492 8.09409L14.2457 8.09406C13.9739 8.09364 13.7023 8.09322 13.4302 8.09645C12.9842 8.10092 12.5402 8.09115 12.0985 8.08143L12.0846 8.08112L12.0839 8.08106C12.0833 8.08099 12.0828 8.08094 12.0822 8.08093C12.0813 8.08086 12.0806 8.08098 12.0799 8.08108C12.0788 8.08123 12.0781 8.08136 12.0774 8.08054L12.0751 8.08037L12.0679 8.0798C11.4253 8.07638 10.7793 8.08856 10.1367 8.10225C9.64672 8.11278 9.15732 8.11923 8.66793 8.12568L8.65829 8.1258C8.49815 8.12791 8.33801 8.13002 8.17787 8.13229C7.52981 8.14187 6.88243 8.14663 6.23574 8.13798C5.57574 8.1295 4.9137 8.12697 4.2527 8.14286C4.17585 8.14484 4.09902 8.14727 4.02219 8.14994C3.92206 8.15342 3.82196 8.15733 3.72188 8.16124C3.34203 8.17611 2.96243 8.19095 2.5833 8.18248C2.36679 8.17809 2.15085 8.16961 1.93493 8.16115C1.86288 8.15833 1.79083 8.15551 1.71876 8.15283L1.71447 8.15266C1.57307 8.14747 1.43163 8.14229 1.28888 8.13821L1.26182 8.13705L1.24136 8.13609C1.19286 8.13385 1.14471 8.13161 1.09559 8.13139C1.00457 8.1266 0.906052 8.11511 0.841953 8.04766C0.838565 8.04463 0.835456 8.04137 0.832403 8.03787C0.83015 8.03528 0.827927 8.03255 0.825646 8.02969L0.821158 8.02399C0.726372 7.90888 0.727725 7.73661 0.838509 7.61829Z" fill="black"/>
<path d="M12.0642 8.08072C12.0689 8.0811 12.0713 8.08129 12.0751 8.08037C12.0727 8.08018 12.0689 8.0811 12.0642 8.08072Z" fill="black"/>
<path d="M12.0785 8.08185C12.0785 8.08185 12.0809 8.08204 12.0822 8.08093C12.0807 8.08091 12.0794 8.08113 12.0785 8.08185Z" fill="black"/>
</svg>
