<svg width="14" height="15" viewBox="0 0 14 15" fill="none" xmlns="http://www.w3.org/2000/svg">
<path d="M1.10731 7.04233C1.1749 6.96259 1.27602 6.92884 1.36519 6.95005C1.45107 6.95965 1.53909 6.9613 1.62652 6.96294C1.65509 6.96348 1.6836 6.96402 1.71195 6.96483C1.75522 6.96671 1.79839 6.96845 1.84148 6.97018C1.8951 6.97233 1.94861 6.97447 2.00204 6.9769C2.03086 6.97821 2.05965 6.97959 2.08844 6.98111C2.31601 6.99222 2.54506 6.99989 2.77236 7.00502C3.05325 7.00267 3.33394 6.99139 3.61477 6.9801C3.88716 6.96915 4.15971 6.95819 4.43275 6.95537C4.94912 6.94864 5.46646 6.95503 5.98165 6.9614L6.12111 6.96311C6.57078 6.96881 7.02221 6.96031 7.47365 6.9518C7.57423 6.94991 7.67481 6.94802 7.77537 6.94628C8.33543 6.93748 8.89581 6.92635 9.45645 6.91283C9.76883 6.9054 10.083 6.90052 10.3956 6.89909C10.6358 6.89783 10.8751 6.90362 11.1148 6.90943C11.1754 6.91091 11.2359 6.91236 11.2965 6.91372L11.3041 6.91364C11.307 6.91363 11.3098 6.91364 11.3126 6.91369C11.3171 6.91377 11.3216 6.91396 11.3258 6.91433C11.5388 6.91784 11.7515 6.91617 11.9647 6.9145C12.0567 6.91377 12.1488 6.91304 12.2411 6.91273C12.3689 6.9126 12.4955 6.91353 12.6222 6.91447L12.6286 6.91451C12.5424 6.81963 12.4549 6.7258 12.3672 6.63436C12.3394 6.60554 12.3114 6.57689 12.2834 6.54822C12.211 6.47415 12.1385 6.39991 12.0685 6.32221C11.9569 6.19878 11.845 6.07769 11.7296 5.95988C11.636 5.87387 11.5434 5.78913 11.4487 5.7042C11.4294 5.68682 11.4097 5.66967 11.39 5.65247C11.3375 5.60667 11.2845 5.56048 11.2377 5.50854C11.1398 5.39947 11.1392 5.21216 11.2397 5.09129C11.339 4.9715 11.5069 4.95692 11.6048 5.06599C11.6138 5.07635 11.624 5.08562 11.6339 5.09725C11.6987 5.15747 11.7642 5.21637 11.8295 5.2752C11.9564 5.3894 12.083 5.50331 12.204 5.62606C12.2566 5.67877 12.3065 5.73475 12.3566 5.79089L12.3569 5.79123C12.3939 5.83281 12.4311 5.87445 12.4694 5.91492C12.5549 6.00513 12.6405 6.09353 12.7268 6.18256L12.7638 6.22073C12.8707 6.33237 12.9758 6.44631 13.0809 6.56023C13.1688 6.65557 13.2568 6.75091 13.3457 6.84484C13.4241 6.92828 13.504 7.02499 13.5017 7.16074C13.5001 7.28107 13.4368 7.37971 13.3498 7.4407C13.3442 7.46043 13.3366 7.47997 13.3268 7.49909C13.2697 7.61078 13.1937 7.70048 13.1153 7.79236C13.0719 7.84328 13.0305 7.89439 12.9862 7.94404C12.8773 8.0665 12.7682 8.18906 12.6584 8.31026C12.458 8.53059 12.2651 8.75638 12.0841 8.994C11.9647 9.15968 11.8461 9.31825 11.6966 9.45139C11.662 9.48182 11.6262 9.51114 11.5904 9.54049C11.5473 9.57581 11.5041 9.61115 11.4629 9.64844C11.4513 9.676 11.4355 9.7032 11.414 9.72749C11.3172 9.84275 11.1433 9.86511 11.048 9.75151C11.0419 9.7426 11.0354 9.73606 11.0302 9.72844C10.9737 9.6434 10.9492 9.52429 10.9938 9.41384C11.0252 9.3344 11.0718 9.27422 11.131 9.22115C11.179 9.17722 11.2283 9.13597 11.2774 9.09487C11.3483 9.03549 11.4189 8.97639 11.485 8.90981C11.5366 8.85127 11.5832 8.79109 11.6313 8.72748C11.8064 8.48695 11.9894 8.25787 12.1866 8.03844C12.2352 7.98447 12.2841 7.9307 12.333 7.87689C12.4442 7.75468 12.5555 7.63226 12.664 7.50669C12.6328 7.50664 12.6017 7.50658 12.5706 7.50652L12.5676 7.5065C12.3352 7.50608 12.103 7.50567 11.8704 7.50883C11.4892 7.51319 11.1097 7.50365 10.7322 7.49417L10.7203 7.49387L10.7197 7.49381C10.7192 7.49374 10.7187 7.4937 10.7182 7.49368C10.7175 7.49362 10.7168 7.49374 10.7163 7.49383C10.7154 7.49398 10.7147 7.4941 10.7142 7.49331L10.7121 7.49314L10.706 7.49258C10.1567 7.48924 9.60452 7.50113 9.05524 7.51448C8.63642 7.52476 8.21809 7.53105 7.79976 7.53735L7.79152 7.53746C7.65464 7.53952 7.51776 7.54158 7.38087 7.54379C6.82692 7.55314 6.27355 7.55778 5.72077 7.54935C5.15661 7.54107 4.59071 7.5386 4.0257 7.55411C3.96001 7.55604 3.89433 7.5584 3.82866 7.56102C3.74308 7.56441 3.65751 7.56822 3.57197 7.57204C3.24728 7.58654 2.9228 7.60102 2.59873 7.59276C2.41366 7.58848 2.22908 7.58021 2.04451 7.57195C1.98292 7.5692 1.92134 7.56644 1.85974 7.56383L1.85606 7.56367C1.7352 7.55861 1.6143 7.55355 1.49228 7.54957L1.46915 7.54844L1.45166 7.5475C1.4102 7.54532 1.36904 7.54314 1.32706 7.54292C1.24925 7.53825 1.16504 7.52703 1.11025 7.46122C1.10736 7.45827 1.1047 7.45509 1.10209 7.45168C1.10016 7.44915 1.09826 7.44649 1.09631 7.4437L1.09248 7.43814C1.01146 7.32583 1.01261 7.15777 1.10731 7.04233Z" fill="#3155FF"/>
<path d="M10.7028 7.49348C10.7069 7.49385 10.7089 7.49404 10.7121 7.49314C10.7101 7.49296 10.7069 7.49385 10.7028 7.49348Z" fill="#3155FF"/>
<path d="M10.715 7.49458C10.715 7.49458 10.7171 7.49477 10.7182 7.49368C10.717 7.49366 10.7158 7.49388 10.715 7.49458Z" fill="#3155FF"/>
</svg>
