<svg width="501" height="320" viewBox="0 0 501 320" fill="none" xmlns="http://www.w3.org/2000/svg">
<path fill-rule="evenodd" clip-rule="evenodd" d="M279.581 1.4329e-09C287.866 -0.000113272 294.582 6.71565 294.582 15V34.4927L340.668 34.4934H353.171H398.2H411.61L485.853 34.4924C494.138 34.4922 500.854 41.208 500.854 49.4923V162.026C500.854 170.31 494.138 177.026 485.854 177.026H329.489V304.053C329.489 312.337 322.773 319.053 314.489 319.053H15.0883C6.80408 319.053 0.0883484 312.337 0.0883484 304.053V145.36C0.0883484 137.076 6.8042 130.36 15.0886 130.36L117.406 130.362H133.96H193.578H211.332L252.058 130.361V68.477H185.818C177.534 68.477 170.818 61.7613 170.818 53.477V15C170.818 6.71565 177.534 -0.000112614 185.819 1.46966e-06L214.897 0.000401911H221.117H243.517H250.187L279.581 1.4329e-09Z" fill="white"/>
</svg>
