<svg width="143" height="95" viewBox="0 0 143 95" fill="none" xmlns="http://www.w3.org/2000/svg">
<path fill-rule="evenodd" clip-rule="evenodd" d="M140.164 10C131.124 24.4252 115.184 34 97.0352 34C86.3583 34 76.4457 30.6861 68.2528 25.0204C68.7653 22.758 69.0352 20.4091 69.0352 18C69.0352 11.0249 66.7727 4.55518 62.9115 -0.774292C71.9504 -8.99652 83.9158 -14 97.0352 -14C115.184 -14 131.124 -4.42516 140.164 10ZM68.0352 18C68.0352 20.1883 67.8048 22.3263 67.3657 24.3929C62.0142 20.5214 57.4348 15.6301 53.9067 10C56.2318 6.28956 59.0136 2.90003 62.172 -0.0881882C65.8724 5.06219 68.0352 11.2951 68.0352 18ZM97.0352 -15C83.6887 -15 71.5166 -9.92355 62.3099 -1.57881C58.2898 -6.78789 52.7064 -10.8257 46.2221 -13.0584C46.0983 -14.5223 46.0352 -16.0037 46.0352 -17.5C46.0352 -45.9517 68.8776 -69 97.0352 -69C125.193 -69 148.035 -45.9517 148.035 -17.5C148.035 -7.78632 145.373 1.29754 140.745 9.04939C131.486 -5.42136 115.368 -15 97.0352 -15ZM61.5717 -0.896729C57.7572 -5.8696 52.4746 -9.75452 46.3264 -11.9628C47.1336 -4.33681 49.5889 2.79047 53.3252 9.04939C55.6621 5.39731 58.4358 2.05682 61.5717 -0.896729ZM45.0352 -17.5C45.0352 -16.1188 45.088 -14.75 45.1917 -13.3956C41.8357 -14.4371 38.2541 -15 34.5352 -15C15.4813 -15 0.0351562 -0.225395 0.0351562 18C0.0351562 31.0482 7.95233 42.3277 19.4424 47.683C17.2589 52.0136 16.0352 56.8701 16.0352 62C16.0352 80.2254 31.4813 95 50.5352 95C60.1689 95 68.8803 91.2231 75.1394 85.1328C81.7942 88.2563 89.213 90 97.0352 90C125.754 90 149.035 66.4949 149.035 37.5C149.035 27.4169 146.22 17.9977 141.339 10C146.22 2.00233 149.035 -7.41688 149.035 -17.5C149.035 -46.4949 125.754 -70 97.0352 -70C68.3163 -70 45.0352 -46.4949 45.0352 -17.5ZM75.8905 84.3786C82.3329 87.3465 89.4934 89 97.0352 89C125.193 89 148.035 65.9517 148.035 37.5C148.035 27.7863 145.373 18.7025 140.745 10.9506C131.486 25.4214 115.368 35 97.0352 35C86.2818 35 76.2908 31.7045 67.9989 26.0593C67.4269 28.2394 66.6281 30.3334 65.628 32.317C77.118 37.6723 85.0352 48.9518 85.0352 62C85.0352 70.6359 81.5671 78.497 75.8905 84.3786ZM65.164 33.2028C76.3486 38.397 84.0352 49.3599 84.0352 62C84.0352 70.4732 80.5811 78.1927 74.9348 83.9261C61.0509 77.1744 50.6577 64.2588 47.2421 48.6896C54.9845 45.7541 61.3518 40.2155 65.164 33.2028ZM64.7131 31.9064C65.7462 29.8645 66.5589 27.7025 67.1218 25.4489C61.6531 21.5593 56.9606 16.632 53.3252 10.9506C50.0435 16.4481 47.75 22.6154 46.6936 29.2023C47.9548 29.0686 49.2366 29 50.5352 29C55.5885 29 60.3881 30.0392 64.7131 31.9064ZM46.54 30.2249C47.8497 30.0764 49.1829 30 50.5352 30C55.4245 30 60.0644 30.9989 64.2466 32.793C60.5708 39.516 54.4668 44.8431 47.0351 47.6994C46.3793 44.4028 46.0352 40.9921 46.0352 37.5C46.0352 35.0304 46.2073 32.6015 46.54 30.2249ZM45.6616 29.3267C46.7448 22.3307 49.1963 15.7925 52.7311 10C48.697 3.38927 46.0738 -4.19269 45.2853 -12.318C41.9129 -13.4084 38.2979 -14 34.5352 -14C15.9913 -14 1.03516 0.368317 1.03516 18C1.03516 30.6401 8.72172 41.603 19.9063 46.7972C24.9409 37.5357 34.4321 30.8455 45.6616 29.3267ZM20.8238 47.207C25.6714 38.3407 34.7423 31.9022 45.5124 30.3568C45.1977 32.6926 45.0352 35.0771 45.0352 37.5C45.0352 41.113 45.3967 44.6408 46.0851 48.0485C42.4869 49.3106 38.5971 50 34.5352 50C29.6458 50 25.0059 49.0011 20.8238 47.207ZM20.3572 48.0936C24.6822 49.9608 29.4818 51 34.5352 51C38.6644 51 42.6241 50.3061 46.294 49.0336C49.778 64.7253 60.2201 77.7622 74.1786 84.6696C68.1264 90.4318 59.7763 94 50.5352 94C31.9913 94 17.0352 79.6317 17.0352 62C17.0352 57.0209 18.2279 52.3021 20.3572 48.0936Z" fill="white" fill-opacity="0.3"/>
</svg>
