<svg width="135" height="103" viewBox="0 0 135 103" fill="none" xmlns="http://www.w3.org/2000/svg">
<path opacity="0.3" fill-rule="evenodd" clip-rule="evenodd" d="M-6.09328 18C2.94615 32.4252 18.8867 42 37.0352 42C47.712 42 57.6246 38.6861 65.8175 33.0204C65.3051 30.758 65.0352 28.4091 65.0352 26C65.0352 19.0249 67.2976 12.5552 71.1588 7.22571C62.1199 -0.996525 50.1545 -6 37.0352 -6C18.8867 -6 2.94615 3.57484 -6.09328 18ZM66.0352 26C66.0352 28.1883 66.2655 30.3263 66.7046 32.3929C72.0562 28.5214 76.6355 23.6301 80.1636 18C77.8385 14.2896 75.0568 10.9 71.8983 7.91181C68.1979 13.0622 66.0352 19.2951 66.0352 26ZM37.0352 -7C50.3816 -7 62.5537 -1.92355 71.7604 6.42119C75.7805 1.21211 81.3639 -2.82569 87.8482 -5.05843C87.972 -6.5223 88.0352 -8.00368 88.0352 -9.5C88.0352 -37.9517 65.1927 -61 37.0352 -61C8.87763 -61 -13.9648 -37.9517 -13.9648 -9.5C-13.9648 0.21368 -11.3023 9.29754 -6.67476 17.0494C2.5847 2.57864 18.702 -7 37.0352 -7ZM72.4987 7.10327C76.3131 2.1304 81.5957 -1.75452 87.7439 -3.96283C86.9367 3.66319 84.4814 10.7905 80.7451 17.0494C78.4082 13.3973 75.6345 10.0568 72.4987 7.10327ZM89.0352 -9.5C89.0352 -8.11877 88.9823 -6.75 88.8786 -5.39563C92.2347 -6.43715 95.8162 -7 99.5352 -7C118.589 -7 134.035 7.7746 134.035 26C134.035 39.0482 126.118 50.3277 114.628 55.683C116.811 60.0136 118.035 64.8701 118.035 70C118.035 88.2254 102.589 103 83.5352 103C73.9014 103 65.19 99.2231 58.9309 93.1328C52.2761 96.2563 44.8573 98 37.0352 98C8.31635 98 -14.9648 74.4949 -14.9648 45.5C-14.9648 35.4169 -12.1494 25.9977 -7.26886 18C-12.1494 10.0023 -14.9648 0.583118 -14.9648 -9.5C-14.9648 -38.4949 8.31635 -62 37.0352 -62C65.754 -62 89.0352 -38.4949 89.0352 -9.5ZM58.1798 92.3786C51.7374 95.3465 44.5769 97 37.0352 97C8.87763 97 -13.9648 73.9517 -13.9648 45.5C-13.9648 35.7863 -11.3023 26.7025 -6.67476 18.9506C2.5847 33.4214 18.702 43 37.0352 43C47.7885 43 57.7795 39.7045 66.0714 34.0593C66.6434 36.2394 67.4422 38.3334 68.4424 40.317C56.9523 45.6723 49.0352 56.9518 49.0352 70C49.0352 78.6359 52.5032 86.497 58.1798 92.3786ZM68.9063 41.2028C57.7217 46.397 50.0352 57.3599 50.0352 70C50.0352 78.4732 53.4892 86.1927 59.1355 91.9261C73.0194 85.1744 83.4126 72.2588 86.8282 56.6896C79.0858 53.7541 72.7185 48.2155 68.9063 41.2028ZM69.3572 39.9064C68.3241 37.8645 67.5115 35.7025 66.9486 33.4489C72.4172 29.5593 77.1097 24.632 80.7451 18.9506C84.0268 24.4481 86.3203 30.6154 87.3768 37.2023C86.1155 37.0686 84.8337 37 83.5352 37C78.4818 37 73.6822 38.0392 69.3572 39.9064ZM87.5303 38.2249C86.2206 38.0764 84.8874 38 83.5352 38C78.6458 38 74.0059 38.9989 69.8238 40.793C73.4995 47.516 79.6035 52.8431 87.0352 55.6994C87.691 52.4028 88.0352 48.9921 88.0352 45.5C88.0352 43.0304 87.8631 40.6015 87.5303 38.2249ZM88.4087 37.3267C87.3256 30.3307 84.874 23.7925 81.3392 18C85.3733 11.3893 87.9965 3.80731 88.785 -4.31803C92.1574 -5.40842 95.7724 -6 99.5352 -6C118.079 -6 133.035 8.36832 133.035 26C133.035 38.6401 125.349 49.603 114.164 54.7972C109.129 45.5357 99.6382 38.8455 88.4087 37.3267ZM113.247 55.207C108.399 46.3407 99.328 39.9022 88.5579 38.3568C88.8726 40.6926 89.0352 43.0771 89.0352 45.5C89.0352 49.113 88.6737 52.6408 87.9852 56.0485C91.5834 57.3106 95.4732 58 99.5352 58C104.424 58 109.064 57.0011 113.247 55.207ZM113.713 56.0936C109.388 57.9608 104.589 59 99.5352 59C95.406 59 91.4462 58.3061 87.7763 57.0336C84.2923 72.7253 73.8502 85.7622 59.8917 92.6696C65.9439 98.4318 74.294 102 83.5352 102C102.079 102 117.035 87.6317 117.035 70C117.035 65.0209 115.842 60.3021 113.713 56.0936Z" fill="white" fill-opacity="0.5"/>
</svg>
