<svg width="15" height="16" viewBox="0 0 15 16" fill="none" xmlns="http://www.w3.org/2000/svg">
<path d="M13.75 13.338C13.7489 13.5131 13.6832 13.6807 13.5672 13.8045C13.4512 13.9284 13.2941 13.9986 13.13 14H1.87C1.70551 13.9998 1.54781 13.93 1.43156 13.8059C1.3153 13.6817 1.25 13.5135 1.25 13.338V12.6667H12.5V4.86667L7.5 9.66667L1.25 3.66667V2.66667C1.25 2.48986 1.31585 2.32029 1.43306 2.19526C1.55027 2.07024 1.70924 2 1.875 2H13.125C13.2908 2 13.4497 2.07024 13.5669 2.19526C13.6842 2.32029 13.75 2.48986 13.75 2.66667V13.338ZM2.77125 3.33333L7.5 7.87333L12.2288 3.33333H2.77125ZM0 10H5V11.3333H0V10ZM0 6.66667H3.125V8H0V6.66667Z" fill="black"/>
</svg>
