<svg width="384" height="311" viewBox="0 0 384 311" fill="none" xmlns="http://www.w3.org/2000/svg">
<mask id="path-1-inside-1_603_13682" fill="white">
<path fill-rule="evenodd" clip-rule="evenodd" d="M173.007 -0.000227398C164.722 -0.000371479 158.006 6.7154 158.006 14.9998V33.6077L122.704 33.6084H113.127H78.6335H68.3618L15.0003 33.6074C6.71589 33.6073 0 40.3231 0 48.6075V157.485C0 165.769 6.71575 172.485 15 172.485H131.267V295.867C131.267 304.152 137.983 310.867 146.267 310.867H368.591C376.875 310.867 383.591 304.152 383.591 295.867V142.015C383.591 133.731 376.875 127.015 368.591 127.015L293.725 127.017H281.044H235.376H221.776L190.58 127.016V66.7201H237.81C246.095 66.7201 252.81 60.0044 252.81 51.7201V14.9998C252.81 6.7154 246.094 -0.000370643 237.81 -0.000225531L219.046 0.000103157H214.281H197.123H192.013L173.007 -0.000227398Z"/>
</mask>
<path fill-rule="evenodd" clip-rule="evenodd" d="M173.007 -0.000227398C164.722 -0.000371479 158.006 6.7154 158.006 14.9998V33.6077L122.704 33.6084H113.127H78.6335H68.3618L15.0003 33.6074C6.71589 33.6073 0 40.3231 0 48.6075V157.485C0 165.769 6.71575 172.485 15 172.485H131.267V295.867C131.267 304.152 137.983 310.867 146.267 310.867H368.591C376.875 310.867 383.591 304.152 383.591 295.867V142.015C383.591 133.731 376.875 127.015 368.591 127.015L293.725 127.017H281.044H235.376H221.776L190.58 127.016V66.7201H237.81C246.095 66.7201 252.81 60.0044 252.81 51.7201V14.9998C252.81 6.7154 246.094 -0.000370643 237.81 -0.000225531L219.046 0.000103157H214.281H197.123H192.013L173.007 -0.000227398Z" fill="#222222" fill-opacity="0.4"/>
<path d="M173.007 -0.000227398L173.007 -1.00023L173.007 -0.000227398ZM158.006 33.6077L158.006 34.6077L159.006 34.6077V33.6077H158.006ZM122.704 33.6084V34.6084H122.704L122.704 33.6084ZM68.3618 33.6084L68.3618 34.6084H68.3618V33.6084ZM15.0003 33.6074L15.0003 32.6074L15.0003 33.6074ZM131.267 172.485H132.267V171.485H131.267V172.485ZM368.591 127.015L368.591 128.015L368.591 127.015ZM293.725 127.017V128.017H293.725L293.725 127.017ZM221.776 127.017L221.776 128.017H221.776V127.017ZM190.58 127.016H189.58V128.016L190.58 128.016L190.58 127.016ZM190.58 66.7201V65.7201H189.58V66.7201H190.58ZM237.81 -0.000225531L237.81 -1.00023L237.81 -0.000225531ZM219.046 0.000103157V1.0001H219.046L219.046 0.000103157ZM192.013 0.000103157L192.013 1.0001H192.013V0.000103157ZM159.006 14.9998C159.006 7.26769 165.275 0.999638 173.007 0.999773L173.007 -1.00023C164.17 -1.00038 157.006 6.16311 157.006 14.9998H159.006ZM159.006 33.6077V14.9998H157.006V33.6077H159.006ZM158.006 32.6077L122.704 32.6084L122.704 34.6084L158.006 34.6077L158.006 32.6077ZM122.704 32.6084H113.127V34.6084H122.704V32.6084ZM113.127 32.6084H78.6335V34.6084H113.127V32.6084ZM78.6335 32.6084H68.3618V34.6084H78.6335V32.6084ZM68.3619 32.6084L15.0003 32.6074L15.0003 34.6074L68.3618 34.6084L68.3619 32.6084ZM15.0003 32.6074C6.16362 32.6073 -1 39.7708 -1 48.6075H1C1 40.8754 7.26817 34.6073 15.0003 34.6074L15.0003 32.6074ZM-1 48.6075V157.485H1V48.6075H-1ZM-1 157.485C-1 166.321 6.16347 173.485 15 173.485V171.485C7.26804 171.485 1 165.217 1 157.485H-1ZM15 173.485H131.267V171.485H15V173.485ZM130.267 172.485V295.867H132.267V172.485H130.267ZM130.267 295.867C130.267 304.704 137.43 311.867 146.267 311.867V309.867C138.535 309.867 132.267 303.599 132.267 295.867H130.267ZM146.267 311.867H368.591V309.867H146.267V311.867ZM368.591 311.867C377.428 311.867 384.591 304.704 384.591 295.867H382.591C382.591 303.599 376.323 309.867 368.591 309.867V311.867ZM384.591 295.867V142.015H382.591V295.867H384.591ZM384.591 142.015C384.591 133.179 377.428 126.015 368.591 126.015L368.591 128.015C376.323 128.015 382.591 134.283 382.591 142.015H384.591ZM368.591 126.015L293.725 126.017L293.725 128.017L368.591 128.015L368.591 126.015ZM293.725 126.017H281.044V128.017H293.725V126.017ZM281.044 126.017H235.376V128.017H281.044V126.017ZM235.376 126.017H221.776V128.017H235.376V126.017ZM221.776 126.017L190.58 126.016L190.58 128.016L221.776 128.017L221.776 126.017ZM191.58 127.016V66.7201H189.58V127.016H191.58ZM237.81 65.7201H190.58V67.7201H237.81V65.7201ZM251.81 51.7201C251.81 59.4521 245.542 65.7201 237.81 65.7201V67.7201C246.647 67.7201 253.81 60.5567 253.81 51.7201H251.81ZM251.81 14.9998V51.7201H253.81V14.9998H251.81ZM237.81 0.999774C245.542 0.999639 251.81 7.26769 251.81 14.9998H253.81C253.81 6.16311 246.647 -1.00038 237.81 -1.00023L237.81 0.999774ZM219.046 1.0001L237.81 0.999774L237.81 -1.00023L219.046 -0.999897L219.046 1.0001ZM214.281 1.0001H219.046V-0.999897H214.281V1.0001ZM197.123 1.0001H214.281V-0.999897H197.123V1.0001ZM192.013 1.0001H197.123V-0.999897H192.013V1.0001ZM173.007 0.999773L192.013 1.0001L192.013 -0.999897L173.007 -1.00023L173.007 0.999773Z" fill="#1565C0" fill-opacity="0.2" mask="url(#path-1-inside-1_603_13682)"/>
</svg>
