<svg width="385" height="311" viewBox="0 0 385 311" fill="none" xmlns="http://www.w3.org/2000/svg">
<path fill-rule="evenodd" clip-rule="evenodd" d="M173.667 2.3504e-09C165.383 -0.000145073 158.667 6.71562 158.667 15V33.6077L123.365 33.6084H113.787H79.2937H69.022L15.6604 33.6074C7.37605 33.6073 0.660156 40.3231 0.660156 48.6075V157.485C0.660156 165.769 7.37587 172.485 15.6601 172.485H131.927V295.868C131.927 304.152 138.643 310.868 146.927 310.868H369.252C377.536 310.868 384.252 304.152 384.252 295.868V142.016C384.252 133.731 377.536 127.015 369.252 127.016L294.385 127.017H281.705H236.036H222.437L191.241 127.016V66.7203H238.471C246.755 66.7203 253.471 60.0046 253.471 51.7203V15C253.471 6.71563 246.755 -0.000144237 238.471 2.3504e-09L219.706 0.000329564H214.942H197.783H192.673L173.667 2.3504e-09Z" fill="white" fill-opacity="0.5"/>
</svg>
