<svg width="429" height="108" viewBox="0 0 429 108" fill="none" xmlns="http://www.w3.org/2000/svg">
<mask id="path-1-outside-1_1094_2047" maskUnits="userSpaceOnUse" x="172" y="29" width="42" height="37" fill="black">
<rect fill="white" x="172" y="29" width="42" height="37"/>
<path d="M174.312 54.9375C174.312 52.9792 174.542 50.9167 175 48.75C175.5 46.5833 176.229 44.4375 177.188 42.3125C178.104 40.2292 179.229 38.2292 180.562 36.3125C181.896 34.3958 183.438 32.6875 185.188 31.1875L191.5 35.6875C189.542 38.6458 188.062 41.6667 187.062 44.75C186.104 47.8333 185.625 51.1667 185.625 54.75V64.0625H174.312V54.9375ZM194.625 54.9375C194.625 52.9792 194.854 50.9167 195.312 48.75C195.812 46.5833 196.542 44.4375 197.5 42.3125C198.417 40.2292 199.542 38.2292 200.875 36.3125C202.208 34.3958 203.75 32.6875 205.5 31.1875L211.812 35.6875C209.854 38.6458 208.375 41.6667 207.375 44.75C206.417 47.8333 205.938 51.1667 205.938 54.75V64.0625H194.625V54.9375Z"/>
</mask>
<path d="M175 48.75L173.538 48.4127L173.535 48.4261L173.532 48.4396L175 48.75ZM177.188 42.3125L178.555 42.9292L178.56 42.9166L177.188 42.3125ZM185.188 31.1875L186.058 29.9661L185.102 29.2848L184.211 30.0486L185.188 31.1875ZM191.5 35.6875L192.751 36.5155L193.551 35.3072L192.371 34.4661L191.5 35.6875ZM187.062 44.75L185.636 44.2872L185.633 44.296L185.63 44.3048L187.062 44.75ZM185.625 64.0625V65.5625H187.125V64.0625H185.625ZM174.312 64.0625H172.812V65.5625H174.312V64.0625ZM195.312 48.75L193.851 48.4127L193.848 48.4261L193.845 48.4396L195.312 48.75ZM197.5 42.3125L198.867 42.9292L198.873 42.9166L197.5 42.3125ZM205.5 31.1875L206.371 29.9661L205.415 29.2848L204.524 30.0486L205.5 31.1875ZM211.812 35.6875L213.063 36.5155L213.863 35.3072L212.683 34.4661L211.812 35.6875ZM207.375 44.75L205.948 44.2872L205.945 44.296L205.943 44.3048L207.375 44.75ZM205.938 64.0625V65.5625H207.438V64.0625H205.938ZM194.625 64.0625H193.125V65.5625H194.625V64.0625ZM175.812 54.9375C175.812 53.096 176.028 51.1381 176.468 49.0604L173.532 48.4396C173.055 50.6953 172.812 52.8623 172.812 54.9375H175.812ZM176.462 49.0873C176.938 47.0211 177.635 44.9687 178.555 42.9292L175.82 41.6958C174.823 43.9063 174.062 46.1455 173.538 48.4127L176.462 49.0873ZM178.56 42.9166C179.437 40.9241 180.514 39.0084 181.794 37.1691L179.331 35.4559C177.944 37.4499 176.771 39.5343 175.815 41.7084L178.56 42.9166ZM181.794 37.1691C183.055 35.3556 184.512 33.7424 186.164 32.3264L184.211 30.0486C182.363 31.6326 180.736 33.4361 179.331 35.4559L181.794 37.1691ZM184.317 32.4089L190.629 36.9089L192.371 34.4661L186.058 29.9661L184.317 32.4089ZM190.249 34.8595C188.223 37.9205 186.681 41.0632 185.636 44.2872L188.489 45.2128C189.444 42.2701 190.86 39.3712 192.751 36.5155L190.249 34.8595ZM185.63 44.3048C184.622 47.5471 184.125 51.0321 184.125 54.75H187.125C187.125 51.3012 187.586 48.1195 188.495 45.1952L185.63 44.3048ZM184.125 54.75V64.0625H187.125V54.75H184.125ZM185.625 62.5625H174.312V65.5625H185.625V62.5625ZM175.812 64.0625V54.9375H172.812V64.0625H175.812ZM196.125 54.9375C196.125 53.096 196.341 51.1381 196.78 49.0604L193.845 48.4396C193.368 50.6953 193.125 52.8623 193.125 54.9375H196.125ZM196.774 49.0873C197.251 47.0211 197.948 44.9687 198.867 42.9292L196.133 41.6958C195.136 43.9063 194.374 46.1455 193.851 48.4127L196.774 49.0873ZM198.873 42.9166C199.75 40.9241 200.827 39.0084 202.106 37.1691L199.644 35.4559C198.257 37.4499 197.084 39.5343 196.127 41.7084L198.873 42.9166ZM202.106 37.1691C203.368 35.3556 204.824 33.7424 206.476 32.3264L204.524 30.0486C202.676 31.6326 201.049 33.4361 199.644 35.4559L202.106 37.1691ZM204.629 32.4089L210.942 36.9089L212.683 34.4661L206.371 29.9661L204.629 32.4089ZM210.562 34.8595C208.535 37.9205 206.994 41.0632 205.948 44.2872L208.802 45.2128C209.756 42.2701 211.173 39.3712 213.063 36.5155L210.562 34.8595ZM205.943 44.3048C204.935 47.5471 204.438 51.0321 204.438 54.75H207.438C207.438 51.3012 207.898 48.1195 208.807 45.1952L205.943 44.3048ZM204.438 54.75V64.0625H207.438V54.75H204.438ZM205.938 62.5625H194.625V65.5625H205.938V62.5625ZM196.125 64.0625V54.9375H193.125V64.0625H196.125Z" fill="#35C85E" mask="url(#path-1-outside-1_1094_2047)"/>
</svg>
