<svg width="17" height="18" viewBox="0 0 17 18" fill="none" xmlns="http://www.w3.org/2000/svg">
<path d="M8.5 15.6749L12.0063 11.9624C12.6996 11.2282 13.1718 10.2927 13.3631 9.27435C13.5544 8.25596 13.4562 7.20039 13.0809 6.24111C12.7056 5.28183 12.07 4.46192 11.2547 3.88507C10.4393 3.30821 9.48065 3.00032 8.5 3.00032C7.51936 3.00032 6.56074 3.30821 5.74535 3.88507C4.92997 4.46192 4.29445 5.28183 3.91915 6.24111C3.54385 7.20039 3.44563 8.25596 3.63691 9.27435C3.82818 10.2927 4.30037 11.2282 4.99375 11.9624L8.5 15.6749ZM8.5 17.7959L3.99217 13.0229C3.10062 12.0789 2.49347 10.8762 2.24749 9.56683C2.00152 8.25746 2.12777 6.90026 2.61028 5.66687C3.09279 4.43347 3.90989 3.37927 4.95825 2.63757C6.00661 1.89588 7.23915 1.5 8.5 1.5C9.76086 1.5 10.9934 1.89588 12.0418 2.63757C13.0901 3.37927 13.9072 4.43347 14.3897 5.66687C14.8722 6.90026 14.9985 8.25746 14.7525 9.56683C14.5065 10.8762 13.8994 12.0789 13.0078 13.0229L8.5 17.7959ZM8.5 9.74994C8.87573 9.74994 9.23606 9.59191 9.50174 9.3106C9.76741 9.0293 9.91667 8.64777 9.91667 8.24994C9.91667 7.85212 9.76741 7.47059 9.50174 7.18928C9.23606 6.90798 8.87573 6.74994 8.5 6.74994C8.12428 6.74994 7.76395 6.90798 7.49827 7.18928C7.23259 7.47059 7.08334 7.85212 7.08334 8.24994C7.08334 8.64777 7.23259 9.0293 7.49827 9.3106C7.76395 9.59191 8.12428 9.74994 8.5 9.74994ZM8.5 11.2499C7.74856 11.2499 7.02789 10.9339 6.49653 10.3713C5.96518 9.80865 5.66667 9.04559 5.66667 8.24994C5.66667 7.45429 5.96518 6.69123 6.49653 6.12862C7.02789 5.56601 7.74856 5.24994 8.5 5.24994C9.25145 5.24994 9.97212 5.56601 10.5035 6.12862C11.0348 6.69123 11.3333 7.45429 11.3333 8.24994C11.3333 9.04559 11.0348 9.80865 10.5035 10.3713C9.97212 10.9339 9.25145 11.2499 8.5 11.2499Z" fill="black"/>
</svg>
