<svg width="40" height="43" viewBox="0 0 40 43" fill="none" xmlns="http://www.w3.org/2000/svg">
<mask id="path-1-outside-1_151_3946" maskUnits="userSpaceOnUse" x="1" y="2.84082" width="38" height="33" fill="black">
<rect fill="white" x="1" y="2.84082" width="38" height="33"/>
<path d="M37.3047 7.47754C33.724 10.0166 31.0872 12.458 29.3945 14.8018C27.7018 17.0804 26.8555 19.2939 26.8555 21.4424C26.8555 22.0934 27.1159 22.4189 27.6367 22.4189L29.7852 22.2236C31.8034 22.2236 33.431 22.777 34.668 23.8838C35.9049 24.9255 36.5234 26.3577 36.5234 28.1807C36.5234 30.0036 35.8724 31.501 34.5703 32.6729C33.3333 33.8447 31.7708 34.4307 29.8828 34.4307C27.4089 34.4307 25.3906 33.5518 23.8281 31.7939C22.2656 29.971 21.4844 27.4971 21.4844 24.3721C21.4844 20.7262 22.5586 17.3083 24.707 14.1182C26.9206 10.863 30.306 7.67285 34.8633 4.54785L37.3047 7.47754ZM18.5547 7.47754C15.4297 9.43066 12.8906 11.7093 10.9375 14.3135C8.98438 16.9176 8.00781 19.2939 8.00781 21.4424C8.00781 22.0934 8.26823 22.4189 8.78906 22.4189L10.8398 22.2236C12.9232 22.2236 14.5833 22.777 15.8203 23.8838C17.0573 24.9255 17.6758 26.3577 17.6758 28.1807C17.6758 30.0036 17.0247 31.501 15.7227 32.6729C14.4857 33.8447 12.9232 34.4307 11.0352 34.4307C8.5612 34.4307 6.54297 33.5518 4.98047 31.7939C3.48307 29.971 2.73438 27.4971 2.73438 24.3721C2.73438 20.7262 3.80859 17.3083 5.95703 14.1182C8.10547 10.863 11.4583 7.67285 16.0156 4.54785L18.5547 7.47754Z"/>
</mask>
<path d="M37.3047 7.47754L37.8831 8.29327L38.765 7.66791L38.0729 6.83735L37.3047 7.47754ZM29.3945 14.8018L30.1973 15.3981L30.2052 15.3872L29.3945 14.8018ZM27.6367 22.4189V23.4189H27.6821L27.7273 23.4148L27.6367 22.4189ZM29.7852 22.2236V21.2236H29.7398L29.6946 21.2277L29.7852 22.2236ZM34.668 23.8838L34.0012 24.629L34.0124 24.639L34.0238 24.6487L34.668 23.8838ZM34.5703 32.6729L33.9013 31.9296L33.8918 31.9381L33.8826 31.9469L34.5703 32.6729ZM23.8281 31.7939L23.0689 32.4447L23.0747 32.4516L23.0807 32.4583L23.8281 31.7939ZM24.707 14.1182L23.8801 13.5558L23.8776 13.5596L24.707 14.1182ZM34.8633 4.54785L35.6315 3.90767L35.0486 3.20823L34.2978 3.72312L34.8633 4.54785ZM18.5547 7.47754L19.0847 8.32554L20.076 7.70599L19.3104 6.82261L18.5547 7.47754ZM10.9375 14.3135L10.1375 13.7135L10.9375 14.3135ZM8.78906 22.4189V23.4189H8.83657L8.88387 23.4144L8.78906 22.4189ZM10.8398 22.2236V21.2236H10.7923L10.745 21.2281L10.8398 22.2236ZM15.8203 23.8838L15.1535 24.629L15.1647 24.639L15.1762 24.6487L15.8203 23.8838ZM15.7227 32.6729L15.0537 31.9296L15.0442 31.9381L15.0349 31.9469L15.7227 32.6729ZM4.98047 31.7939L4.20774 32.4287L4.22011 32.4437L4.23306 32.4583L4.98047 31.7939ZM5.95703 14.1182L6.7865 14.6768L6.79164 14.669L5.95703 14.1182ZM16.0156 4.54785L16.7713 3.89292L16.1865 3.21815L15.4501 3.72312L16.0156 4.54785ZM36.7263 6.66181C33.0975 9.23496 30.365 11.75 28.5839 14.2163L30.2052 15.3872C31.8095 13.166 34.3505 10.7982 37.8831 8.29327L36.7263 6.66181ZM28.5918 14.2054C26.8119 16.6014 25.8555 19.0194 25.8555 21.4424H27.8555C27.8555 19.5685 28.5917 17.5594 30.1973 15.3981L28.5918 14.2054ZM25.8555 21.4424C25.8555 21.8747 25.9376 22.3841 26.2699 22.7995C26.6363 23.2575 27.1556 23.4189 27.6367 23.4189V21.4189C27.609 21.4189 27.6307 21.4145 27.6795 21.4348C27.7345 21.4577 27.7902 21.4983 27.8317 21.5501C27.8694 21.5973 27.8748 21.628 27.8705 21.612C27.8658 21.594 27.8555 21.5418 27.8555 21.4424H25.8555ZM27.7273 23.4148L29.8757 23.2195L29.6946 21.2277L27.5462 21.4231L27.7273 23.4148ZM29.7852 23.2236C31.613 23.2236 32.9852 23.72 34.0012 24.629L35.3348 23.1385C33.8768 21.834 31.9937 21.2236 29.7852 21.2236V23.2236ZM34.0238 24.6487C35.0048 25.4748 35.5234 26.6106 35.5234 28.1807H37.5234C37.5234 26.1049 36.8051 24.3761 35.3121 23.1189L34.0238 24.6487ZM35.5234 28.1807C35.5234 29.7332 34.9832 30.9559 33.9013 31.9296L35.2393 33.4161C36.7616 32.0461 37.5234 30.274 37.5234 28.1807H35.5234ZM33.8826 31.9469C32.8521 32.9232 31.545 33.4307 29.8828 33.4307V35.4307C31.9966 35.4307 33.8146 34.7663 35.2581 33.3988L33.8826 31.9469ZM29.8828 33.4307C27.6777 33.4307 25.9374 32.6617 24.5755 31.1296L23.0807 32.4583C24.8439 34.4419 27.14 35.4307 29.8828 35.4307V33.4307ZM24.5874 31.1432C23.2221 29.5503 22.4844 27.3317 22.4844 24.3721H20.4844C20.4844 27.6624 21.3092 30.3917 23.0689 32.4447L24.5874 31.1432ZM22.4844 24.3721C22.4844 20.9365 23.4928 17.7114 25.5365 14.6768L23.8776 13.5596C21.6244 16.9052 20.4844 20.516 20.4844 24.3721H22.4844ZM25.534 14.6805C27.6554 11.5608 30.9359 8.45346 35.4288 5.37258L34.2978 3.72312C29.6761 6.89224 26.1858 10.1651 23.8801 13.5559L25.534 14.6805ZM34.0951 5.18804L36.5365 8.11772L38.0729 6.83735L35.6315 3.90767L34.0951 5.18804ZM18.0247 6.62954C14.8089 8.63943 12.1737 10.9986 10.1375 13.7135L11.7375 14.9135C13.6076 12.4201 16.0505 10.2219 19.0847 8.32554L18.0247 6.62954ZM10.1375 13.7135C8.11787 16.4063 7.00781 18.9916 7.00781 21.4424H9.00781C9.00781 19.5963 9.85088 17.429 11.7375 14.9135L10.1375 13.7135ZM7.00781 21.4424C7.00781 21.8747 7.08991 22.3841 7.42226 22.7995C7.78869 23.2575 8.30794 23.4189 8.78906 23.4189V21.4189C8.7613 21.4189 8.78305 21.4145 8.83188 21.4348C8.88682 21.4577 8.94252 21.4983 8.98399 21.5501C9.02176 21.5973 9.02714 21.628 9.02288 21.612C9.0181 21.594 9.00781 21.5418 9.00781 21.4424H7.00781ZM8.88387 23.4144L10.9347 23.2191L10.745 21.2281L8.69425 21.4234L8.88387 23.4144ZM10.8398 23.2236C12.7423 23.2236 14.1432 23.7251 15.1535 24.629L16.4871 23.1385C15.0234 21.8289 13.1041 21.2236 10.8398 21.2236V23.2236ZM15.1762 24.6487C16.1572 25.4748 16.6758 26.6106 16.6758 28.1807H18.6758C18.6758 26.1049 17.9574 24.3761 16.4644 23.1189L15.1762 24.6487ZM16.6758 28.1807C16.6758 29.7332 16.1355 30.9559 15.0537 31.9296L16.3916 33.4161C17.9139 32.0461 18.6758 30.274 18.6758 28.1807H16.6758ZM15.0349 31.9469C14.0044 32.9232 12.6974 33.4307 11.0352 33.4307V35.4307C13.149 35.4307 14.9669 34.7663 16.4104 33.3988L15.0349 31.9469ZM11.0352 33.4307C8.83002 33.4307 7.08972 32.6617 5.72788 31.1296L4.23306 32.4583C5.99622 34.4419 8.29237 35.4307 11.0352 35.4307V33.4307ZM5.7532 31.1592C4.44451 29.566 3.73438 27.3412 3.73438 24.3721H1.73438C1.73438 27.6529 2.52163 30.376 4.20774 32.4287L5.7532 31.1592ZM3.73438 24.3721C3.73438 20.9365 4.74276 17.7114 6.78647 14.6768L5.12759 13.5596C2.87442 16.9052 1.73438 20.516 1.73438 24.3721H3.73438ZM6.79164 14.669C8.84586 11.5566 12.0894 8.45266 16.5812 5.37258L15.4501 3.72312C10.8273 6.89304 7.36508 10.1694 5.12242 13.5673L6.79164 14.669ZM15.2599 5.20278L17.799 8.13247L19.3104 6.82261L16.7713 3.89292L15.2599 5.20278Z" fill="#B40FE7" mask="url(#path-1-outside-1_151_3946)"/>
</svg>
