<svg width="110" height="126" viewBox="0 0 110 126" fill="none" xmlns="http://www.w3.org/2000/svg">
<path fill-rule="evenodd" clip-rule="evenodd" d="M140.164 80C131.124 94.4252 115.184 104 97.0352 104C86.3583 104 76.4457 100.686 68.2528 95.0204C68.7653 92.758 69.0352 90.4091 69.0352 88C69.0352 81.0249 66.7727 74.5552 62.9115 69.2257C71.9504 61.0035 83.9158 56 97.0352 56C115.184 56 131.124 65.5748 140.164 80ZM68.0352 88C68.0352 90.1883 67.8048 92.3263 67.3657 94.3929C62.0142 90.5214 57.4348 85.6301 53.9067 80C56.2318 76.2896 59.0136 72.9 62.172 69.9118C65.8724 75.0622 68.0352 81.2951 68.0352 88ZM97.0352 55C83.6887 55 71.5166 60.0765 62.3099 68.4212C58.2898 63.2121 52.7064 59.1743 46.2221 56.9416C46.0983 55.4777 46.0352 53.9963 46.0352 52.5C46.0352 24.0483 68.8776 1 97.0352 1C125.193 1 148.035 24.0483 148.035 52.5C148.035 62.2137 145.373 71.2975 140.745 79.0494C131.486 64.5786 115.368 55 97.0352 55ZM61.5717 69.1033C57.7572 64.1304 52.4746 60.2455 46.3264 58.0372C47.1336 65.6632 49.5889 72.7905 53.3252 79.0494C55.6621 75.3973 58.4358 72.0568 61.5717 69.1033ZM45.0352 52.5C45.0352 53.8812 45.088 55.25 45.1917 56.6044C41.8357 55.5629 38.2541 55 34.5352 55C15.4813 55 0.0351562 69.7746 0.0351562 88C0.0351562 101.048 7.95233 112.328 19.4424 117.683C17.2589 122.014 16.0352 126.87 16.0352 132C16.0352 150.225 31.4813 165 50.5352 165C60.1689 165 68.8803 161.223 75.1394 155.133C81.7942 158.256 89.213 160 97.0352 160C125.754 160 149.035 136.495 149.035 107.5C149.035 97.4169 146.22 87.9977 141.339 80C146.22 72.0023 149.035 62.5831 149.035 52.5C149.035 23.5051 125.754 0 97.0352 0C68.3163 0 45.0352 23.5051 45.0352 52.5ZM75.8905 154.379C82.3329 157.347 89.4934 159 97.0352 159C125.193 159 148.035 135.952 148.035 107.5C148.035 97.7863 145.373 88.7025 140.745 80.9506C131.486 95.4214 115.368 105 97.0352 105C86.2818 105 76.2908 101.705 67.9989 96.0593C67.4269 98.2394 66.6281 100.333 65.628 102.317C77.118 107.672 85.0352 118.952 85.0352 132C85.0352 140.636 81.5671 148.497 75.8905 154.379ZM65.164 103.203C76.3486 108.397 84.0352 119.36 84.0352 132C84.0352 140.473 80.5811 148.193 74.9348 153.926C61.0509 147.174 50.6577 134.259 47.2421 118.69C54.9845 115.754 61.3518 110.216 65.164 103.203ZM64.7131 101.906C65.7462 99.8645 66.5589 97.7025 67.1218 95.4489C61.6531 91.5593 56.9606 86.632 53.3252 80.9506C50.0435 86.4481 47.75 92.6154 46.6936 99.2023C47.9548 99.0686 49.2366 99 50.5352 99C55.5885 99 60.3881 100.039 64.7131 101.906ZM46.54 100.225C47.8497 100.076 49.1829 100 50.5352 100C55.4245 100 60.0644 100.999 64.2466 102.793C60.5708 109.516 54.4668 114.843 47.0351 117.699C46.3793 114.403 46.0352 110.992 46.0352 107.5C46.0352 105.03 46.2073 102.602 46.54 100.225ZM45.6616 99.3267C46.7448 92.3307 49.1963 85.7925 52.7311 80C48.697 73.3893 46.0738 65.8073 45.2853 57.682C41.9129 56.5916 38.2979 56 34.5352 56C15.9913 56 1.03516 70.3683 1.03516 88C1.03516 100.64 8.72172 111.603 19.9063 116.797C24.9409 107.536 34.4321 100.845 45.6616 99.3267ZM20.8238 117.207C25.6714 108.341 34.7423 101.902 45.5124 100.357C45.1977 102.693 45.0352 105.077 45.0352 107.5C45.0352 111.113 45.3967 114.641 46.0851 118.048C42.4869 119.311 38.5971 120 34.5352 120C29.6458 120 25.0059 119.001 20.8238 117.207ZM20.3572 118.094C24.6822 119.961 29.4818 121 34.5352 121C38.6644 121 42.6241 120.306 46.294 119.034C49.778 134.725 60.2201 147.762 74.1786 154.67C68.1264 160.432 59.7763 164 50.5352 164C31.9913 164 17.0352 149.632 17.0352 132C17.0352 127.021 18.2279 122.302 20.3572 118.094Z" fill="#3155FF" fill-opacity="0.3"/>
</svg>
