<svg width="390" height="523" viewBox="0 0 390 523" fill="none" xmlns="http://www.w3.org/2000/svg">
<path d="M262.408 345.363L262.311 345.479C261.838 346.037 259.682 348.308 256.333 348.303C254.176 348.301 251.487 347.379 248.344 344.391L248.053 344.316C248.053 344.316 247.99 344.331 247.865 344.359C247.487 344.439 246.571 344.604 245.416 344.604C244.006 344.605 242.242 344.359 240.651 343.439C239.059 342.519 237.621 340.94 236.824 338.186C236.775 338.016 236.601 337.917 236.435 337.966L236.322 337.996C236.09 338.052 235.527 338.169 234.86 338.168C234.228 338.169 233.507 338.064 232.878 337.73C232.249 337.394 231.702 336.844 231.37 335.882L231.179 335.683L230.908 335.713L230.809 335.773C230.329 336.053 228.179 337.201 225.604 337.198C223.088 337.189 220.172 336.148 217.823 332.079L217.63 331.93L217.574 331.913C217.271 331.823 215.821 331.338 214.332 330.064C212.842 328.788 211.31 326.735 210.8 323.451C210.682 322.687 210.629 321.957 210.629 321.264C210.629 318.424 211.508 316.181 212.388 314.644C212.828 313.876 213.268 313.284 213.597 312.888C213.76 312.69 213.896 312.541 213.991 312.441L214.098 312.33L214.133 312.297C214.225 312.21 214.259 312.075 214.218 311.953L214.186 311.839C214.121 311.601 213.989 311.016 213.989 310.287C213.989 309.526 214.132 308.615 214.63 307.756C215.128 306.897 215.98 306.076 217.463 305.493C217.58 305.447 217.659 305.332 217.666 305.204C217.666 305.204 217.671 305.07 217.701 304.816C217.805 303.927 218.212 301.665 219.677 299.571C221.147 297.478 223.648 295.531 228.069 295.213C228.197 295.204 228.308 295.113 228.347 294.986L228.387 294.864C228.602 294.24 229.699 291.344 232.35 288.62C235.003 285.897 239.194 283.332 245.678 283.329C247.16 283.329 248.763 283.464 250.495 283.762L250.765 283.678L250.922 283.534C251.677 282.863 255.061 280.14 259.771 280.144C262.315 280.145 265.254 280.928 268.426 283.268L268.743 283.298L268.788 283.277C269.016 283.176 270.072 282.748 271.376 282.749C273.033 282.761 275.057 283.391 276.501 286.295C276.565 286.425 276.704 286.495 276.842 286.466L276.97 286.444C277.233 286.403 277.885 286.316 278.793 286.316C281.892 286.323 287.894 287.299 291.743 294.422C291.805 294.536 291.927 294.601 292.052 294.586L292.177 294.577C292.263 294.572 292.391 294.567 292.554 294.567C293.394 294.566 295.162 294.708 296.983 295.712C298.803 296.718 300.69 298.569 301.809 302.066L301.989 302.264L302.044 302.29C302.342 302.428 303.755 303.135 305.08 304.593C306.405 306.055 307.646 308.249 307.648 311.429L307.646 311.603L307.781 311.872L307.807 311.892C308.103 312.122 310.687 314.231 310.686 318.515C310.686 319.533 310.54 320.678 310.181 321.956L310.209 322.206L310.258 322.299C310.487 322.753 311.43 324.801 311.427 327.301C311.427 328.427 311.238 329.645 310.714 330.863C309.76 333.074 308.84 334.396 308.171 335.162C307.835 335.543 307.562 335.787 307.378 335.932L307.17 336.081L307.122 336.111L307.113 336.116L307.141 336.172L307.114 336.116H307.113L307.141 336.172L307.114 336.116C307.006 336.171 306.938 336.286 306.941 336.411V336.481C306.941 336.97 306.898 339.959 305.942 343.392C304.987 346.827 303.124 350.687 299.52 352.986C297.214 354.46 294.372 354.987 291.516 354.987C288.215 354.987 284.905 354.283 282.427 353.579C281.188 353.226 280.156 352.874 279.435 352.61C278.713 352.346 278.309 352.173 278.308 352.173C278.147 352.104 277.963 352.183 277.896 352.348C277.83 352.514 277.907 352.703 278.068 352.772C278.086 352.777 284.744 355.631 291.516 355.635C294.444 355.634 297.403 355.101 299.853 353.537C303.646 351.113 305.567 347.089 306.547 343.571C307.527 340.049 307.57 337.009 307.57 336.481V336.402L307.255 336.406L307.396 336.696C307.468 336.66 309.337 335.655 311.289 331.127C311.855 329.814 312.056 328.502 312.056 327.301C312.054 324.253 310.77 321.913 310.758 321.887L310.483 322.046L310.785 322.136C311.16 320.804 311.315 319.597 311.315 318.515C311.311 313.632 308.177 311.365 308.141 311.341L307.961 311.607L308.275 311.61L308.277 311.429C308.279 307.844 306.763 305.386 305.257 303.851C303.749 302.312 302.252 301.675 302.228 301.665L302.108 301.964L302.406 301.863C301.247 298.22 299.23 296.211 297.279 295.14C295.329 294.067 293.46 293.918 292.554 293.918C292.201 293.918 291.993 293.94 291.983 293.942L292.017 294.265L292.293 294.106C288.312 286.724 282.004 285.659 278.793 285.667C277.532 285.667 276.736 285.827 276.721 285.83L276.782 286.148L277.062 286C275.536 282.884 273.192 282.088 271.376 282.101C269.735 282.102 268.5 282.7 268.476 282.71L268.609 283.003L268.793 282.74C265.526 280.327 262.441 279.494 259.771 279.495C254.111 279.502 250.358 283.185 250.33 283.208L250.548 283.443L250.6 283.123C248.836 282.818 247.198 282.68 245.678 282.68C238.585 282.677 234.077 285.702 231.377 288.727C228.675 291.752 227.757 294.764 227.747 294.791L228.047 294.889L228.026 294.566C222.782 294.929 219.987 297.591 218.566 300.151C217.14 302.708 217.039 305.147 217.037 305.175L217.351 305.19L217.239 304.886C215.646 305.509 214.66 306.435 214.089 307.423C213.518 308.411 213.36 309.445 213.36 310.287C213.36 311.366 213.616 312.14 213.623 312.162L213.92 312.058L213.709 311.818C213.681 311.847 210.005 315.298 210 321.264C210 321.991 210.055 322.756 210.179 323.554C210.745 327.232 212.569 329.5 214.246 330.823C215.923 332.149 217.448 332.551 217.474 332.558L217.552 332.244L217.282 332.41C219.711 336.657 222.913 337.857 225.604 337.847C228.753 337.843 231.211 336.279 231.238 336.266L231.073 335.989L230.776 336.097C231.153 337.207 231.837 337.911 232.591 338.308C233.346 338.706 234.164 338.816 234.86 338.816C235.842 338.816 236.591 338.594 236.609 338.59L236.522 338.278L236.22 338.371C237.054 341.268 238.618 343.014 240.344 344.006C242.069 344.999 243.937 345.252 245.416 345.252C247.034 345.252 248.192 344.948 248.208 344.944L248.131 344.63L247.917 344.868C251.139 347.937 253.995 348.953 256.333 348.951C260.495 348.942 262.879 345.79 262.903 345.762C263.009 345.621 262.986 345.417 262.85 345.307C262.713 345.197 262.515 345.221 262.408 345.363Z" fill="url(#paint0_linear_446_1187)"/>
<path d="M269.242 325.975H253.141V309.372H269.242V325.975Z" fill="url(#paint1_linear_446_1187)"/>
<path d="M255.03 327.465H254.08V307.883H255.03V327.465Z" fill="url(#paint2_linear_446_1187)"/>
<path d="M257.188 327.465H256.238V307.883H257.188V327.465Z" fill="url(#paint3_linear_446_1187)"/>
<path d="M259.346 327.465H258.396V307.883H259.346V327.465Z" fill="url(#paint4_linear_446_1187)"/>
<path d="M261.505 327.465H260.555V307.883H261.505V327.465Z" fill="url(#paint5_linear_446_1187)"/>
<path d="M263.66 327.465H262.711V307.883H263.66V327.465Z" fill="url(#paint6_linear_446_1187)"/>
<path d="M265.819 327.465H264.869V307.883H265.819V327.465Z" fill="url(#paint7_linear_446_1187)"/>
<path d="M267.977 327.465H267.027V307.883H267.977V327.465Z" fill="url(#paint8_linear_446_1187)"/>
<path d="M270.523 323.861V324.84H251.533V323.861H270.523Z" fill="url(#paint9_linear_446_1187)"/>
<path d="M270.523 321.634V322.613H251.533V321.634H270.523Z" fill="url(#paint10_linear_446_1187)"/>
<path d="M270.523 319.41V320.388H251.533V319.41H270.523Z" fill="url(#paint11_linear_446_1187)"/>
<path d="M270.523 317.185V318.164H251.533V317.185H270.523Z" fill="url(#paint12_linear_446_1187)"/>
<path d="M270.523 314.959V315.938H251.533V314.959H270.523Z" fill="url(#paint13_linear_446_1187)"/>
<path d="M270.523 312.734V313.712H251.533V312.734H270.523Z" fill="url(#paint14_linear_446_1187)"/>
<path d="M270.523 310.51V311.487H251.533V310.51H270.523Z" fill="url(#paint15_linear_446_1187)"/>
<path d="M227.831 295.124L244.38 311.234L244.596 311.322H253.409C253.583 311.322 253.724 311.176 253.724 310.997C253.724 310.818 253.583 310.673 253.409 310.673H244.721L228.262 294.652C228.137 294.53 227.938 294.535 227.818 294.666C227.699 294.796 227.705 295.001 227.831 295.124Z" fill="url(#paint16_linear_446_1187)"/>
<path d="M224.003 295.92L241.228 313.454L241.449 313.547H253.409C253.582 313.547 253.723 313.402 253.723 313.223C253.723 313.044 253.582 312.899 253.409 312.899H241.579L224.445 295.458C224.322 295.332 224.123 295.334 224.001 295.461C223.879 295.589 223.88 295.794 224.003 295.92Z" fill="url(#paint17_linear_446_1187)"/>
<path d="M269.24 317.998H279.45L307.082 336.676C307.227 336.775 307.422 336.734 307.518 336.583C307.613 336.434 307.572 336.233 307.427 336.134L279.715 317.403L279.543 317.35H269.24C269.067 317.35 268.926 317.495 268.926 317.674C268.926 317.853 269.067 317.998 269.24 317.998Z" fill="url(#paint18_linear_446_1187)"/>
<path d="M217.12 305.411L230.379 320.12L230.609 320.223H253.139C253.312 320.223 253.453 320.079 253.453 319.898C253.453 319.719 253.312 319.575 253.139 319.575L230.746 319.574L217.58 304.97C217.462 304.838 217.263 304.831 217.136 304.953C217.008 305.075 217.001 305.28 217.12 305.411Z" fill="url(#paint19_linear_446_1187)"/>
<path d="M213.688 312.276L222.625 322.343L222.858 322.448H253.139C253.313 322.448 253.453 322.303 253.453 322.124C253.453 321.945 253.313 321.8 253.139 321.8H222.996L214.152 311.838C214.034 311.706 213.835 311.697 213.707 311.818C213.58 311.938 213.571 312.145 213.688 312.276Z" fill="url(#paint20_linear_446_1187)"/>
<path d="M224.77 305.485H233.53C233.703 305.485 233.844 305.34 233.844 305.161C233.844 304.982 233.703 304.837 233.53 304.837H224.77C224.596 304.837 224.455 304.982 224.455 305.161C224.455 305.34 224.596 305.485 224.77 305.485Z" fill="url(#paint21_linear_446_1187)"/>
<path d="M230.623 310.984L230.223 319.884C230.214 320.063 230.349 320.214 230.522 320.222C230.696 320.231 230.843 320.093 230.851 319.913L231.251 311.014C231.26 310.834 231.125 310.683 230.952 310.674C230.778 310.666 230.631 310.805 230.623 310.984Z" fill="url(#paint22_linear_446_1187)"/>
<path d="M224.549 305.189H224.235C224.235 305.638 223.882 306.001 223.447 306.003C223.011 306.001 222.658 305.638 222.658 305.189C222.658 304.74 223.011 304.377 223.447 304.376C223.882 304.377 224.235 304.74 224.235 305.189H224.549H224.864C224.864 304.382 224.23 303.727 223.447 303.727C222.663 303.727 222.029 304.382 222.029 305.189C222.029 305.997 222.663 306.651 223.447 306.651C224.23 306.651 224.864 305.997 224.864 305.189H224.549Z" fill="url(#paint23_linear_446_1187)"/>
<path d="M245.795 298.591H254.554C254.727 298.591 254.868 298.446 254.868 298.267C254.868 298.088 254.727 297.943 254.554 297.943H245.795C245.621 297.943 245.48 298.088 245.48 298.267C245.48 298.446 245.621 298.591 245.795 298.591Z" fill="url(#paint24_linear_446_1187)"/>
<path d="M245.576 298.296H245.261C245.261 298.745 244.909 299.108 244.473 299.109C244.037 299.108 243.685 298.745 243.684 298.296C243.685 297.847 244.037 297.484 244.473 297.482C244.909 297.484 245.261 297.847 245.261 298.296H245.576H245.89C245.89 297.489 245.256 296.834 244.473 296.834C243.69 296.834 243.056 297.489 243.055 298.296C243.056 299.104 243.69 299.758 244.473 299.758C245.256 299.758 245.89 299.104 245.89 298.296H245.576Z" fill="url(#paint25_linear_446_1187)"/>
<path d="M276.262 304.103H267.502C267.328 304.103 267.188 304.248 267.188 304.427C267.188 304.606 267.328 304.751 267.502 304.751H276.262C276.436 304.751 276.577 304.606 276.577 304.427C276.577 304.248 276.436 304.103 276.262 304.103Z" fill="url(#paint26_linear_446_1187)"/>
<path d="M276.482 304.457H276.168C276.168 305.264 276.802 305.917 277.585 305.917C278.367 305.917 279.002 305.264 279.002 304.457C279.002 303.648 278.367 302.995 277.585 302.995C276.802 302.995 276.168 303.648 276.168 304.457H276.482H276.797C276.797 304.006 277.151 303.643 277.585 303.643C278.02 303.643 278.372 304.006 278.373 304.457C278.372 304.904 278.02 305.267 277.585 305.269C277.151 305.267 276.797 304.904 276.797 304.457H276.482Z" fill="url(#paint27_linear_446_1187)"/>
<path d="M286.344 332.675H277.584C277.41 332.675 277.27 332.82 277.27 332.999C277.27 333.178 277.41 333.323 277.584 333.323H286.344C286.518 333.323 286.659 333.178 286.659 332.999C286.659 332.82 286.518 332.675 286.344 332.675Z" fill="url(#paint28_linear_446_1187)"/>
<path d="M286.565 333.028H286.25C286.251 333.835 286.885 334.489 287.668 334.49C288.452 334.489 289.086 333.835 289.086 333.028C289.086 332.22 288.452 331.566 287.668 331.566C286.885 331.566 286.251 332.22 286.25 333.028H286.565H286.879C286.88 332.578 287.233 332.215 287.668 332.215C288.104 332.215 288.457 332.578 288.457 333.028C288.457 333.477 288.104 333.84 287.668 333.842C287.233 333.84 286.88 333.477 286.879 333.028H286.565Z" fill="url(#paint29_linear_446_1187)"/>
<path d="M269.24 332.655H268.926C268.926 333.462 269.56 334.116 270.344 334.116C271.126 334.116 271.76 333.462 271.76 332.655C271.76 331.847 271.126 331.193 270.344 331.193C269.56 331.193 268.926 331.847 268.926 332.655H269.24H269.555C269.556 332.205 269.908 331.841 270.344 331.841C270.778 331.841 271.13 332.205 271.131 332.655C271.13 333.104 270.778 333.467 270.344 333.467C269.908 333.467 269.556 333.104 269.555 332.655H269.24Z" fill="url(#paint30_linear_446_1187)"/>
<path d="M292.21 341.254H278.188C278.014 341.254 277.873 341.399 277.873 341.578C277.873 341.757 278.014 341.902 278.188 341.902H292.21C292.384 341.902 292.525 341.757 292.525 341.578C292.525 341.399 292.384 341.254 292.21 341.254Z" fill="url(#paint31_linear_446_1187)"/>
<path d="M292.158 341.625H291.844C291.844 342.515 292.543 343.238 293.406 343.238C294.269 343.238 294.969 342.515 294.969 341.625C294.969 340.735 294.269 340.014 293.406 340.013C292.543 340.014 291.844 340.735 291.844 341.625H292.158H292.473C292.473 341.093 292.891 340.663 293.406 340.661C293.922 340.663 294.339 341.093 294.34 341.625C294.339 342.157 293.921 342.588 293.406 342.589C292.891 342.588 292.473 342.157 292.473 341.625H292.158Z" fill="url(#paint32_linear_446_1187)"/>
<path d="M282.436 385.901H282.121C282.121 386.791 282.821 387.511 283.684 387.513C284.548 387.513 285.247 386.791 285.249 385.901C285.249 385.01 284.548 384.287 283.684 384.287C282.821 384.287 282.121 385.01 282.121 385.901H282.436H282.75C282.751 385.368 283.169 384.937 283.684 384.936C284.201 384.937 284.618 385.368 284.62 385.901C284.618 386.432 284.201 386.863 283.684 386.864C283.169 386.863 282.751 386.432 282.75 385.901H282.436Z" fill="url(#paint33_linear_446_1187)"/>
<path d="M276.336 381.508H276.021C276.021 382.398 276.721 383.12 277.584 383.12C278.448 383.12 279.148 382.398 279.148 381.508C279.148 380.618 278.448 379.897 277.584 379.897C276.721 379.897 276.021 380.618 276.021 381.508H276.336H276.651C276.651 380.976 277.068 380.546 277.584 380.546C278.101 380.546 278.518 380.976 278.519 381.508C278.518 382.039 278.101 382.47 277.584 382.471C277.068 382.47 276.651 382.039 276.651 381.508H276.336Z" fill="url(#paint34_linear_446_1187)"/>
<path d="M267.736 378.21H267.422C267.422 379.1 268.121 379.822 268.984 379.822C269.847 379.822 270.547 379.1 270.547 378.21C270.547 377.319 269.847 376.598 268.984 376.598C268.121 376.598 267.422 377.319 267.422 378.21H267.736H268.051C268.051 377.677 268.469 377.247 268.984 377.247C269.499 377.247 269.917 377.677 269.918 378.21C269.917 378.741 269.499 379.172 268.984 379.173C268.469 379.172 268.051 378.741 268.051 378.21H267.736Z" fill="url(#paint35_linear_446_1187)"/>
<path d="M260.654 383.825H260.34C260.34 384.715 261.039 385.437 261.904 385.437C262.767 385.437 263.466 384.715 263.466 383.825C263.466 382.935 262.767 382.214 261.904 382.214C261.039 382.214 260.34 382.935 260.34 383.825H260.654H260.969C260.969 383.293 261.387 382.863 261.904 382.863C262.419 382.863 262.836 383.293 262.837 383.825C262.836 384.357 262.419 384.787 261.904 384.788C261.387 384.787 260.969 384.356 260.969 383.825H260.654Z" fill="url(#paint36_linear_446_1187)"/>
<path d="M298.059 323.492H297.744C297.744 324.3 298.379 324.954 299.162 324.954C299.946 324.954 300.58 324.3 300.58 323.492C300.58 322.684 299.946 322.03 299.162 322.03C298.379 322.03 297.744 322.684 297.744 323.492H298.059H298.373C298.374 323.043 298.727 322.68 299.162 322.679C299.597 322.68 299.95 323.043 299.951 323.492C299.95 323.941 299.597 324.304 299.162 324.305C298.727 324.304 298.374 323.941 298.373 323.492H298.059Z" fill="url(#paint37_linear_446_1187)"/>
<path d="M232.041 309.372H231.727C231.726 309.821 231.373 310.184 230.938 310.185C230.504 310.184 230.151 309.821 230.151 309.372C230.151 308.923 230.504 308.56 230.938 308.558C231.373 308.56 231.726 308.923 231.727 309.372H232.041H232.356C232.355 308.565 231.721 307.91 230.938 307.91C230.156 307.911 229.521 308.565 229.521 309.372C229.521 310.179 230.156 310.833 230.938 310.834C231.721 310.834 232.355 310.179 232.356 309.372H232.041Z" fill="url(#paint38_linear_446_1187)"/>
<path d="M233.529 331.891H233.214C233.214 332.34 232.861 332.703 232.426 332.704C231.99 332.703 231.638 332.34 231.637 331.891C231.638 331.441 231.99 331.077 232.426 331.077C232.861 331.077 233.214 331.441 233.214 331.891H233.529H233.843C233.843 331.083 233.209 330.429 232.426 330.429C231.643 330.429 231.008 331.083 231.008 331.891C231.008 332.698 231.643 333.352 232.426 333.353C233.209 333.352 233.843 332.698 233.843 331.891H233.529Z" fill="url(#paint39_linear_446_1187)"/>
<path d="M253.409 324.025H243.86C243.745 324.025 243.639 324.09 243.584 324.195L236.245 338.123C236.162 338.28 236.219 338.477 236.372 338.563C236.525 338.649 236.716 338.59 236.799 338.433L244.048 324.673H253.409C253.583 324.673 253.724 324.528 253.724 324.349C253.724 324.17 253.583 324.025 253.409 324.025Z" fill="url(#paint40_linear_446_1187)"/>
<path d="M233.324 330.903L237.662 322.274C237.741 322.116 237.681 321.92 237.527 321.837C237.372 321.755 237.182 321.817 237.103 321.976L232.765 330.604C232.686 330.763 232.746 330.959 232.9 331.042C233.055 331.123 233.245 331.061 233.324 330.903Z" fill="url(#paint41_linear_446_1187)"/>
<path d="M220.131 329.635H219.816C219.815 330.082 219.463 330.447 219.027 330.447C218.592 330.447 218.238 330.082 218.238 329.635C218.238 329.186 218.592 328.823 219.027 328.821C219.463 328.823 219.815 329.186 219.816 329.635H220.131H220.445C220.445 328.828 219.81 328.174 219.027 328.173C218.243 328.174 217.609 328.828 217.609 329.635C217.609 330.442 218.243 331.096 219.027 331.096C219.81 331.096 220.445 330.442 220.445 329.635H220.131Z" fill="url(#paint42_linear_446_1187)"/>
<path d="M219.957 328.646L223.16 322.273C223.24 322.115 223.18 321.919 223.025 321.836C222.872 321.754 222.682 321.816 222.601 321.975L219.398 328.347C219.319 328.507 219.379 328.703 219.533 328.784C219.688 328.868 219.877 328.805 219.957 328.646Z" fill="url(#paint43_linear_446_1187)"/>
<path d="M254.868 309.372V294.071L254.847 293.953L250.841 283.325C250.777 283.159 250.595 283.076 250.433 283.141C250.271 283.206 250.19 283.394 250.255 283.56L254.239 294.132V309.372C254.239 309.551 254.38 309.697 254.553 309.697C254.727 309.697 254.868 309.551 254.868 309.372Z" fill="url(#paint44_linear_446_1187)"/>
<path d="M268.363 282.804L260.782 292.719L260.715 292.921V309.372C260.715 309.551 260.856 309.697 261.029 309.697C261.203 309.697 261.344 309.551 261.344 309.372V293.032L268.856 283.205C268.964 283.064 268.94 282.861 268.804 282.749C268.667 282.639 268.47 282.662 268.363 282.804Z" fill="url(#paint45_linear_446_1187)"/>
<path d="M276.529 285.955L267.249 298.913L267.188 299.105V309.372C267.188 309.551 267.328 309.697 267.502 309.697C267.676 309.697 267.817 309.551 267.817 309.372V299.211L277.035 286.34C277.138 286.196 277.109 285.994 276.969 285.887C276.829 285.781 276.632 285.811 276.529 285.955Z" fill="url(#paint46_linear_446_1187)"/>
<path d="M291.756 294.083L279.407 312.899H269.24C269.067 312.899 268.926 313.044 268.926 313.223C268.926 313.402 269.067 313.547 269.24 313.547H279.574L279.835 313.405L292.277 294.446C292.375 294.297 292.338 294.096 292.194 293.996C292.049 293.895 291.854 293.934 291.756 294.083Z" fill="url(#paint47_linear_446_1187)"/>
<path d="M301.851 301.776L292.637 315.123H269.24C269.067 315.123 268.926 315.269 268.926 315.448C268.926 315.627 269.067 315.772 269.24 315.772H292.799L293.055 315.636L302.364 302.152C302.465 302.006 302.431 301.803 302.29 301.699C302.148 301.596 301.952 301.629 301.851 301.776Z" fill="url(#paint48_linear_446_1187)"/>
<path d="M307.78 311.087L299.551 322.418C299.447 322.562 299.476 322.766 299.614 322.872C299.754 322.98 299.95 322.951 300.054 322.807L308.284 311.476C308.388 311.334 308.359 311.13 308.221 311.022C308.081 310.916 307.885 310.944 307.78 311.087Z" fill="url(#paint49_linear_446_1187)"/>
<path d="M303.94 329.574H303.625C303.625 330.382 304.259 331.036 305.043 331.036C305.825 331.036 306.461 330.382 306.461 329.574C306.461 328.767 305.825 328.113 305.043 328.113C304.259 328.113 303.625 328.767 303.625 329.574H303.94H304.254C304.255 329.125 304.608 328.762 305.043 328.762C305.478 328.762 305.83 329.125 305.832 329.574C305.83 330.024 305.478 330.387 305.043 330.387C304.608 330.387 304.255 330.024 304.254 329.574H303.94Z" fill="url(#paint50_linear_446_1187)"/>
<path d="M310.327 321.44L305.387 328.242C305.283 328.385 305.311 328.588 305.45 328.696C305.589 328.802 305.786 328.774 305.891 328.63L310.83 321.828C310.934 321.685 310.907 321.481 310.767 321.374C310.629 321.267 310.431 321.296 310.327 321.44Z" fill="url(#paint51_linear_446_1187)"/>
<path d="M269.24 324.673H275.969L277.873 352.495C277.886 352.673 278.036 352.808 278.209 352.795C278.383 352.783 278.512 352.628 278.501 352.449L276.575 324.327C276.564 324.157 276.427 324.025 276.262 324.025H269.24C269.067 324.025 268.926 324.17 268.926 324.349C268.926 324.528 269.067 324.673 269.24 324.673Z" fill="url(#paint52_linear_446_1187)"/>
<path d="M248.411 344.778L254.272 332.979H268.949C269.124 332.979 269.264 332.834 269.264 332.655C269.264 332.475 269.124 332.331 268.949 332.331H254.08C253.962 332.331 253.853 332.398 253.8 332.507L247.851 344.482C247.772 344.641 247.833 344.837 247.988 344.919C248.143 344.999 248.332 344.937 248.411 344.778Z" fill="url(#paint53_linear_446_1187)"/>
<path d="M262.398 339.18L263.437 358.007L260.442 360.818L260.34 361.074L261.348 382.242C261.356 382.421 261.504 382.558 261.677 382.549C261.851 382.54 261.984 382.389 261.975 382.209L260.975 361.196L263.972 358.383L264.074 358.125L263.026 339.143C263.016 338.964 262.867 338.828 262.694 338.838C262.52 338.848 262.388 339.002 262.398 339.18Z" fill="url(#paint54_linear_446_1187)"/>
<path d="M266.557 338.66L268.671 376.94C268.681 377.119 268.829 377.255 269.003 377.245C269.177 377.234 269.309 377.081 269.299 376.902L267.185 338.623C267.175 338.444 267.026 338.307 266.853 338.317C266.679 338.327 266.547 338.481 266.557 338.66Z" fill="url(#paint55_linear_446_1187)"/>
<path d="M270.129 338.661L271.421 362.039C271.429 362.178 271.521 362.295 271.65 362.333L276.646 363.775L277.27 380.234C277.277 380.413 277.424 380.553 277.597 380.545C277.77 380.539 277.906 380.388 277.899 380.209L277.266 363.515C277.26 363.373 277.168 363.253 277.036 363.215L272.037 361.771L270.758 338.625C270.748 338.446 270.6 338.308 270.426 338.318C270.253 338.329 270.121 338.482 270.129 338.661Z" fill="url(#paint56_linear_446_1187)"/>
<path d="M274.032 338.428L275.12 358.155C275.128 358.297 275.224 358.417 275.358 358.452L281.667 360.068L283.371 384.635C283.383 384.814 283.533 384.949 283.706 384.936C283.88 384.923 284.011 384.767 283.998 384.59L282.279 359.787C282.269 359.648 282.172 359.53 282.039 359.496L275.735 357.88L274.66 338.392C274.65 338.213 274.501 338.077 274.327 338.086C274.154 338.096 274.022 338.249 274.032 338.428Z" fill="url(#paint57_linear_446_1187)"/>
<path d="M182.661 241.188L139.75 314.849L140.905 315.509L183.815 241.848" fill="url(#paint58_linear_446_1187)"/>
<path d="M352.183 387.659C353.709 386.803 354.248 384.882 353.384 383.369C352.523 381.855 350.585 381.322 349.057 382.177C347.531 383.034 346.992 384.954 347.855 386.466C348.717 387.98 350.655 388.514 352.183 387.659Z" fill="url(#paint59_linear_446_1187)"/>
<path d="M369.622 350.905L326.711 424.566L327.866 425.227L370.776 351.566" fill="url(#paint60_linear_446_1187)"/>
<path d="M376.438 392.252L443.454 269.29L421.431 213.262L515.134 53.1999L510.521 50.5463L415.53 212.81L437.589 268.93L371.746 389.74L376.438 392.252Z" fill="url(#paint61_linear_446_1187)"/>
<path d="M377 398.581H374.334C374.332 399.668 373.896 400.628 373.179 401.342C372.458 402.053 371.49 402.484 370.392 402.487C369.296 402.486 368.328 402.053 367.606 401.342C366.89 400.628 366.454 399.668 366.452 398.581C366.454 397.494 366.89 396.535 367.607 395.82C368.328 395.109 369.296 394.677 370.392 394.676C371.49 394.677 372.458 395.109 373.179 395.82C373.896 396.535 374.332 397.494 374.334 398.581H377H379.667C379.666 393.503 375.515 389.392 370.392 389.39C365.27 389.392 361.12 393.505 361.119 398.581C361.12 403.659 365.271 407.77 370.392 407.771C375.515 407.771 379.666 403.659 379.667 398.581H377Z" fill="url(#paint62_linear_446_1187)"/>
<path d="M138.697 271.016L71.68 393.976L93.7027 450.005L0 610.067L4.61335 612.719L99.604 450.457L77.5453 394.337L143.389 273.528L138.697 271.016Z" fill="url(#paint63_linear_446_1187)"/>
<path d="M138.135 264.686H140.802C140.803 263.599 141.238 262.64 141.955 261.925C142.677 261.214 143.646 260.782 144.742 260.781C145.838 260.782 146.806 261.214 147.527 261.925C148.245 262.64 148.681 263.599 148.682 264.686C148.681 265.773 148.245 266.733 147.527 267.448C146.806 268.159 145.838 268.591 144.742 268.592C143.646 268.591 142.677 268.159 141.955 267.448C141.238 266.733 140.803 265.773 140.802 264.686H138.135H135.469C135.47 269.763 139.619 273.875 144.742 273.878C149.865 273.875 154.013 269.763 154.015 264.686C154.013 259.609 149.865 255.497 144.742 255.495C139.619 255.497 135.47 259.609 135.469 264.686H138.135Z" fill="url(#paint64_linear_446_1187)"/>
<path d="M173.711 226.893C167.867 226.893 163.127 222.195 163.127 216.402C163.127 210.609 167.867 205.911 173.711 205.911C179.558 205.911 184.298 210.609 184.298 216.402C184.298 222.195 179.558 226.893 173.711 226.893ZM186.227 216.402C186.227 216.262 186.22 216.123 186.216 215.984L187.662 215.834L187.476 214.083L186.032 214.233C185.983 213.957 185.926 213.685 185.86 213.415L187.238 212.971L186.69 211.297L185.311 211.741C185.203 211.482 185.091 211.227 184.968 210.977L186.223 210.26L185.334 208.735L184.08 209.454C183.922 209.222 183.754 208.999 183.582 208.78L184.66 207.816L183.472 206.508L182.392 207.471C182.19 207.278 181.982 207.091 181.766 206.911L182.62 205.748L181.183 204.712L180.33 205.876C180.091 205.728 179.85 205.588 179.6 205.456L180.191 204.145L178.568 203.429L177.978 204.738C177.715 204.645 177.447 204.561 177.176 204.483L177.478 203.077L175.74 202.711L175.438 204.119C175.162 204.08 174.882 204.053 174.6 204.033V202.592H172.823V204.033C172.542 204.053 172.262 204.08 171.986 204.119L171.684 202.711L169.946 203.077L170.248 204.483C169.978 204.561 169.707 204.645 169.444 204.738L168.856 203.429L167.234 204.145L167.823 205.456C167.575 205.588 167.331 205.728 167.094 205.876L166.242 204.712L164.804 205.748L165.656 206.911C165.442 207.091 165.234 207.278 165.032 207.471L163.952 206.508L162.763 207.816L163.843 208.78C163.67 208.999 163.502 209.222 163.344 209.454L162.088 208.735L161.2 210.26L162.455 210.977C162.332 211.227 162.22 211.482 162.114 211.741L160.735 211.297L160.187 212.971L161.564 213.415C161.498 213.685 161.44 213.957 161.391 214.233L159.948 214.083L159.762 215.834L161.207 215.984C161.203 216.123 161.198 216.262 161.198 216.402C161.198 216.542 161.203 216.681 161.207 216.819L159.762 216.97L159.948 218.721L161.391 218.57C161.44 218.847 161.498 219.119 161.564 219.388L160.187 219.832L160.735 221.507L162.114 221.063C162.22 221.322 162.332 221.577 162.456 221.827L161.2 222.544L162.088 224.069L163.344 223.35C163.502 223.582 163.67 223.805 163.843 224.024L162.763 224.988L163.952 226.296L165.032 225.333C165.234 225.525 165.442 225.713 165.656 225.893L164.804 227.057L166.242 228.092L167.094 226.928C167.331 227.076 167.575 227.216 167.823 227.346L167.234 228.659L168.856 229.375L169.444 228.065C169.708 228.16 169.978 228.244 170.248 228.32L169.946 229.726L171.684 230.093L171.986 228.685C172.262 228.723 172.542 228.751 172.823 228.771V230.211H174.6V228.771C174.882 228.751 175.162 228.723 175.438 228.685L175.74 230.093L177.478 229.726L177.176 228.32C177.447 228.244 177.715 228.16 177.978 228.065L178.568 229.375L180.191 228.659L179.6 227.348C179.85 227.216 180.091 227.076 180.33 226.928L181.183 228.092L182.62 227.057L181.766 225.893C181.982 225.713 182.19 225.525 182.392 225.333L183.472 226.296L184.66 224.988L183.582 224.024C183.754 223.805 183.922 223.582 184.08 223.35L185.334 224.069L186.223 222.544L184.968 221.827C185.091 221.577 185.203 221.322 185.311 221.063L186.69 221.507L187.238 219.832L185.86 219.388C185.926 219.119 185.983 218.847 186.032 218.57L187.476 218.721L187.662 216.97L186.216 216.819C186.22 216.681 186.227 216.542 186.227 216.402Z" fill="url(#paint65_linear_446_1187)"/>
<path d="M297.243 458.187C293.85 458.187 291.098 455.46 291.098 452.097C291.098 448.733 293.85 446.006 297.243 446.006C300.638 446.006 303.388 448.733 303.388 452.097C303.388 455.46 300.638 458.187 297.243 458.187ZM304.509 452.097L304.502 451.855L305.342 451.768L305.234 450.75L304.395 450.837C304.366 450.677 304.334 450.519 304.295 450.363L305.095 450.105L304.776 449.133L303.976 449.392C303.915 449.24 303.85 449.092 303.778 448.948L304.506 448.53L303.99 447.645L303.262 448.062C303.17 447.929 303.073 447.799 302.973 447.671L303.599 447.112L302.91 446.352L302.282 446.912C302.165 446.8 302.043 446.692 301.921 446.587L302.415 445.911L301.581 445.311L301.086 445.986C300.947 445.9 300.807 445.82 300.662 445.743L301.004 444.98L300.062 444.564L299.721 445.325C299.567 445.271 299.413 445.222 299.254 445.177L299.429 444.361L298.421 444.149L298.246 444.966C298.086 444.943 297.922 444.928 297.758 444.916V444.079H296.727V444.916C296.564 444.928 296.402 444.943 296.242 444.966L296.066 444.149L295.057 444.361L295.232 445.177C295.075 445.222 294.919 445.271 294.766 445.325L294.423 444.564L293.482 444.98L293.824 445.743C293.68 445.82 293.539 445.9 293.402 445.986L292.906 445.311L292.073 445.911L292.567 446.587C292.442 446.692 292.321 446.8 292.203 446.912L291.578 446.352L290.887 447.112L291.514 447.671C291.414 447.799 291.315 447.929 291.224 448.062L290.495 447.645L289.979 448.53L290.709 448.948C290.638 449.092 290.572 449.24 290.51 449.392L289.71 449.133L289.391 450.105L290.191 450.363C290.152 450.519 290.119 450.677 290.09 450.837L289.254 450.75L289.145 451.768L289.983 451.855L289.978 452.097L289.983 452.339L289.145 452.427L289.254 453.443L290.09 453.356C290.119 453.516 290.152 453.675 290.191 453.83L289.391 454.087L289.71 455.061L290.51 454.802C290.572 454.952 290.638 455.1 290.709 455.246L289.979 455.662L290.495 456.547L291.224 456.13C291.315 456.265 291.414 456.394 291.514 456.521L290.887 457.081L291.578 457.84L292.203 457.281C292.321 457.393 292.442 457.502 292.567 457.606L292.073 458.281L292.906 458.882L293.402 458.207C293.539 458.293 293.68 458.375 293.824 458.45L293.482 459.212L294.423 459.628L294.766 458.868C294.919 458.923 295.075 458.971 295.232 459.016L295.057 459.831L296.066 460.044L296.242 459.227C296.402 459.25 296.564 459.266 296.727 459.278V460.113H297.758V459.278C297.922 459.266 298.086 459.25 298.246 459.227L298.421 460.044L299.429 459.831L299.254 459.016C299.413 458.971 299.567 458.923 299.721 458.868L300.062 459.628L301.004 459.212L300.662 458.45C300.807 458.375 300.947 458.293 301.086 458.207L301.581 458.882L302.415 458.281L301.921 457.606C302.043 457.502 302.165 457.393 302.282 457.281L302.91 457.84L303.599 457.081L302.973 456.521C303.073 456.394 303.17 456.265 303.262 456.13L303.99 456.547L304.506 455.662L303.778 455.246C303.85 455.1 303.915 454.952 303.976 454.802L304.776 455.061L305.095 454.087L304.295 453.83C304.334 453.675 304.366 453.516 304.395 453.356L305.234 453.443L305.342 452.427L304.502 452.339L304.509 452.097Z" fill="url(#paint66_linear_446_1187)"/>
<path d="M280.554 144.192C277.517 144.192 275.053 141.752 275.053 138.74C275.053 135.727 277.517 133.286 280.554 133.286C283.593 133.286 286.057 135.727 286.057 138.74C286.057 141.752 283.593 144.192 280.554 144.192ZM289.311 140.232L288.666 139.999C288.307 139.87 288.086 139.521 288.106 139.143C288.114 139.009 288.118 138.875 288.118 138.74C288.118 138.61 288.114 138.482 288.107 138.354L289.409 138.008C289.866 137.888 290.135 137.422 290.013 136.972L289.638 135.583C289.517 135.132 289.047 134.863 288.59 134.984L287.926 135.161C287.559 135.258 287.177 135.101 286.977 134.781L286.889 134.646C286.681 134.33 286.698 133.919 286.942 133.63L287.385 133.106C287.689 132.748 287.642 132.214 287.279 131.914L286.169 130.991C285.807 130.689 285.267 130.736 284.965 131.095L284.523 131.616C284.281 131.903 283.878 131.995 283.533 131.848C283.275 131.739 283.013 131.644 282.742 131.563C282.381 131.455 282.134 131.128 282.134 130.756V130.074C282.134 129.606 281.751 129.227 281.279 129.227H279.83C279.358 129.227 278.975 129.606 278.975 130.074V130.753C278.975 131.131 278.721 131.456 278.357 131.566L278.201 131.613C277.839 131.731 277.445 131.608 277.226 131.299L276.833 130.742C276.562 130.36 276.03 130.267 275.643 130.535L274.455 131.359C274.069 131.628 273.975 132.156 274.246 132.538L274.641 133.097C274.859 133.406 274.839 133.817 274.605 134.115L274.506 134.24C274.278 134.542 273.882 134.667 273.526 134.538L272.878 134.305C272.435 134.144 271.945 134.371 271.783 134.811L271.287 136.16C271.126 136.6 271.355 137.087 271.799 137.247L272.443 137.479C272.803 137.609 273.025 137.958 273.002 138.336C272.995 138.469 272.991 138.604 272.991 138.74C272.991 138.868 272.994 138.996 273.001 139.124L271.701 139.471C271.245 139.591 270.974 140.056 271.095 140.507L271.471 141.896C271.593 142.348 272.062 142.616 272.518 142.494L273.182 142.318C273.549 142.221 273.931 142.378 274.134 142.698L274.219 142.833C274.427 143.148 274.411 143.559 274.166 143.849L273.725 144.371C273.422 144.73 273.469 145.264 273.83 145.565L274.941 146.488C275.302 146.789 275.841 146.743 276.145 146.383L276.587 145.861C276.829 145.576 277.23 145.483 277.577 145.63C277.833 145.74 278.097 145.835 278.367 145.916C278.727 146.024 278.975 146.35 278.975 146.724V147.405C278.975 147.873 279.358 148.252 279.83 148.252H281.279C281.751 148.252 282.134 147.873 282.134 147.405V146.726C282.134 146.348 282.387 146.023 282.753 145.913L282.907 145.865C283.269 145.748 283.665 145.871 283.882 146.18L284.275 146.735C284.546 147.118 285.079 147.212 285.466 146.944L286.653 146.12C287.039 145.851 287.134 145.322 286.863 144.939L286.469 144.381C286.251 144.072 286.269 143.661 286.505 143.365L286.602 143.237C286.831 142.937 287.226 142.813 287.585 142.941L288.23 143.173C288.674 143.335 289.165 143.107 289.326 142.667L289.821 141.318C289.982 140.878 289.755 140.392 289.311 140.232Z" fill="url(#paint67_linear_446_1187)"/>
<path d="M173.71 476.592C170.672 476.592 168.208 474.15 168.208 471.138C168.208 468.126 170.672 465.686 173.71 465.686C176.75 465.686 179.212 468.126 179.212 471.138C179.212 474.15 176.75 476.592 173.71 476.592ZM182.467 472.631L181.822 472.399C181.463 472.268 181.242 471.92 181.262 471.541C181.27 471.409 181.274 471.273 181.274 471.138C181.274 471.008 181.27 470.88 181.263 470.753L182.564 470.407C183.022 470.286 183.291 469.822 183.17 469.37L182.794 467.982C182.672 467.53 182.203 467.262 181.748 467.384L181.083 467.559C180.715 467.657 180.332 467.5 180.132 467.18L180.044 467.044C179.836 466.728 179.854 466.317 180.098 466.029L180.54 465.506C180.844 465.148 180.798 464.612 180.435 464.313L179.324 463.389C178.963 463.089 178.423 463.135 178.12 463.495L177.679 464.015C177.436 464.302 177.034 464.393 176.688 464.246C176.431 464.138 176.168 464.043 175.898 463.961C175.536 463.854 175.29 463.526 175.29 463.154V462.472C175.29 462.005 174.907 461.625 174.435 461.625H172.986C172.514 461.625 172.131 462.005 172.131 462.472V463.152C172.131 463.529 171.876 463.855 171.512 463.964L171.358 464.013C170.996 464.129 170.6 464.006 170.382 463.698L169.988 463.142C169.719 462.758 169.186 462.666 168.799 462.934L167.611 463.758C167.224 464.026 167.131 464.554 167.402 464.938L167.796 465.495C168.015 465.806 167.995 466.215 167.76 466.513L167.662 466.638C167.434 466.941 167.038 467.065 166.682 466.937L166.034 466.703C165.591 466.543 165.1 466.769 164.939 467.209L164.443 468.56C164.282 469 164.511 469.486 164.955 469.646L165.599 469.879C165.959 470.007 166.18 470.357 166.159 470.734C166.151 470.868 166.147 471.002 166.147 471.138C166.147 471.266 166.15 471.396 166.156 471.524L164.856 471.869C164.4 471.989 164.13 472.454 164.252 472.906L164.627 474.294C164.75 474.746 165.218 475.014 165.674 474.894L166.338 474.717C166.706 474.619 167.087 474.777 167.29 475.097L167.375 475.231C167.584 475.548 167.568 475.959 167.323 476.248L166.88 476.769C166.578 477.128 166.624 477.662 166.986 477.963L168.096 478.887C168.458 479.188 168.996 479.141 169.3 478.783L169.743 478.261C169.984 477.975 170.386 477.882 170.734 478.03C170.988 478.139 171.254 478.234 171.523 478.314C171.883 478.422 172.131 478.748 172.131 479.122V479.803C172.131 480.272 172.514 480.651 172.986 480.651H174.435C174.907 480.651 175.29 480.272 175.29 479.803V479.125C175.29 478.747 175.543 478.421 175.908 478.311L176.063 478.263C176.424 478.146 176.82 478.269 177.038 478.579L177.431 479.134C177.702 479.519 178.235 479.611 178.622 479.343L179.81 478.518C180.196 478.25 180.29 477.722 180.02 477.338L179.624 476.779C179.407 476.472 179.426 476.059 179.66 475.763L179.759 475.636C179.987 475.335 180.382 475.211 180.74 475.339L181.386 475.573C181.83 475.733 182.32 475.506 182.482 475.065L182.976 473.716C183.139 473.277 182.911 472.791 182.467 472.631Z" fill="url(#paint68_linear_446_1187)"/>
<path d="M336.085 440.811C334.204 440.811 332.68 439.3 332.68 437.436C332.68 435.572 334.204 434.06 336.085 434.06C337.965 434.06 339.489 435.572 339.489 437.436C339.489 439.3 337.965 440.811 336.085 440.811ZM341.502 438.359L341.104 438.217C340.881 438.135 340.745 437.919 340.757 437.685L340.765 437.436L340.758 437.198L341.564 436.984C341.846 436.908 342.013 436.622 341.937 436.341L341.705 435.482C341.63 435.202 341.34 435.037 341.057 435.112L340.646 435.221C340.42 435.282 340.182 435.184 340.058 434.986L340.004 434.902C339.876 434.707 339.886 434.453 340.037 434.273L340.31 433.951C340.498 433.729 340.47 433.397 340.246 433.212L339.558 432.64C339.334 432.454 339.001 432.484 338.813 432.706L338.54 433.028C338.39 433.205 338.142 433.262 337.926 433.171C337.768 433.102 337.605 433.046 337.438 432.994C337.214 432.928 337.062 432.724 337.062 432.496V432.073C337.062 431.784 336.825 431.55 336.533 431.55H335.636C335.344 431.55 335.106 431.784 335.106 432.073V432.494C335.106 432.727 334.95 432.929 334.724 432.995L334.629 433.026C334.405 433.098 334.16 433.023 334.025 432.831L333.781 432.488C333.614 432.25 333.284 432.192 333.045 432.358L332.31 432.868C332.072 433.035 332.013 433.361 332.181 433.598L332.424 433.944C332.56 434.136 332.548 434.39 332.402 434.573L332.341 434.651C332.2 434.839 331.956 434.915 331.734 434.836L331.334 434.692C331.06 434.592 330.756 434.733 330.656 435.004L330.35 435.841C330.25 436.113 330.39 436.413 330.665 436.512L331.065 436.656C331.286 436.735 331.424 436.952 331.412 437.186L331.404 437.436L331.41 437.673L330.605 437.889C330.322 437.963 330.154 438.251 330.232 438.53L330.464 439.389C330.538 439.668 330.829 439.834 331.11 439.76L331.522 439.65C331.75 439.591 331.985 439.687 332.11 439.886L332.164 439.969C332.293 440.164 332.282 440.419 332.132 440.598L331.858 440.92C331.67 441.142 331.7 441.473 331.922 441.659L332.61 442.231C332.833 442.416 333.168 442.388 333.356 442.166L333.629 441.844C333.778 441.667 334.028 441.609 334.242 441.7C334.401 441.767 334.564 441.827 334.73 441.877C334.954 441.943 335.106 442.145 335.106 442.377V442.798C335.106 443.088 335.344 443.323 335.636 443.323H336.533C336.825 443.323 337.062 443.088 337.062 442.798V442.378C337.062 442.144 337.218 441.943 337.445 441.874L337.54 441.845C337.764 441.773 338.009 441.849 338.144 442.04L338.386 442.385C338.554 442.622 338.884 442.679 339.124 442.514L339.86 442.003C340.097 441.837 340.156 441.51 339.988 441.273L339.745 440.927C339.609 440.737 339.621 440.482 339.766 440.298L339.828 440.219C339.969 440.034 340.213 439.956 340.434 440.036L340.834 440.18C341.109 440.279 341.413 440.139 341.513 439.867L341.818 439.032C341.92 438.76 341.777 438.458 341.502 438.359Z" fill="url(#paint69_linear_446_1187)"/>
<path d="M382.858 103.1C380.978 103.1 379.453 101.59 379.453 99.725C379.453 97.8618 380.978 96.3513 382.858 96.3513C384.739 96.3513 386.262 97.8618 386.262 99.725C386.262 101.59 384.739 103.1 382.858 103.1ZM388.277 100.65L387.877 100.505C387.655 100.425 387.518 100.21 387.533 99.9762L387.538 99.725L387.533 99.4872L388.338 99.2731C388.619 99.1991 388.787 98.911 388.711 98.6309L388.478 97.7719C388.403 97.4931 388.114 97.3279 387.831 97.4019L387.421 97.5116C387.194 97.571 386.957 97.4746 386.831 97.2764L386.778 97.1931C386.649 96.9975 386.659 96.7425 386.811 96.5628L387.086 96.2403C387.273 96.0183 387.243 95.6879 387.019 95.5016L386.333 94.9307C386.109 94.7444 385.775 94.7735 385.587 94.9942L385.313 95.3179C385.163 95.495 384.915 95.5518 384.701 95.462C384.542 95.3933 384.378 95.3351 384.211 95.2849C383.989 95.2188 383.835 95.0153 383.835 94.7841V94.3638C383.835 94.0731 383.598 93.8392 383.307 93.8392H382.41C382.118 93.8392 381.881 94.0731 381.881 94.3638V94.7841C381.881 95.018 381.723 95.2188 381.498 95.2862L381.402 95.3166C381.178 95.388 380.933 95.3126 380.799 95.121L380.555 94.7774C380.387 94.5396 380.058 94.4827 379.818 94.6479L379.085 95.1593C378.845 95.3245 378.786 95.6523 378.954 95.8888L379.199 96.2337C379.333 96.4253 379.321 96.6791 379.175 96.8628L379.115 96.9421C378.974 97.1284 378.729 97.205 378.509 97.1257L378.107 96.9817C377.833 96.8826 377.53 97.0227 377.43 97.2949L377.123 98.13C377.023 98.4023 377.165 98.7036 377.439 98.8014L377.838 98.9454C378.061 99.026 378.198 99.2414 378.185 99.4753L378.178 99.725L378.183 99.9642L377.378 100.178C377.097 100.252 376.929 100.54 377.005 100.821L377.237 101.68C377.311 101.958 377.602 102.124 377.885 102.05L378.297 101.94C378.523 101.88 378.759 101.978 378.885 102.176L378.938 102.26C379.067 102.454 379.057 102.709 378.905 102.887L378.631 103.211C378.443 103.433 378.473 103.764 378.697 103.95L379.383 104.521C379.607 104.707 379.941 104.678 380.129 104.456L380.402 104.134C380.553 103.956 380.801 103.9 381.015 103.989C381.174 104.058 381.337 104.116 381.505 104.167C381.727 104.234 381.881 104.436 381.881 104.667V105.089C381.881 105.378 382.118 105.612 382.41 105.612H383.307C383.598 105.612 383.835 105.378 383.835 105.089V104.667C383.835 104.435 383.993 104.233 384.218 104.165L384.314 104.136C384.538 104.064 384.783 104.139 384.918 104.33L385.161 104.674C385.329 104.911 385.658 104.969 385.898 104.802L386.633 104.293C386.871 104.127 386.929 103.801 386.762 103.563L386.518 103.218C386.382 103.026 386.395 102.772 386.539 102.587L386.601 102.509C386.743 102.323 386.986 102.246 387.207 102.326L387.609 102.47C387.882 102.569 388.186 102.429 388.286 102.157L388.593 101.321C388.693 101.049 388.551 100.748 388.277 100.65Z" fill="url(#paint70_linear_446_1187)"/>
<path d="M323.742 233.785V233.124H212.021L155.969 329.348L212.021 425.572H324.127L380.181 329.348L324.126 233.124H323.742V233.785L323.165 234.115L378.641 329.348L323.357 424.25H212.791L157.507 329.348L212.791 234.445H323.742V233.785L323.165 234.115L323.742 233.785Z" fill="url(#paint71_linear_446_1187)"/>
<path d="M317.601 244.324V241.681H217.006L165.938 329.348L217.006 417.016H319.142L370.209 329.348L319.142 241.681H317.601V244.324L315.292 245.645L364.051 329.348L316.063 411.73H220.084L172.095 329.348L220.084 246.967H317.601V244.324L315.292 245.645L317.601 244.324Z" fill="url(#paint72_linear_446_1187)"/>
<path d="M162.182 382.308L139.936 417.8L153.314 441.855L154.482 441.217L141.481 417.84L163.316 383.004L162.182 382.308Z" fill="url(#paint73_linear_446_1187)"/>
<path d="M164.616 364.145L127.898 422.724L140.128 444.503L141.292 443.861L129.445 422.761L165.749 364.841L164.616 364.145Z" fill="url(#paint74_linear_446_1187)"/>
<path d="M165.926 382.657C165.926 384.395 164.504 385.804 162.75 385.804C160.996 385.804 159.574 384.395 159.574 382.657C159.574 380.918 160.996 379.509 162.75 379.509C164.504 379.509 165.926 380.918 165.926 382.657Z" fill="url(#paint75_linear_446_1187)"/>
<path d="M168.358 364.493C168.358 366.232 166.935 367.641 165.182 367.641C163.429 367.641 162.006 366.232 162.006 364.493C162.006 362.755 163.429 361.346 165.182 361.346C166.935 361.346 168.358 362.755 168.358 364.493Z" fill="url(#paint76_linear_446_1187)"/>
<path d="M185.11 411.271C185.11 413.009 183.689 414.419 181.934 414.419C180.181 414.419 178.76 413.009 178.76 411.271C178.76 409.532 180.181 408.122 181.934 408.122C183.689 408.122 185.11 409.532 185.11 411.271Z" fill="url(#paint77_linear_446_1187)"/>
<path d="M121.536 520.407C121.536 522.145 120.113 523.555 118.36 523.555C116.605 523.555 115.184 522.145 115.184 520.407C115.184 518.668 116.605 517.26 118.36 517.26C120.113 517.26 121.536 518.668 121.536 520.407Z" fill="url(#paint78_linear_446_1187)"/>
<path d="M103.229 564.755L198.36 401.449L197.205 400.788L102.074 564.094" fill="url(#paint79_linear_446_1187)"/>
<path d="M118.938 520.739L182.513 411.602L181.358 410.941L117.783 520.078" fill="url(#paint80_linear_446_1187)"/>
<path d="M59.3461 605.172L154.477 441.866L153.322 441.205L58.1914 604.512" fill="url(#paint81_linear_446_1187)"/>
<path d="M46.1547 607.82L141.287 444.513L140.132 443.853L45 607.159" fill="url(#paint82_linear_446_1187)"/>
<path d="M274.646 446.37L254.79 482.348L227.859 482.631L227.874 483.953L255.585 483.662L275.817 447.004L274.646 446.37Z" fill="url(#paint83_linear_446_1187)"/>
<path d="M289.404 435.333L256.389 495.154L232.025 495.314L232.035 496.635L257.183 496.471L290.573 435.967L289.404 435.333Z" fill="url(#paint84_linear_446_1187)"/>
<path d="M273.668 443.944C272.142 444.8 271.603 446.721 272.467 448.235C273.33 449.748 275.267 450.281 276.794 449.426C278.322 448.569 278.86 446.649 277.996 445.137C277.134 443.623 275.196 443.089 273.668 443.944Z" fill="url(#paint85_linear_446_1187)"/>
<path d="M288.427 432.911C286.899 433.765 286.361 435.686 287.224 437.199C288.087 438.714 290.024 439.248 291.551 438.391C293.079 437.536 293.617 435.616 292.755 434.102C291.891 432.589 289.953 432.055 288.427 432.911Z" fill="url(#paint86_linear_446_1187)"/>
<path d="M239.095 441.468C237.567 442.324 237.03 444.244 237.891 445.759C238.755 447.272 240.692 447.804 242.219 446.949C243.747 446.093 244.284 444.173 243.423 442.661C242.559 441.147 240.622 440.613 239.095 441.468Z" fill="url(#paint87_linear_446_1187)"/>
<path d="M145.708 588.309L242.352 425.878L241.204 425.206L144.559 587.638" fill="url(#paint88_linear_446_1187)"/>
<path d="M176.643 553.096L241.23 444.545L240.082 443.874L175.494 552.425" fill="url(#paint89_linear_446_1187)"/>
<path d="M131.796 646.059L228.44 483.627L227.292 482.956L130.648 645.387" fill="url(#paint90_linear_446_1187)"/>
<path d="M135.961 658.743L232.605 496.311L231.456 495.64L134.812 658.071" fill="url(#paint91_linear_446_1187)"/>
<path d="M374.03 276.434L396.276 240.941L382.898 216.886L381.73 217.524L394.732 240.901L372.896 275.737L374.03 276.434Z" fill="url(#paint92_linear_446_1187)"/>
<path d="M371.597 294.599L408.314 236.019L396.086 214.239L394.921 214.883L406.769 235.983L370.465 293.901L371.597 294.599Z" fill="url(#paint93_linear_446_1187)"/>
<path d="M370.287 276.087C370.287 274.348 371.71 272.939 373.463 272.939C375.218 272.939 376.64 274.348 376.64 276.087C376.64 277.824 375.218 279.234 373.463 279.234C371.71 279.234 370.287 277.824 370.287 276.087Z" fill="url(#paint94_linear_446_1187)"/>
<path d="M367.855 294.25C367.855 292.511 369.277 291.102 371.032 291.102C372.785 291.102 374.207 292.511 374.207 294.25C374.207 295.989 372.785 297.397 371.032 297.397C369.277 297.397 367.855 295.989 367.855 294.25Z" fill="url(#paint95_linear_446_1187)"/>
<path d="M351.1 247.471C351.1 245.734 352.522 244.324 354.276 244.324C356.032 244.324 357.453 245.734 357.453 247.471C357.453 249.211 356.032 250.621 354.276 250.621C352.522 250.621 351.1 249.211 351.1 247.471Z" fill="url(#paint96_linear_446_1187)"/>
<path d="M432.983 93.9851L337.854 257.293L339.008 257.954L434.138 94.6458" fill="url(#paint97_linear_446_1187)"/>
<path d="M417.275 138.004L353.699 247.141L354.854 247.802L418.43 138.664" fill="url(#paint98_linear_446_1187)"/>
<path d="M476.867 53.5699L381.736 216.876L382.891 217.537L478.022 54.2306" fill="url(#paint99_linear_446_1187)"/>
<path d="M261.566 212.372L281.423 176.392L308.354 176.11L308.34 174.789L280.628 175.08L260.396 211.738L261.566 212.372Z" fill="url(#paint100_linear_446_1187)"/>
<path d="M246.81 223.408L279.823 163.588L304.186 163.428L304.178 162.107L279.03 162.272L245.641 222.775L246.81 223.408Z" fill="url(#paint101_linear_446_1187)"/>
<path d="M262.544 214.796C264.071 213.941 264.61 212.02 263.747 210.507C262.883 208.994 260.946 208.46 259.419 209.315C257.891 210.17 257.354 212.091 258.216 213.605C259.08 215.118 261.018 215.652 262.544 214.796Z" fill="url(#paint102_linear_446_1187)"/>
<path d="M247.786 225.831C249.313 224.976 249.852 223.056 248.988 221.543C248.125 220.028 246.188 219.494 244.66 220.351C243.134 221.206 242.595 223.126 243.458 224.639C244.321 226.153 246.259 226.687 247.786 225.831Z" fill="url(#paint103_linear_446_1187)"/>
<path d="M176.622 275.679C178.15 274.824 178.687 272.903 177.823 271.389C176.962 269.876 175.025 269.343 173.497 270.198C171.97 271.053 171.431 272.974 172.294 274.487C173.157 276.001 175.095 276.534 176.622 275.679Z" fill="url(#paint104_linear_446_1187)"/>
<path d="M297.118 217.274C298.646 216.417 299.183 214.497 298.321 212.984C297.457 211.471 295.519 210.937 293.993 211.792C292.466 212.647 291.927 214.567 292.79 216.082C293.654 217.595 295.591 218.129 297.118 217.274Z" fill="url(#paint105_linear_446_1187)"/>
<path d="M361.705 108.72C363.231 107.865 363.769 105.945 362.907 104.432C362.043 102.917 360.105 102.384 358.579 103.24C357.052 104.095 356.513 106.015 357.376 107.528C358.24 109.042 360.177 109.575 361.705 108.72Z" fill="url(#paint106_linear_446_1187)"/>
<path d="M392.644 73.5109C394.171 72.6545 394.71 70.7344 393.846 69.2213C392.984 67.7069 391.044 67.1743 389.519 68.0293C387.991 68.8843 387.452 70.8045 388.316 72.3189C389.179 73.832 391.116 74.3659 392.644 73.5109Z" fill="url(#paint107_linear_446_1187)"/>
<path d="M390.507 70.435L293.863 232.865L295.011 233.537L391.655 71.1063" fill="url(#paint108_linear_446_1187)"/>
<path d="M359.569 105.644L294.982 214.197L296.13 214.869L360.717 106.315" fill="url(#paint109_linear_446_1187)"/>
<path d="M404.417 12.6839L307.771 175.114L308.921 175.786L405.565 13.3553" fill="url(#paint110_linear_446_1187)"/>
<path d="M400.251 1.52588e-05L303.605 162.432L304.755 163.103L401.399 0.671341" fill="url(#paint111_linear_446_1187)"/>
<defs>
<linearGradient id="paint0_linear_446_1187" x1="261.028" y1="355.635" x2="261.028" y2="279.495" gradientUnits="userSpaceOnUse">
<stop stop-color="#B40FE7"/>
<stop offset="1" stop-color="#47A2DF"/>
</linearGradient>
<linearGradient id="paint1_linear_446_1187" x1="261.191" y1="325.975" x2="261.191" y2="309.372" gradientUnits="userSpaceOnUse">
<stop stop-color="#B40FE7"/>
<stop offset="1" stop-color="#47A2DF"/>
</linearGradient>
<linearGradient id="paint2_linear_446_1187" x1="254.555" y1="327.465" x2="254.555" y2="307.883" gradientUnits="userSpaceOnUse">
<stop stop-color="#B40FE7"/>
<stop offset="1" stop-color="#47A2DF"/>
</linearGradient>
<linearGradient id="paint3_linear_446_1187" x1="256.713" y1="327.465" x2="256.713" y2="307.883" gradientUnits="userSpaceOnUse">
<stop stop-color="#B40FE7"/>
<stop offset="1" stop-color="#47A2DF"/>
</linearGradient>
<linearGradient id="paint4_linear_446_1187" x1="258.871" y1="327.465" x2="258.871" y2="307.883" gradientUnits="userSpaceOnUse">
<stop stop-color="#B40FE7"/>
<stop offset="1" stop-color="#47A2DF"/>
</linearGradient>
<linearGradient id="paint5_linear_446_1187" x1="261.03" y1="327.465" x2="261.03" y2="307.883" gradientUnits="userSpaceOnUse">
<stop stop-color="#B40FE7"/>
<stop offset="1" stop-color="#47A2DF"/>
</linearGradient>
<linearGradient id="paint6_linear_446_1187" x1="263.185" y1="327.465" x2="263.185" y2="307.883" gradientUnits="userSpaceOnUse">
<stop stop-color="#B40FE7"/>
<stop offset="1" stop-color="#47A2DF"/>
</linearGradient>
<linearGradient id="paint7_linear_446_1187" x1="265.344" y1="327.465" x2="265.344" y2="307.883" gradientUnits="userSpaceOnUse">
<stop stop-color="#B40FE7"/>
<stop offset="1" stop-color="#47A2DF"/>
</linearGradient>
<linearGradient id="paint8_linear_446_1187" x1="267.502" y1="327.465" x2="267.502" y2="307.883" gradientUnits="userSpaceOnUse">
<stop stop-color="#B40FE7"/>
<stop offset="1" stop-color="#47A2DF"/>
</linearGradient>
<linearGradient id="paint9_linear_446_1187" x1="261.028" y1="324.84" x2="261.028" y2="323.861" gradientUnits="userSpaceOnUse">
<stop stop-color="#B40FE7"/>
<stop offset="1" stop-color="#47A2DF"/>
</linearGradient>
<linearGradient id="paint10_linear_446_1187" x1="261.028" y1="322.613" x2="261.028" y2="321.634" gradientUnits="userSpaceOnUse">
<stop stop-color="#B40FE7"/>
<stop offset="1" stop-color="#47A2DF"/>
</linearGradient>
<linearGradient id="paint11_linear_446_1187" x1="261.028" y1="320.388" x2="261.028" y2="319.41" gradientUnits="userSpaceOnUse">
<stop stop-color="#B40FE7"/>
<stop offset="1" stop-color="#47A2DF"/>
</linearGradient>
<linearGradient id="paint12_linear_446_1187" x1="261.028" y1="318.164" x2="261.028" y2="317.185" gradientUnits="userSpaceOnUse">
<stop stop-color="#B40FE7"/>
<stop offset="1" stop-color="#47A2DF"/>
</linearGradient>
<linearGradient id="paint13_linear_446_1187" x1="261.028" y1="315.938" x2="261.028" y2="314.959" gradientUnits="userSpaceOnUse">
<stop stop-color="#B40FE7"/>
<stop offset="1" stop-color="#47A2DF"/>
</linearGradient>
<linearGradient id="paint14_linear_446_1187" x1="261.028" y1="313.712" x2="261.028" y2="312.734" gradientUnits="userSpaceOnUse">
<stop stop-color="#B40FE7"/>
<stop offset="1" stop-color="#47A2DF"/>
</linearGradient>
<linearGradient id="paint15_linear_446_1187" x1="261.028" y1="311.487" x2="261.028" y2="310.51" gradientUnits="userSpaceOnUse">
<stop stop-color="#B40FE7"/>
<stop offset="1" stop-color="#47A2DF"/>
</linearGradient>
<linearGradient id="paint16_linear_446_1187" x1="240.728" y1="311.322" x2="240.728" y2="294.564" gradientUnits="userSpaceOnUse">
<stop stop-color="#B40FE7"/>
<stop offset="1" stop-color="#47A2DF"/>
</linearGradient>
<linearGradient id="paint17_linear_446_1187" x1="238.817" y1="313.547" x2="238.817" y2="295.365" gradientUnits="userSpaceOnUse">
<stop stop-color="#B40FE7"/>
<stop offset="1" stop-color="#47A2DF"/>
</linearGradient>
<linearGradient id="paint18_linear_446_1187" x1="288.247" y1="336.73" x2="288.247" y2="317.35" gradientUnits="userSpaceOnUse">
<stop stop-color="#B40FE7"/>
<stop offset="1" stop-color="#47A2DF"/>
</linearGradient>
<linearGradient id="paint19_linear_446_1187" x1="235.244" y1="320.223" x2="235.244" y2="304.866" gradientUnits="userSpaceOnUse">
<stop stop-color="#B40FE7"/>
<stop offset="1" stop-color="#47A2DF"/>
</linearGradient>
<linearGradient id="paint20_linear_446_1187" x1="233.529" y1="322.448" x2="233.529" y2="311.733" gradientUnits="userSpaceOnUse">
<stop stop-color="#B40FE7"/>
<stop offset="1" stop-color="#47A2DF"/>
</linearGradient>
<linearGradient id="paint21_linear_446_1187" x1="229.15" y1="305.485" x2="229.15" y2="304.837" gradientUnits="userSpaceOnUse">
<stop stop-color="#B40FE7"/>
<stop offset="1" stop-color="#47A2DF"/>
</linearGradient>
<linearGradient id="paint22_linear_446_1187" x1="230.737" y1="320.223" x2="230.737" y2="310.673" gradientUnits="userSpaceOnUse">
<stop stop-color="#B40FE7"/>
<stop offset="1" stop-color="#47A2DF"/>
</linearGradient>
<linearGradient id="paint23_linear_446_1187" x1="223.447" y1="306.651" x2="223.447" y2="303.727" gradientUnits="userSpaceOnUse">
<stop stop-color="#B40FE7"/>
<stop offset="1" stop-color="#47A2DF"/>
</linearGradient>
<linearGradient id="paint24_linear_446_1187" x1="250.174" y1="298.591" x2="250.174" y2="297.943" gradientUnits="userSpaceOnUse">
<stop stop-color="#B40FE7"/>
<stop offset="1" stop-color="#47A2DF"/>
</linearGradient>
<linearGradient id="paint25_linear_446_1187" x1="244.473" y1="299.758" x2="244.473" y2="296.834" gradientUnits="userSpaceOnUse">
<stop stop-color="#B40FE7"/>
<stop offset="1" stop-color="#47A2DF"/>
</linearGradient>
<linearGradient id="paint26_linear_446_1187" x1="271.882" y1="304.751" x2="271.882" y2="304.103" gradientUnits="userSpaceOnUse">
<stop stop-color="#B40FE7"/>
<stop offset="1" stop-color="#47A2DF"/>
</linearGradient>
<linearGradient id="paint27_linear_446_1187" x1="277.585" y1="305.917" x2="277.585" y2="302.995" gradientUnits="userSpaceOnUse">
<stop stop-color="#B40FE7"/>
<stop offset="1" stop-color="#47A2DF"/>
</linearGradient>
<linearGradient id="paint28_linear_446_1187" x1="281.964" y1="333.323" x2="281.964" y2="332.675" gradientUnits="userSpaceOnUse">
<stop stop-color="#B40FE7"/>
<stop offset="1" stop-color="#47A2DF"/>
</linearGradient>
<linearGradient id="paint29_linear_446_1187" x1="287.668" y1="334.49" x2="287.668" y2="331.566" gradientUnits="userSpaceOnUse">
<stop stop-color="#B40FE7"/>
<stop offset="1" stop-color="#47A2DF"/>
</linearGradient>
<linearGradient id="paint30_linear_446_1187" x1="270.343" y1="334.116" x2="270.343" y2="331.193" gradientUnits="userSpaceOnUse">
<stop stop-color="#B40FE7"/>
<stop offset="1" stop-color="#47A2DF"/>
</linearGradient>
<linearGradient id="paint31_linear_446_1187" x1="285.199" y1="341.902" x2="285.199" y2="341.254" gradientUnits="userSpaceOnUse">
<stop stop-color="#B40FE7"/>
<stop offset="1" stop-color="#47A2DF"/>
</linearGradient>
<linearGradient id="paint32_linear_446_1187" x1="293.406" y1="343.238" x2="293.406" y2="340.013" gradientUnits="userSpaceOnUse">
<stop stop-color="#B40FE7"/>
<stop offset="1" stop-color="#47A2DF"/>
</linearGradient>
<linearGradient id="paint33_linear_446_1187" x1="283.685" y1="387.513" x2="283.685" y2="384.287" gradientUnits="userSpaceOnUse">
<stop stop-color="#B40FE7"/>
<stop offset="1" stop-color="#47A2DF"/>
</linearGradient>
<linearGradient id="paint34_linear_446_1187" x1="277.585" y1="383.12" x2="277.585" y2="379.897" gradientUnits="userSpaceOnUse">
<stop stop-color="#B40FE7"/>
<stop offset="1" stop-color="#47A2DF"/>
</linearGradient>
<linearGradient id="paint35_linear_446_1187" x1="268.984" y1="379.822" x2="268.984" y2="376.598" gradientUnits="userSpaceOnUse">
<stop stop-color="#B40FE7"/>
<stop offset="1" stop-color="#47A2DF"/>
</linearGradient>
<linearGradient id="paint36_linear_446_1187" x1="261.903" y1="385.437" x2="261.903" y2="382.214" gradientUnits="userSpaceOnUse">
<stop stop-color="#B40FE7"/>
<stop offset="1" stop-color="#47A2DF"/>
</linearGradient>
<linearGradient id="paint37_linear_446_1187" x1="299.162" y1="324.954" x2="299.162" y2="322.03" gradientUnits="userSpaceOnUse">
<stop stop-color="#B40FE7"/>
<stop offset="1" stop-color="#47A2DF"/>
</linearGradient>
<linearGradient id="paint38_linear_446_1187" x1="230.939" y1="310.834" x2="230.939" y2="307.91" gradientUnits="userSpaceOnUse">
<stop stop-color="#B40FE7"/>
<stop offset="1" stop-color="#47A2DF"/>
</linearGradient>
<linearGradient id="paint39_linear_446_1187" x1="232.426" y1="333.353" x2="232.426" y2="330.429" gradientUnits="userSpaceOnUse">
<stop stop-color="#B40FE7"/>
<stop offset="1" stop-color="#47A2DF"/>
</linearGradient>
<linearGradient id="paint40_linear_446_1187" x1="244.965" y1="338.603" x2="244.965" y2="324.025" gradientUnits="userSpaceOnUse">
<stop stop-color="#B40FE7"/>
<stop offset="1" stop-color="#47A2DF"/>
</linearGradient>
<linearGradient id="paint41_linear_446_1187" x1="235.214" y1="331.078" x2="235.214" y2="321.801" gradientUnits="userSpaceOnUse">
<stop stop-color="#B40FE7"/>
<stop offset="1" stop-color="#47A2DF"/>
</linearGradient>
<linearGradient id="paint42_linear_446_1187" x1="219.027" y1="331.096" x2="219.027" y2="328.173" gradientUnits="userSpaceOnUse">
<stop stop-color="#B40FE7"/>
<stop offset="1" stop-color="#47A2DF"/>
</linearGradient>
<linearGradient id="paint43_linear_446_1187" x1="221.279" y1="328.821" x2="221.279" y2="321.8" gradientUnits="userSpaceOnUse">
<stop stop-color="#B40FE7"/>
<stop offset="1" stop-color="#47A2DF"/>
</linearGradient>
<linearGradient id="paint44_linear_446_1187" x1="252.55" y1="309.697" x2="252.55" y2="283.119" gradientUnits="userSpaceOnUse">
<stop stop-color="#B40FE7"/>
<stop offset="1" stop-color="#47A2DF"/>
</linearGradient>
<linearGradient id="paint45_linear_446_1187" x1="264.819" y1="309.697" x2="264.819" y2="282.68" gradientUnits="userSpaceOnUse">
<stop stop-color="#B40FE7"/>
<stop offset="1" stop-color="#47A2DF"/>
</linearGradient>
<linearGradient id="paint46_linear_446_1187" x1="272.142" y1="309.697" x2="272.142" y2="285.824" gradientUnits="userSpaceOnUse">
<stop stop-color="#B40FE7"/>
<stop offset="1" stop-color="#47A2DF"/>
</linearGradient>
<linearGradient id="paint47_linear_446_1187" x1="280.629" y1="313.547" x2="280.629" y2="293.94" gradientUnits="userSpaceOnUse">
<stop stop-color="#B40FE7"/>
<stop offset="1" stop-color="#47A2DF"/>
</linearGradient>
<linearGradient id="paint48_linear_446_1187" x1="285.674" y1="315.772" x2="285.674" y2="301.639" gradientUnits="userSpaceOnUse">
<stop stop-color="#B40FE7"/>
<stop offset="1" stop-color="#47A2DF"/>
</linearGradient>
<linearGradient id="paint49_linear_446_1187" x1="303.917" y1="322.938" x2="303.917" y2="310.958" gradientUnits="userSpaceOnUse">
<stop stop-color="#B40FE7"/>
<stop offset="1" stop-color="#47A2DF"/>
</linearGradient>
<linearGradient id="paint50_linear_446_1187" x1="305.043" y1="331.036" x2="305.043" y2="328.113" gradientUnits="userSpaceOnUse">
<stop stop-color="#B40FE7"/>
<stop offset="1" stop-color="#47A2DF"/>
</linearGradient>
<linearGradient id="paint51_linear_446_1187" x1="308.109" y1="328.76" x2="308.109" y2="321.31" gradientUnits="userSpaceOnUse">
<stop stop-color="#B40FE7"/>
<stop offset="1" stop-color="#47A2DF"/>
</linearGradient>
<linearGradient id="paint52_linear_446_1187" x1="273.714" y1="352.796" x2="273.714" y2="324.025" gradientUnits="userSpaceOnUse">
<stop stop-color="#B40FE7"/>
<stop offset="1" stop-color="#47A2DF"/>
</linearGradient>
<linearGradient id="paint53_linear_446_1187" x1="258.54" y1="344.954" x2="258.54" y2="332.331" gradientUnits="userSpaceOnUse">
<stop stop-color="#B40FE7"/>
<stop offset="1" stop-color="#47A2DF"/>
</linearGradient>
<linearGradient id="paint54_linear_446_1187" x1="262.207" y1="382.55" x2="262.207" y2="338.838" gradientUnits="userSpaceOnUse">
<stop stop-color="#B40FE7"/>
<stop offset="1" stop-color="#47A2DF"/>
</linearGradient>
<linearGradient id="paint55_linear_446_1187" x1="267.928" y1="377.245" x2="267.928" y2="338.317" gradientUnits="userSpaceOnUse">
<stop stop-color="#B40FE7"/>
<stop offset="1" stop-color="#47A2DF"/>
</linearGradient>
<linearGradient id="paint56_linear_446_1187" x1="274.014" y1="380.545" x2="274.014" y2="338.318" gradientUnits="userSpaceOnUse">
<stop stop-color="#B40FE7"/>
<stop offset="1" stop-color="#47A2DF"/>
</linearGradient>
<linearGradient id="paint57_linear_446_1187" x1="279.015" y1="384.937" x2="279.015" y2="338.085" gradientUnits="userSpaceOnUse">
<stop stop-color="#B40FE7"/>
<stop offset="1" stop-color="#47A2DF"/>
</linearGradient>
<linearGradient id="paint58_linear_446_1187" x1="161.783" y1="315.509" x2="161.783" y2="241.188" gradientUnits="userSpaceOnUse">
<stop stop-color="#B40FE7"/>
<stop offset="1" stop-color="#13C4FA"/>
</linearGradient>
<linearGradient id="paint59_linear_446_1187" x1="350.62" y1="388.066" x2="350.62" y2="381.769" gradientUnits="userSpaceOnUse">
<stop stop-color="#B40FE7"/>
<stop offset="1" stop-color="#13C4FA"/>
</linearGradient>
<linearGradient id="paint60_linear_446_1187" x1="348.744" y1="425.227" x2="348.744" y2="350.905" gradientUnits="userSpaceOnUse">
<stop stop-color="#B40FE7"/>
<stop offset="1" stop-color="#13C4FA"/>
</linearGradient>
<linearGradient id="paint61_linear_446_1187" x1="443.44" y1="392.252" x2="443.44" y2="50.5463" gradientUnits="userSpaceOnUse">
<stop stop-color="#B40FE7"/>
<stop offset="1" stop-color="#13C4FA"/>
</linearGradient>
<linearGradient id="paint62_linear_446_1187" x1="370.393" y1="407.771" x2="370.393" y2="389.39" gradientUnits="userSpaceOnUse">
<stop stop-color="#B40FE7"/>
<stop offset="1" stop-color="#13C4FA"/>
</linearGradient>
<linearGradient id="paint63_linear_446_1187" x1="71.6947" y1="612.719" x2="71.6947" y2="271.016" gradientUnits="userSpaceOnUse">
<stop stop-color="#B40FE7"/>
<stop offset="1" stop-color="#13C4FA"/>
</linearGradient>
<linearGradient id="paint64_linear_446_1187" x1="144.742" y1="273.878" x2="144.742" y2="255.495" gradientUnits="userSpaceOnUse">
<stop stop-color="#B40FE7"/>
<stop offset="1" stop-color="#13C4FA"/>
</linearGradient>
<linearGradient id="paint65_linear_446_1187" x1="173.712" y1="230.211" x2="173.712" y2="202.592" gradientUnits="userSpaceOnUse">
<stop stop-color="#B40FE7"/>
<stop offset="1" stop-color="#13C4FA"/>
</linearGradient>
<linearGradient id="paint66_linear_446_1187" x1="297.243" y1="460.113" x2="297.243" y2="444.079" gradientUnits="userSpaceOnUse">
<stop stop-color="#B40FE7"/>
<stop offset="1" stop-color="#13C4FA"/>
</linearGradient>
<linearGradient id="paint67_linear_446_1187" x1="280.554" y1="148.252" x2="280.554" y2="129.227" gradientUnits="userSpaceOnUse">
<stop stop-color="#B40FE7"/>
<stop offset="1" stop-color="#13C4FA"/>
</linearGradient>
<linearGradient id="paint68_linear_446_1187" x1="173.711" y1="480.651" x2="173.711" y2="461.625" gradientUnits="userSpaceOnUse">
<stop stop-color="#B40FE7"/>
<stop offset="1" stop-color="#13C4FA"/>
</linearGradient>
<linearGradient id="paint69_linear_446_1187" x1="336.084" y1="443.323" x2="336.084" y2="431.55" gradientUnits="userSpaceOnUse">
<stop stop-color="#B40FE7"/>
<stop offset="1" stop-color="#13C4FA"/>
</linearGradient>
<linearGradient id="paint70_linear_446_1187" x1="382.858" y1="105.612" x2="382.858" y2="93.8392" gradientUnits="userSpaceOnUse">
<stop stop-color="#B40FE7"/>
<stop offset="1" stop-color="#13C4FA"/>
</linearGradient>
<linearGradient id="paint71_linear_446_1187" x1="268.075" y1="425.572" x2="268.075" y2="233.124" gradientUnits="userSpaceOnUse">
<stop stop-color="#B40FE7"/>
<stop offset="1" stop-color="#13C4FA"/>
</linearGradient>
<linearGradient id="paint72_linear_446_1187" x1="268.074" y1="417.016" x2="268.074" y2="241.681" gradientUnits="userSpaceOnUse">
<stop stop-color="#B40FE7"/>
<stop offset="1" stop-color="#13C4FA"/>
</linearGradient>
<linearGradient id="paint73_linear_446_1187" x1="151.626" y1="441.855" x2="151.626" y2="382.308" gradientUnits="userSpaceOnUse">
<stop stop-color="#B40FE7"/>
<stop offset="1" stop-color="#13C4FA"/>
</linearGradient>
<linearGradient id="paint74_linear_446_1187" x1="146.824" y1="444.503" x2="146.824" y2="364.145" gradientUnits="userSpaceOnUse">
<stop stop-color="#B40FE7"/>
<stop offset="1" stop-color="#13C4FA"/>
</linearGradient>
<linearGradient id="paint75_linear_446_1187" x1="162.75" y1="385.804" x2="162.75" y2="379.509" gradientUnits="userSpaceOnUse">
<stop stop-color="#B40FE7"/>
<stop offset="1" stop-color="#13C4FA"/>
</linearGradient>
<linearGradient id="paint76_linear_446_1187" x1="165.182" y1="367.641" x2="165.182" y2="361.346" gradientUnits="userSpaceOnUse">
<stop stop-color="#B40FE7"/>
<stop offset="1" stop-color="#13C4FA"/>
</linearGradient>
<linearGradient id="paint77_linear_446_1187" x1="181.935" y1="414.419" x2="181.935" y2="408.122" gradientUnits="userSpaceOnUse">
<stop stop-color="#B40FE7"/>
<stop offset="1" stop-color="#13C4FA"/>
</linearGradient>
<linearGradient id="paint78_linear_446_1187" x1="118.36" y1="523.555" x2="118.36" y2="517.26" gradientUnits="userSpaceOnUse">
<stop stop-color="#B40FE7"/>
<stop offset="1" stop-color="#13C4FA"/>
</linearGradient>
<linearGradient id="paint79_linear_446_1187" x1="150.217" y1="564.755" x2="150.217" y2="400.788" gradientUnits="userSpaceOnUse">
<stop stop-color="#B40FE7"/>
<stop offset="1" stop-color="#13C4FA"/>
</linearGradient>
<linearGradient id="paint80_linear_446_1187" x1="150.148" y1="520.739" x2="150.148" y2="410.941" gradientUnits="userSpaceOnUse">
<stop stop-color="#B40FE7"/>
<stop offset="1" stop-color="#13C4FA"/>
</linearGradient>
<linearGradient id="paint81_linear_446_1187" x1="106.334" y1="605.172" x2="106.334" y2="441.205" gradientUnits="userSpaceOnUse">
<stop stop-color="#B40FE7"/>
<stop offset="1" stop-color="#13C4FA"/>
</linearGradient>
<linearGradient id="paint82_linear_446_1187" x1="93.1433" y1="607.82" x2="93.1433" y2="443.853" gradientUnits="userSpaceOnUse">
<stop stop-color="#B40FE7"/>
<stop offset="1" stop-color="#13C4FA"/>
</linearGradient>
<linearGradient id="paint83_linear_446_1187" x1="251.838" y1="483.953" x2="251.838" y2="446.37" gradientUnits="userSpaceOnUse">
<stop stop-color="#B40FE7"/>
<stop offset="1" stop-color="#13C4FA"/>
</linearGradient>
<linearGradient id="paint84_linear_446_1187" x1="261.299" y1="496.635" x2="261.299" y2="435.333" gradientUnits="userSpaceOnUse">
<stop stop-color="#B40FE7"/>
<stop offset="1" stop-color="#13C4FA"/>
</linearGradient>
<linearGradient id="paint85_linear_446_1187" x1="275.232" y1="449.833" x2="275.232" y2="443.536" gradientUnits="userSpaceOnUse">
<stop stop-color="#B40FE7"/>
<stop offset="1" stop-color="#13C4FA"/>
</linearGradient>
<linearGradient id="paint86_linear_446_1187" x1="289.989" y1="438.8" x2="289.989" y2="432.503" gradientUnits="userSpaceOnUse">
<stop stop-color="#B40FE7"/>
<stop offset="1" stop-color="#13C4FA"/>
</linearGradient>
<linearGradient id="paint87_linear_446_1187" x1="240.657" y1="447.357" x2="240.657" y2="441.06" gradientUnits="userSpaceOnUse">
<stop stop-color="#B40FE7"/>
<stop offset="1" stop-color="#13C4FA"/>
</linearGradient>
<linearGradient id="paint88_linear_446_1187" x1="193.455" y1="588.309" x2="193.455" y2="425.206" gradientUnits="userSpaceOnUse">
<stop stop-color="#B40FE7"/>
<stop offset="1" stop-color="#13C4FA"/>
</linearGradient>
<linearGradient id="paint89_linear_446_1187" x1="208.362" y1="553.096" x2="208.362" y2="443.874" gradientUnits="userSpaceOnUse">
<stop stop-color="#B40FE7"/>
<stop offset="1" stop-color="#13C4FA"/>
</linearGradient>
<linearGradient id="paint90_linear_446_1187" x1="179.544" y1="646.059" x2="179.544" y2="482.956" gradientUnits="userSpaceOnUse">
<stop stop-color="#B40FE7"/>
<stop offset="1" stop-color="#13C4FA"/>
</linearGradient>
<linearGradient id="paint91_linear_446_1187" x1="183.709" y1="658.743" x2="183.709" y2="495.64" gradientUnits="userSpaceOnUse">
<stop stop-color="#B40FE7"/>
<stop offset="1" stop-color="#13C4FA"/>
</linearGradient>
<linearGradient id="paint92_linear_446_1187" x1="384.586" y1="276.434" x2="384.586" y2="216.886" gradientUnits="userSpaceOnUse">
<stop stop-color="#B40FE7"/>
<stop offset="1" stop-color="#13C4FA"/>
</linearGradient>
<linearGradient id="paint93_linear_446_1187" x1="389.39" y1="294.599" x2="389.39" y2="214.239" gradientUnits="userSpaceOnUse">
<stop stop-color="#B40FE7"/>
<stop offset="1" stop-color="#13C4FA"/>
</linearGradient>
<linearGradient id="paint94_linear_446_1187" x1="373.464" y1="279.234" x2="373.464" y2="272.939" gradientUnits="userSpaceOnUse">
<stop stop-color="#B40FE7"/>
<stop offset="1" stop-color="#13C4FA"/>
</linearGradient>
<linearGradient id="paint95_linear_446_1187" x1="371.031" y1="297.397" x2="371.031" y2="291.102" gradientUnits="userSpaceOnUse">
<stop stop-color="#B40FE7"/>
<stop offset="1" stop-color="#13C4FA"/>
</linearGradient>
<linearGradient id="paint96_linear_446_1187" x1="354.276" y1="250.621" x2="354.276" y2="244.324" gradientUnits="userSpaceOnUse">
<stop stop-color="#B40FE7"/>
<stop offset="1" stop-color="#13C4FA"/>
</linearGradient>
<linearGradient id="paint97_linear_446_1187" x1="385.996" y1="257.954" x2="385.996" y2="93.9851" gradientUnits="userSpaceOnUse">
<stop stop-color="#B40FE7"/>
<stop offset="1" stop-color="#13C4FA"/>
</linearGradient>
<linearGradient id="paint98_linear_446_1187" x1="386.065" y1="247.802" x2="386.065" y2="138.004" gradientUnits="userSpaceOnUse">
<stop stop-color="#B40FE7"/>
<stop offset="1" stop-color="#13C4FA"/>
</linearGradient>
<linearGradient id="paint99_linear_446_1187" x1="429.879" y1="217.537" x2="429.879" y2="53.5699" gradientUnits="userSpaceOnUse">
<stop stop-color="#B40FE7"/>
<stop offset="1" stop-color="#13C4FA"/>
</linearGradient>
<linearGradient id="paint100_linear_446_1187" x1="284.375" y1="212.372" x2="284.375" y2="174.789" gradientUnits="userSpaceOnUse">
<stop stop-color="#B40FE7"/>
<stop offset="1" stop-color="#13C4FA"/>
</linearGradient>
<linearGradient id="paint101_linear_446_1187" x1="274.913" y1="223.408" x2="274.913" y2="162.107" gradientUnits="userSpaceOnUse">
<stop stop-color="#B40FE7"/>
<stop offset="1" stop-color="#13C4FA"/>
</linearGradient>
<linearGradient id="paint102_linear_446_1187" x1="260.981" y1="215.204" x2="260.981" y2="208.908" gradientUnits="userSpaceOnUse">
<stop stop-color="#B40FE7"/>
<stop offset="1" stop-color="#13C4FA"/>
</linearGradient>
<linearGradient id="paint103_linear_446_1187" x1="246.223" y1="226.239" x2="246.223" y2="219.942" gradientUnits="userSpaceOnUse">
<stop stop-color="#B40FE7"/>
<stop offset="1" stop-color="#13C4FA"/>
</linearGradient>
<linearGradient id="paint104_linear_446_1187" x1="175.059" y1="276.087" x2="175.059" y2="269.79" gradientUnits="userSpaceOnUse">
<stop stop-color="#B40FE7"/>
<stop offset="1" stop-color="#13C4FA"/>
</linearGradient>
<linearGradient id="paint105_linear_446_1187" x1="295.556" y1="217.681" x2="295.556" y2="211.384" gradientUnits="userSpaceOnUse">
<stop stop-color="#B40FE7"/>
<stop offset="1" stop-color="#13C4FA"/>
</linearGradient>
<linearGradient id="paint106_linear_446_1187" x1="360.141" y1="109.128" x2="360.141" y2="102.831" gradientUnits="userSpaceOnUse">
<stop stop-color="#B40FE7"/>
<stop offset="1" stop-color="#13C4FA"/>
</linearGradient>
<linearGradient id="paint107_linear_446_1187" x1="391.081" y1="73.9185" x2="391.081" y2="67.6215" gradientUnits="userSpaceOnUse">
<stop stop-color="#B40FE7"/>
<stop offset="1" stop-color="#13C4FA"/>
</linearGradient>
<linearGradient id="paint108_linear_446_1187" x1="342.759" y1="233.537" x2="342.759" y2="70.435" gradientUnits="userSpaceOnUse">
<stop stop-color="#B40FE7"/>
<stop offset="1" stop-color="#13C4FA"/>
</linearGradient>
<linearGradient id="paint109_linear_446_1187" x1="327.85" y1="214.869" x2="327.85" y2="105.644" gradientUnits="userSpaceOnUse">
<stop stop-color="#B40FE7"/>
<stop offset="1" stop-color="#13C4FA"/>
</linearGradient>
<linearGradient id="paint110_linear_446_1187" x1="356.668" y1="175.786" x2="356.668" y2="12.6839" gradientUnits="userSpaceOnUse">
<stop stop-color="#B40FE7"/>
<stop offset="1" stop-color="#13C4FA"/>
</linearGradient>
<linearGradient id="paint111_linear_446_1187" x1="352.502" y1="163.103" x2="352.502" y2="3.05176e-05" gradientUnits="userSpaceOnUse">
<stop stop-color="#B40FE7"/>
<stop offset="1" stop-color="#13C4FA"/>
</linearGradient>
</defs>
</svg>
