<svg width="1440" height="1386" viewBox="0 0 1440 1386" fill="none" xmlns="http://www.w3.org/2000/svg">
<path d="M1714.05 -112.504C1687.64 -59.4862 1662.22 278.163 744.647 495.619C-172.925 713.075 -314.18 914.223 -231.892 1185.04" stroke="url(#paint0_linear_932_1066)" stroke-width="1.11256" stroke-miterlimit="10"/>
<path d="M1720.29 -103.823C1695.14 -53.3121 1654.49 274.711 741.144 486.021C-172.205 697.331 -296.129 930.648 -217.803 1188.64" stroke="url(#paint1_linear_932_1066)" stroke-width="1.11256" stroke-miterlimit="10"/>
<path d="M1726.46 -95.1289C1702.58 -47.1466 1646.7 271.149 737.263 476.1C-172.177 681.052 -278.805 946.475 -204.389 1191.57" stroke="url(#paint2_linear_932_1066)" stroke-width="1.11256" stroke-miterlimit="10"/>
<path d="M1732.66 -86.4318C1710.03 -40.9718 1638.93 267.575 733.396 466.183C-172.138 664.791 -261.467 962.306 -190.97 1194.5" stroke="url(#paint3_linear_932_1066)" stroke-width="1.11256" stroke-miterlimit="10"/>
<path d="M1738.85 -77.7275C1717.48 -34.7956 1631.15 264.024 729.538 456.282C-172.078 648.54 -244.12 978.154 -177.533 1197.45" stroke="url(#paint4_linear_932_1066)" stroke-width="1.11256" stroke-miterlimit="10"/>
<path d="M1745.04 -69.0401C1724.93 -28.6306 1623.37 260.446 725.679 446.349C-172.01 632.251 -226.773 993.968 -164.106 1200.36" stroke="url(#paint5_linear_932_1066)" stroke-width="1.11256" stroke-miterlimit="10"/>
<path d="M1751.23 -60.3395C1732.38 -22.458 1615.58 256.882 721.811 436.435C-171.961 615.989 -209.436 1009.8 -150.679 1203.3" stroke="url(#paint6_linear_932_1066)" stroke-width="1.11256" stroke-miterlimit="10"/>
<path d="M1757.43 -51.6374C1739.82 -16.2783 1607.81 253.329 717.953 426.532C-171.901 599.736 -192.088 1025.65 -137.251 1206.24" stroke="url(#paint7_linear_932_1066)" stroke-width="1.11256" stroke-miterlimit="10"/>
<path d="M1763.62 -42.9358C1747.28 -10.1049 1600.04 249.759 714.089 416.619C-171.858 583.479 -174.737 1041.48 -123.83 1209.18" stroke="url(#paint8_linear_932_1066)" stroke-width="1.11256" stroke-miterlimit="10"/>
<path d="M1769.8 -34.2462C1754.71 -3.93759 1592.25 246.194 710.219 406.689C-171.81 567.184 -157.402 1057.3 -110.414 1212.09" stroke="url(#paint9_linear_932_1066)" stroke-width="1.11256" stroke-miterlimit="10"/>
<path d="M1776 -25.5444C1762.17 2.23611 1584.46 242.63 706.361 396.785C-171.742 550.94 -140.055 1073.14 -96.9767 1215.04" stroke="url(#paint10_linear_932_1066)" stroke-width="1.11256" stroke-miterlimit="10"/>
<path d="M1782.2 -16.8469C1769.63 8.40539 1576.71 239.067 702.505 386.868C-171.699 534.67 -122.706 1088.97 -83.5471 1217.96" stroke="url(#paint11_linear_932_1066)" stroke-width="1.11256" stroke-miterlimit="10"/>
<path d="M1788.39 -8.15415C1777.07 14.5759 1568.92 235.495 698.633 376.947C-171.655 518.399 -105.373 1104.8 -70.1247 1220.89" stroke="url(#paint12_linear_932_1066)" stroke-width="1.11256" stroke-miterlimit="10"/>
<path d="M1794.58 0.546193C1784.53 20.7481 1561.14 231.939 694.784 367.036C-171.577 502.132 -88.0254 1120.63 -56.6874 1223.83" stroke="url(#paint13_linear_932_1066)" stroke-width="1.11256" stroke-miterlimit="10"/>
<path d="M1800.77 9.24683C1791.97 26.9264 1553.36 228.375 690.916 357.122C-171.527 485.869 -70.6778 1136.45 -43.2598 1226.76" stroke="url(#paint14_linear_932_1066)" stroke-width="1.11256" stroke-miterlimit="10"/>
<path d="M1806.95 17.9416C1799.41 33.093 1545.58 224.808 687.032 347.203C-171.512 469.597 -53.357 1152.28 -29.8583 1229.69" stroke="url(#paint15_linear_932_1066)" stroke-width="1.11256" stroke-miterlimit="10"/>
<path d="M1813.14 26.6424C1806.85 39.2715 1537.79 221.244 683.165 337.289C-171.463 453.334 -36.0006 1168.12 -16.4212 1232.62" stroke="url(#paint16_linear_932_1066)" stroke-width="1.11256" stroke-miterlimit="10"/>
<path d="M1819.34 35.3345C1814.32 45.4354 1530.02 217.672 679.327 327.37C-171.365 437.068 -18.6611 1183.95 -2.99205 1235.55" stroke="url(#paint17_linear_932_1066)" stroke-width="1.11256" stroke-miterlimit="10"/>
<path d="M1825.54 44.038C1821.77 51.6166 1522.26 214.114 675.464 317.459C-171.329 420.804 -1.30918 1199.78 10.4406 1238.48" stroke="url(#paint18_linear_932_1066)" stroke-width="1.11256" stroke-miterlimit="10"/>
<path d="M1831.72 52.7315C1829.21 57.782 1514.46 210.542 671.584 307.538C-171.292 404.534 16.0248 1215.62 23.8641 1241.42" stroke="url(#paint19_linear_932_1066)" stroke-width="1.11256" stroke-miterlimit="10"/>
<path d="M1837.91 61.4309C1836.65 63.9591 1506.68 206.986 667.725 297.632C-171.234 388.279 33.372 1231.45 37.2824 1244.34" stroke="url(#paint20_linear_932_1066)" stroke-width="1.11256" stroke-miterlimit="10"/>
<path d="M1844.11 70.1308C1844.11 70.1308 1498.9 203.421 663.872 287.712C-171.16 372.003 50.7236 1247.28 50.7236 1247.28" stroke="url(#paint21_linear_932_1066)" stroke-width="1.11256" stroke-miterlimit="10"/>
<path d="M1826.87 57.1186C1826.88 59.0089 1497.24 219.943 674.745 300.607C-147.747 381.27 34.8467 1203.65 23.2894 1217.28" stroke="url(#paint22_linear_932_1066)" stroke-width="1.11256" stroke-miterlimit="10"/>
<path d="M1809.62 44.0901C1809.65 47.8706 1495.55 236.446 685.61 313.476C-124.332 390.507 18.9701 1160.02 -4.13484 1187.27" stroke="url(#paint23_linear_932_1066)" stroke-width="1.11256" stroke-miterlimit="10"/>
<path d="M1792.38 31.0757C1792.43 36.7465 1493.87 252.963 696.496 326.363C-100.878 399.764 3.11385 1116.41 -31.5661 1157.27" stroke="url(#paint24_linear_932_1066)" stroke-width="1.11256" stroke-miterlimit="10"/>
<path d="M1775.14 18.0606C1775.21 25.616 1492.2 269.488 707.363 339.246C-77.4713 409.004 -12.7515 1072.77 -58.9887 1127.26" stroke="url(#paint25_linear_932_1066)" stroke-width="1.11256" stroke-miterlimit="10"/>
<path d="M1757.9 5.04329C1757.98 14.4889 1490.51 286.002 718.239 352.136C-54.0367 418.27 -28.6165 1029.15 -86.411 1097.27" stroke="url(#paint26_linear_932_1066)" stroke-width="1.11256" stroke-miterlimit="10"/>
<path d="M1740.65 -7.96742C1740.75 3.36847 1488.84 302.525 729.105 365.017C-30.6301 427.509 -44.5016 985.524 -113.844 1067.26" stroke="url(#paint27_linear_932_1066)" stroke-width="1.11256" stroke-miterlimit="10"/>
<path d="M1723.41 -20.9796C1723.53 -7.75347 1487.16 319.044 739.978 377.903C-7.20708 436.761 -60.3607 941.906 -141.269 1037.26" stroke="url(#paint28_linear_932_1066)" stroke-width="1.11256" stroke-miterlimit="10"/>
<path d="M1706.17 -33.998C1706.3 -18.8816 1485.49 335.566 750.856 390.791C16.2202 446.017 -76.2243 898.282 -168.68 1007.26" stroke="url(#paint29_linear_932_1066)" stroke-width="1.11256" stroke-miterlimit="10"/>
<path d="M1688.92 -47.0226C1689.07 -30.0159 1483.8 352.073 761.726 403.674C39.6478 455.276 -92.0965 854.651 -196.11 977.258" stroke="url(#paint30_linear_932_1066)" stroke-width="1.11256" stroke-miterlimit="10"/>
<path d="M1671.69 -60.0407C1671.85 -41.1437 1482.12 368.585 772.606 416.548C63.0869 464.511 -107.967 811.018 -223.528 947.247" stroke="url(#paint31_linear_932_1066)" stroke-width="1.11256" stroke-miterlimit="10"/>
<path d="M1654.44 -73.0554C1654.62 -52.2681 1480.45 385.111 783.478 429.441C86.5086 473.77 -123.828 767.407 -250.955 917.254" stroke="url(#paint32_linear_932_1066)" stroke-width="1.11256" stroke-miterlimit="10"/>
<path d="M1637.2 -86.067C1637.4 -63.3953 1478.77 401.625 794.342 442.327C109.912 483.028 -139.705 723.78 -278.398 887.246" stroke="url(#paint33_linear_932_1066)" stroke-width="1.11256" stroke-miterlimit="10"/>
<path d="M1619.96 -99.0794C1620.18 -74.5174 1477.1 418.153 805.231 455.216C133.361 492.279 -155.557 680.156 -305.808 857.25" stroke="url(#paint34_linear_932_1066)" stroke-width="1.11256" stroke-miterlimit="10"/>
<path d="M1602.72 -112.102C1602.95 -85.6501 1475.42 434.661 816.099 468.091C156.777 501.52 -171.441 636.524 -333.239 827.24" stroke="url(#paint35_linear_932_1066)" stroke-width="1.11256" stroke-miterlimit="10"/>
<path d="M1585.48 -125.114C1585.72 -96.7711 1473.74 451.18 826.973 480.986C180.211 510.792 -187.299 592.916 -360.663 797.251" stroke="url(#paint36_linear_932_1066)" stroke-width="1.11256" stroke-miterlimit="10"/>
<path d="M1568.24 -138.133C1568.5 -107.9 1472.06 467.702 837.85 493.859C203.638 520.017 -203.163 549.276 -388.085 767.239" stroke="url(#paint37_linear_932_1066)" stroke-width="1.11256" stroke-miterlimit="10"/>
<path d="M1500.53 -225.55C1500.8 -193.427 1419.93 409.81 798.261 432.349C176.597 454.889 -269.494 431.253 -465.972 662.844" stroke="url(#paint38_linear_932_1066)" stroke-width="1.11256" stroke-miterlimit="10"/>
<path d="M1483.29 -238.56C1483.58 -204.546 1418.25 426.34 809.127 445.237C200.004 464.134 -285.379 387.633 -493.395 632.84" stroke="url(#paint39_linear_932_1066)" stroke-width="1.11256" stroke-miterlimit="10"/>
<path d="M1466.04 -251.575C1466.35 -215.677 1416.56 442.856 820.006 458.123C223.451 473.391 -301.232 344.016 -520.815 602.842" stroke="url(#paint40_linear_932_1066)" stroke-width="1.11256" stroke-miterlimit="10"/>
<path d="M1448.8 -264.591C1449.13 -226.803 1414.88 459.371 830.878 471.005C246.872 482.64 -317.102 300.385 -548.242 572.839" stroke="url(#paint41_linear_932_1066)" stroke-width="1.11256" stroke-miterlimit="10"/>
<path d="M1431.56 -277.607C1431.91 -237.929 1413.21 475.895 841.757 483.896C270.3 491.897 -332.964 256.763 -575.671 542.835" stroke="url(#paint42_linear_932_1066)" stroke-width="1.11256" stroke-miterlimit="10"/>
<defs>
<linearGradient id="paint0_linear_932_1066" x1="595.044" y1="383.974" x2="750.86" y2="642.733" gradientUnits="userSpaceOnUse">
<stop stop-color="#7E94FF" stop-opacity="0.32"/>
<stop offset="0.25" stop-color="#9DB4FD"/>
<stop offset="0.705" stop-color="#CBEFFA"/>
<stop offset="0.905" stop-color="#6D2AE5" stop-opacity="0.11"/>
<stop offset="1" stop-color="#C061DD" stop-opacity="0.46"/>
</linearGradient>
<linearGradient id="paint1_linear_932_1066" x1="597.533" y1="382.027" x2="752.063" y2="638.426" gradientUnits="userSpaceOnUse">
<stop stop-color="#7E94FF" stop-opacity="0.32"/>
<stop offset="0.25" stop-color="#9DB4FD"/>
<stop offset="0.705" stop-color="#CBEFFA"/>
<stop offset="0.905" stop-color="#6D2AE5" stop-opacity="0.11"/>
<stop offset="1" stop-color="#C061DD" stop-opacity="0.46"/>
</linearGradient>
<linearGradient id="paint2_linear_932_1066" x1="598.901" y1="379.045" x2="752.772" y2="634.351" gradientUnits="userSpaceOnUse">
<stop stop-color="#7E94FF" stop-opacity="0.32"/>
<stop offset="0.25" stop-color="#9DB4FD"/>
<stop offset="0.705" stop-color="#CBEFFA"/>
<stop offset="0.905" stop-color="#6D2AE5" stop-opacity="0.11"/>
<stop offset="1" stop-color="#C061DD" stop-opacity="0.46"/>
</linearGradient>
<linearGradient id="paint3_linear_932_1066" x1="599.647" y1="375.402" x2="753.566" y2="630.789" gradientUnits="userSpaceOnUse">
<stop stop-color="#7E94FF" stop-opacity="0.32"/>
<stop offset="0.25" stop-color="#9DB4FD"/>
<stop offset="0.705" stop-color="#CBEFFA"/>
<stop offset="0.905" stop-color="#6D2AE5" stop-opacity="0.11"/>
<stop offset="1" stop-color="#C061DD" stop-opacity="0.46"/>
</linearGradient>
<linearGradient id="paint4_linear_932_1066" x1="599.821" y1="371.17" x2="757.994" y2="633.614" gradientUnits="userSpaceOnUse">
<stop stop-color="#7E94FF" stop-opacity="0.32"/>
<stop offset="0.25" stop-color="#9DB4FD"/>
<stop offset="0.705" stop-color="#CBEFFA"/>
<stop offset="0.905" stop-color="#6D2AE5" stop-opacity="0.11"/>
<stop offset="1" stop-color="#C061DD" stop-opacity="0.46"/>
</linearGradient>
<linearGradient id="paint5_linear_932_1066" x1="599.467" y1="366.364" x2="764.723" y2="640.56" gradientUnits="userSpaceOnUse">
<stop stop-color="#7E94FF" stop-opacity="0.32"/>
<stop offset="0.25" stop-color="#9DB4FD"/>
<stop offset="0.705" stop-color="#CBEFFA"/>
<stop offset="0.905" stop-color="#6D2AE5" stop-opacity="0.11"/>
<stop offset="1" stop-color="#C061DD" stop-opacity="0.46"/>
</linearGradient>
<linearGradient id="paint6_linear_932_1066" x1="598.647" y1="361.091" x2="771.329" y2="647.609" gradientUnits="userSpaceOnUse">
<stop stop-color="#7E94FF" stop-opacity="0.32"/>
<stop offset="0.25" stop-color="#9DB4FD"/>
<stop offset="0.705" stop-color="#CBEFFA"/>
<stop offset="0.905" stop-color="#6D2AE5" stop-opacity="0.11"/>
<stop offset="1" stop-color="#C061DD" stop-opacity="0.46"/>
</linearGradient>
<linearGradient id="paint7_linear_932_1066" x1="597.426" y1="355.401" x2="777.827" y2="654.725" gradientUnits="userSpaceOnUse">
<stop stop-color="#7E94FF" stop-opacity="0.32"/>
<stop offset="0.25" stop-color="#9DB4FD"/>
<stop offset="0.705" stop-color="#CBEFFA"/>
<stop offset="0.905" stop-color="#6D2AE5" stop-opacity="0.11"/>
<stop offset="1" stop-color="#C061DD" stop-opacity="0.46"/>
</linearGradient>
<linearGradient id="paint8_linear_932_1066" x1="595.834" y1="349.328" x2="784.221" y2="661.904" gradientUnits="userSpaceOnUse">
<stop stop-color="#7E94FF" stop-opacity="0.32"/>
<stop offset="0.25" stop-color="#9DB4FD"/>
<stop offset="0.705" stop-color="#CBEFFA"/>
<stop offset="0.905" stop-color="#6D2AE5" stop-opacity="0.11"/>
<stop offset="1" stop-color="#C061DD" stop-opacity="0.46"/>
</linearGradient>
<linearGradient id="paint9_linear_932_1066" x1="593.915" y1="342.903" x2="790.516" y2="669.108" gradientUnits="userSpaceOnUse">
<stop stop-color="#7E94FF" stop-opacity="0.32"/>
<stop offset="0.25" stop-color="#9DB4FD"/>
<stop offset="0.705" stop-color="#CBEFFA"/>
<stop offset="0.905" stop-color="#6D2AE5" stop-opacity="0.11"/>
<stop offset="1" stop-color="#C061DD" stop-opacity="0.46"/>
</linearGradient>
<linearGradient id="paint10_linear_932_1066" x1="591.742" y1="336.22" x2="796.761" y2="676.39" gradientUnits="userSpaceOnUse">
<stop stop-color="#7E94FF" stop-opacity="0.32"/>
<stop offset="0.25" stop-color="#9DB4FD"/>
<stop offset="0.705" stop-color="#CBEFFA"/>
<stop offset="0.905" stop-color="#6D2AE5" stop-opacity="0.11"/>
<stop offset="1" stop-color="#C061DD" stop-opacity="0.46"/>
</linearGradient>
<linearGradient id="paint11_linear_932_1066" x1="589.319" y1="329.259" x2="802.932" y2="683.69" gradientUnits="userSpaceOnUse">
<stop stop-color="#7E94FF" stop-opacity="0.32"/>
<stop offset="0.25" stop-color="#9DB4FD"/>
<stop offset="0.705" stop-color="#CBEFFA"/>
<stop offset="0.905" stop-color="#6D2AE5" stop-opacity="0.11"/>
<stop offset="1" stop-color="#C061DD" stop-opacity="0.46"/>
</linearGradient>
<linearGradient id="paint12_linear_932_1066" x1="586.666" y1="322.072" x2="809.035" y2="691.031" gradientUnits="userSpaceOnUse">
<stop stop-color="#7E94FF" stop-opacity="0.32"/>
<stop offset="0.25" stop-color="#9DB4FD"/>
<stop offset="0.705" stop-color="#CBEFFA"/>
<stop offset="0.905" stop-color="#6D2AE5" stop-opacity="0.11"/>
<stop offset="1" stop-color="#C061DD" stop-opacity="0.46"/>
</linearGradient>
<linearGradient id="paint13_linear_932_1066" x1="583.84" y1="314.698" x2="815.099" y2="698.407" gradientUnits="userSpaceOnUse">
<stop stop-color="#7E94FF" stop-opacity="0.32"/>
<stop offset="0.25" stop-color="#9DB4FD"/>
<stop offset="0.705" stop-color="#CBEFFA"/>
<stop offset="0.905" stop-color="#6D2AE5" stop-opacity="0.11"/>
<stop offset="1" stop-color="#C061DD" stop-opacity="0.46"/>
</linearGradient>
<linearGradient id="paint14_linear_932_1066" x1="580.833" y1="307.143" x2="821.109" y2="705.814" gradientUnits="userSpaceOnUse">
<stop stop-color="#7E94FF" stop-opacity="0.32"/>
<stop offset="0.25" stop-color="#9DB4FD"/>
<stop offset="0.705" stop-color="#CBEFFA"/>
<stop offset="0.905" stop-color="#6D2AE5" stop-opacity="0.11"/>
<stop offset="1" stop-color="#C061DD" stop-opacity="0.46"/>
</linearGradient>
<linearGradient id="paint15_linear_932_1066" x1="577.654" y1="299.42" x2="827.055" y2="713.231" gradientUnits="userSpaceOnUse">
<stop stop-color="#7E94FF" stop-opacity="0.32"/>
<stop offset="0.25" stop-color="#9DB4FD"/>
<stop offset="0.705" stop-color="#CBEFFA"/>
<stop offset="0.905" stop-color="#6D2AE5" stop-opacity="0.11"/>
<stop offset="1" stop-color="#C061DD" stop-opacity="0.46"/>
</linearGradient>
<linearGradient id="paint16_linear_932_1066" x1="574.367" y1="291.566" x2="832.992" y2="720.683" gradientUnits="userSpaceOnUse">
<stop stop-color="#7E94FF" stop-opacity="0.32"/>
<stop offset="0.25" stop-color="#9DB4FD"/>
<stop offset="0.705" stop-color="#CBEFFA"/>
<stop offset="0.905" stop-color="#6D2AE5" stop-opacity="0.11"/>
<stop offset="1" stop-color="#C061DD" stop-opacity="0.46"/>
</linearGradient>
<linearGradient id="paint17_linear_932_1066" x1="570.971" y1="283.594" x2="838.902" y2="728.149" gradientUnits="userSpaceOnUse">
<stop stop-color="#7E94FF" stop-opacity="0.32"/>
<stop offset="0.25" stop-color="#9DB4FD"/>
<stop offset="0.705" stop-color="#CBEFFA"/>
<stop offset="0.905" stop-color="#6D2AE5" stop-opacity="0.11"/>
<stop offset="1" stop-color="#C061DD" stop-opacity="0.46"/>
</linearGradient>
<linearGradient id="paint18_linear_932_1066" x1="567.456" y1="275.5" x2="844.774" y2="735.631" gradientUnits="userSpaceOnUse">
<stop stop-color="#7E94FF" stop-opacity="0.32"/>
<stop offset="0.25" stop-color="#9DB4FD"/>
<stop offset="0.705" stop-color="#CBEFFA"/>
<stop offset="0.905" stop-color="#6D2AE5" stop-opacity="0.11"/>
<stop offset="1" stop-color="#C061DD" stop-opacity="0.46"/>
</linearGradient>
<linearGradient id="paint19_linear_932_1066" x1="563.827" y1="267.302" x2="850.613" y2="743.143" gradientUnits="userSpaceOnUse">
<stop stop-color="#7E94FF" stop-opacity="0.32"/>
<stop offset="0.25" stop-color="#9DB4FD"/>
<stop offset="0.705" stop-color="#CBEFFA"/>
<stop offset="0.905" stop-color="#6D2AE5" stop-opacity="0.11"/>
<stop offset="1" stop-color="#C061DD" stop-opacity="0.46"/>
</linearGradient>
<linearGradient id="paint20_linear_932_1066" x1="560.129" y1="259.025" x2="856.428" y2="750.652" gradientUnits="userSpaceOnUse">
<stop stop-color="#7E94FF" stop-opacity="0.32"/>
<stop offset="0.25" stop-color="#9DB4FD"/>
<stop offset="0.705" stop-color="#CBEFFA"/>
<stop offset="0.905" stop-color="#6D2AE5" stop-opacity="0.11"/>
<stop offset="1" stop-color="#C061DD" stop-opacity="0.46"/>
</linearGradient>
<linearGradient id="paint21_linear_932_1066" x1="556.354" y1="250.656" x2="862.236" y2="758.183" gradientUnits="userSpaceOnUse">
<stop stop-color="#7E94FF" stop-opacity="0.32"/>
<stop offset="0.25" stop-color="#9DB4FD"/>
<stop offset="0.705" stop-color="#CBEFFA"/>
<stop offset="0.905" stop-color="#6D2AE5" stop-opacity="0.11"/>
<stop offset="1" stop-color="#C061DD" stop-opacity="0.46"/>
</linearGradient>
<linearGradient id="paint22_linear_932_1066" x1="564.301" y1="260.752" x2="843.03" y2="723.225" gradientUnits="userSpaceOnUse">
<stop stop-color="#7E94FF" stop-opacity="0.32"/>
<stop offset="0.25" stop-color="#9DB4FD"/>
<stop offset="0.705" stop-color="#CBEFFA"/>
<stop offset="0.905" stop-color="#6D2AE5" stop-opacity="0.11"/>
<stop offset="1" stop-color="#C061DD" stop-opacity="0.46"/>
</linearGradient>
<linearGradient id="paint23_linear_932_1066" x1="571.853" y1="270.418" x2="823.723" y2="688.326" gradientUnits="userSpaceOnUse">
<stop stop-color="#7E94FF" stop-opacity="0.32"/>
<stop offset="0.25" stop-color="#9DB4FD"/>
<stop offset="0.705" stop-color="#CBEFFA"/>
<stop offset="0.905" stop-color="#6D2AE5" stop-opacity="0.11"/>
<stop offset="1" stop-color="#C061DD" stop-opacity="0.46"/>
</linearGradient>
<linearGradient id="paint24_linear_932_1066" x1="578.946" y1="279.617" x2="804.286" y2="653.507" gradientUnits="userSpaceOnUse">
<stop stop-color="#7E94FF" stop-opacity="0.32"/>
<stop offset="0.25" stop-color="#9DB4FD"/>
<stop offset="0.705" stop-color="#CBEFFA"/>
<stop offset="0.905" stop-color="#6D2AE5" stop-opacity="0.11"/>
<stop offset="1" stop-color="#C061DD" stop-opacity="0.46"/>
</linearGradient>
<linearGradient id="paint25_linear_932_1066" x1="585.443" y1="288.188" x2="787.421" y2="623.313" gradientUnits="userSpaceOnUse">
<stop stop-color="#7E94FF" stop-opacity="0.32"/>
<stop offset="0.25" stop-color="#9DB4FD"/>
<stop offset="0.705" stop-color="#CBEFFA"/>
<stop offset="0.905" stop-color="#6D2AE5" stop-opacity="0.11"/>
<stop offset="1" stop-color="#C061DD" stop-opacity="0.46"/>
</linearGradient>
<linearGradient id="paint26_linear_932_1066" x1="591.226" y1="296.017" x2="782.745" y2="613.789" gradientUnits="userSpaceOnUse">
<stop stop-color="#7E94FF" stop-opacity="0.32"/>
<stop offset="0.25" stop-color="#9DB4FD"/>
<stop offset="0.705" stop-color="#CBEFFA"/>
<stop offset="0.905" stop-color="#6D2AE5" stop-opacity="0.11"/>
<stop offset="1" stop-color="#C061DD" stop-opacity="0.46"/>
</linearGradient>
<linearGradient id="paint27_linear_932_1066" x1="596.065" y1="302.871" x2="779.616" y2="607.424" gradientUnits="userSpaceOnUse">
<stop stop-color="#7E94FF" stop-opacity="0.32"/>
<stop offset="0.25" stop-color="#9DB4FD"/>
<stop offset="0.705" stop-color="#CBEFFA"/>
<stop offset="0.905" stop-color="#6D2AE5" stop-opacity="0.11"/>
<stop offset="1" stop-color="#C061DD" stop-opacity="0.46"/>
</linearGradient>
<linearGradient id="paint28_linear_932_1066" x1="599.734" y1="308.494" x2="777.748" y2="603.858" gradientUnits="userSpaceOnUse">
<stop stop-color="#7E94FF" stop-opacity="0.32"/>
<stop offset="0.25" stop-color="#9DB4FD"/>
<stop offset="0.705" stop-color="#CBEFFA"/>
<stop offset="0.905" stop-color="#6D2AE5" stop-opacity="0.11"/>
<stop offset="1" stop-color="#C061DD" stop-opacity="0.46"/>
</linearGradient>
<linearGradient id="paint29_linear_932_1066" x1="601.852" y1="312.489" x2="776.797" y2="602.76" gradientUnits="userSpaceOnUse">
<stop stop-color="#7E94FF" stop-opacity="0.32"/>
<stop offset="0.25" stop-color="#9DB4FD"/>
<stop offset="0.705" stop-color="#CBEFFA"/>
<stop offset="0.905" stop-color="#6D2AE5" stop-opacity="0.11"/>
<stop offset="1" stop-color="#C061DD" stop-opacity="0.46"/>
</linearGradient>
<linearGradient id="paint30_linear_932_1066" x1="601.881" y1="314.314" x2="776.393" y2="603.867" gradientUnits="userSpaceOnUse">
<stop stop-color="#7E94FF" stop-opacity="0.32"/>
<stop offset="0.25" stop-color="#9DB4FD"/>
<stop offset="0.705" stop-color="#CBEFFA"/>
<stop offset="0.905" stop-color="#6D2AE5" stop-opacity="0.11"/>
<stop offset="1" stop-color="#C061DD" stop-opacity="0.46"/>
</linearGradient>
<linearGradient id="paint31_linear_932_1066" x1="599.101" y1="313.197" x2="776.185" y2="607.019" gradientUnits="userSpaceOnUse">
<stop stop-color="#7E94FF" stop-opacity="0.32"/>
<stop offset="0.25" stop-color="#9DB4FD"/>
<stop offset="0.705" stop-color="#CBEFFA"/>
<stop offset="0.905" stop-color="#6D2AE5" stop-opacity="0.11"/>
<stop offset="1" stop-color="#C061DD" stop-opacity="0.46"/>
</linearGradient>
<linearGradient id="paint32_linear_932_1066" x1="592.533" y1="308.146" x2="775.75" y2="612.143" gradientUnits="userSpaceOnUse">
<stop stop-color="#7E94FF" stop-opacity="0.32"/>
<stop offset="0.25" stop-color="#9DB4FD"/>
<stop offset="0.705" stop-color="#CBEFFA"/>
<stop offset="0.905" stop-color="#6D2AE5" stop-opacity="0.11"/>
<stop offset="1" stop-color="#C061DD" stop-opacity="0.46"/>
</linearGradient>
<linearGradient id="paint33_linear_932_1066" x1="581.067" y1="297.987" x2="774.664" y2="619.207" gradientUnits="userSpaceOnUse">
<stop stop-color="#7E94FF" stop-opacity="0.32"/>
<stop offset="0.25" stop-color="#9DB4FD"/>
<stop offset="0.705" stop-color="#CBEFFA"/>
<stop offset="0.905" stop-color="#6D2AE5" stop-opacity="0.11"/>
<stop offset="1" stop-color="#C061DD" stop-opacity="0.46"/>
</linearGradient>
<linearGradient id="paint34_linear_932_1066" x1="564.098" y1="282.069" x2="772.683" y2="628.159" gradientUnits="userSpaceOnUse">
<stop stop-color="#7E94FF" stop-opacity="0.32"/>
<stop offset="0.25" stop-color="#9DB4FD"/>
<stop offset="0.705" stop-color="#CBEFFA"/>
<stop offset="0.905" stop-color="#6D2AE5" stop-opacity="0.11"/>
<stop offset="1" stop-color="#C061DD" stop-opacity="0.46"/>
</linearGradient>
<linearGradient id="paint35_linear_932_1066" x1="542.25" y1="261.062" x2="769.871" y2="638.735" gradientUnits="userSpaceOnUse">
<stop stop-color="#7E94FF" stop-opacity="0.32"/>
<stop offset="0.25" stop-color="#9DB4FD"/>
<stop offset="0.705" stop-color="#CBEFFA"/>
<stop offset="0.905" stop-color="#6D2AE5" stop-opacity="0.11"/>
<stop offset="1" stop-color="#C061DD" stop-opacity="0.46"/>
</linearGradient>
<linearGradient id="paint36_linear_932_1066" x1="517.208" y1="236.736" x2="766.63" y2="650.581" gradientUnits="userSpaceOnUse">
<stop stop-color="#7E94FF" stop-opacity="0.32"/>
<stop offset="0.25" stop-color="#9DB4FD"/>
<stop offset="0.705" stop-color="#CBEFFA"/>
<stop offset="0.905" stop-color="#6D2AE5" stop-opacity="0.11"/>
<stop offset="1" stop-color="#C061DD" stop-opacity="0.46"/>
</linearGradient>
<linearGradient id="paint37_linear_932_1066" x1="490.376" y1="210.523" x2="763.29" y2="663.349" gradientUnits="userSpaceOnUse">
<stop stop-color="#7E94FF" stop-opacity="0.32"/>
<stop offset="0.25" stop-color="#9DB4FD"/>
<stop offset="0.705" stop-color="#CBEFFA"/>
<stop offset="0.905" stop-color="#6D2AE5" stop-opacity="0.11"/>
<stop offset="1" stop-color="#C061DD" stop-opacity="0.46"/>
</linearGradient>
<linearGradient id="paint38_linear_932_1066" x1="412.112" y1="108.913" x2="709.555" y2="602.436" gradientUnits="userSpaceOnUse">
<stop stop-color="#7E94FF" stop-opacity="0.32"/>
<stop offset="0.25" stop-color="#9DB4FD"/>
<stop offset="0.705" stop-color="#CBEFFA"/>
<stop offset="0.905" stop-color="#6D2AE5" stop-opacity="0.11"/>
<stop offset="1" stop-color="#C061DD" stop-opacity="0.46"/>
</linearGradient>
<linearGradient id="paint39_linear_932_1066" x1="383.751" y1="81.1172" x2="706.429" y2="616.511" gradientUnits="userSpaceOnUse">
<stop stop-color="#7E94FF" stop-opacity="0.32"/>
<stop offset="0.25" stop-color="#9DB4FD"/>
<stop offset="0.705" stop-color="#CBEFFA"/>
<stop offset="0.905" stop-color="#6D2AE5" stop-opacity="0.11"/>
<stop offset="1" stop-color="#C061DD" stop-opacity="0.46"/>
</linearGradient>
<linearGradient id="paint40_linear_932_1066" x1="355.058" y1="52.9738" x2="703.472" y2="631.07" gradientUnits="userSpaceOnUse">
<stop stop-color="#7E94FF" stop-opacity="0.32"/>
<stop offset="0.25" stop-color="#9DB4FD"/>
<stop offset="0.705" stop-color="#CBEFFA"/>
<stop offset="0.905" stop-color="#6D2AE5" stop-opacity="0.11"/>
<stop offset="1" stop-color="#C061DD" stop-opacity="0.46"/>
</linearGradient>
<linearGradient id="paint41_linear_932_1066" x1="326.137" y1="24.5903" x2="700.687" y2="646.05" gradientUnits="userSpaceOnUse">
<stop stop-color="#7E94FF" stop-opacity="0.32"/>
<stop offset="0.25" stop-color="#9DB4FD"/>
<stop offset="0.705" stop-color="#CBEFFA"/>
<stop offset="0.905" stop-color="#6D2AE5" stop-opacity="0.11"/>
<stop offset="1" stop-color="#C061DD" stop-opacity="0.46"/>
</linearGradient>
<linearGradient id="paint42_linear_932_1066" x1="297.069" y1="-3.94743" x2="698.074" y2="661.408" gradientUnits="userSpaceOnUse">
<stop stop-color="#7E94FF" stop-opacity="0.32"/>
<stop offset="0.25" stop-color="#9DB4FD"/>
<stop offset="0.705" stop-color="#CBEFFA"/>
<stop offset="0.905" stop-color="#6D2AE5" stop-opacity="0.11"/>
<stop offset="1" stop-color="#C061DD" stop-opacity="0.46"/>
</linearGradient>
</defs>
</svg>
