<svg width="77" height="51" viewBox="0 0 77 51" fill="none" xmlns="http://www.w3.org/2000/svg">
<mask id="path-1-outside-1_1100_2447" maskUnits="userSpaceOnUse" x="18" y="-1" width="46" height="40" fill="black">
<rect fill="white" x="18" y="-1" width="46" height="40"/>
<path d="M20.375 25.75C20.375 23.625 20.6667 21.4375 21.25 19.1875C21.8333 16.8958 22.6458 14.6667 23.6875 12.5C24.7292 10.3333 25.9375 8.29167 27.3125 6.375C28.6875 4.45833 30.1875 2.77083 31.8125 1.3125L39.8125 6.25C38.2292 8.95833 36.9167 11.875 35.875 15C34.8333 18.0833 34.3125 21.6458 34.3125 25.6875V36.75H20.375V25.75ZM41.6875 25.75C41.6875 23.625 41.9792 21.4375 42.5625 19.1875C43.1458 16.8958 43.9583 14.6667 45 12.5C46.0417 10.3333 47.25 8.29167 48.625 6.375C50 4.45833 51.5 2.77083 53.125 1.3125L61.125 6.25C59.5417 8.95833 58.2292 11.875 57.1875 15C56.1458 18.0833 55.625 21.6458 55.625 25.6875V36.75H41.6875V25.75Z"/>
</mask>
<path d="M21.25 19.1875L22.702 19.5639L22.7036 19.5575L21.25 19.1875ZM31.8125 1.3125L32.6003 0.0360408L31.6456 -0.553194L30.8106 0.196137L31.8125 1.3125ZM39.8125 6.25L41.1074 7.00704L41.8466 5.74272L40.6003 4.97354L39.8125 6.25ZM35.875 15L37.2961 15.4801L37.298 15.4743L35.875 15ZM34.3125 36.75V38.25H35.8125V36.75H34.3125ZM20.375 36.75H18.875V38.25H20.375V36.75ZM42.5625 19.1875L44.0145 19.5639L44.0161 19.5575L42.5625 19.1875ZM53.125 1.3125L53.9128 0.0360408L52.9581 -0.553194L52.1231 0.196137L53.125 1.3125ZM61.125 6.25L62.4199 7.00704L63.1591 5.74272L61.9128 4.97354L61.125 6.25ZM57.1875 15L58.6086 15.4801L58.6105 15.4743L57.1875 15ZM55.625 36.75V38.25H57.125V36.75H55.625ZM41.6875 36.75H40.1875V38.25H41.6875V36.75ZM21.875 25.75C21.875 23.7633 22.1476 21.7024 22.702 19.5639L19.798 18.8111C19.1858 21.1726 18.875 23.4867 18.875 25.75H21.875ZM22.7036 19.5575C23.262 17.3639 24.0401 15.2284 25.0394 13.1499L22.3356 11.8501C21.2515 14.1049 20.4046 16.4278 19.7964 18.8175L22.7036 19.5575ZM25.0394 13.1499C26.044 11.0603 27.2081 9.09388 28.5313 7.24936L26.0937 5.50064C24.6669 7.48945 23.4143 9.60637 22.3356 11.8501L25.0394 13.1499ZM28.5313 7.24936C29.848 5.41397 31.2764 3.80908 32.8144 2.42886L30.8106 0.196137C29.0986 1.73259 27.527 3.5027 26.0937 5.50064L28.5313 7.24936ZM31.0247 2.58896L39.0247 7.52646L40.6003 4.97354L32.6003 0.0360408L31.0247 2.58896ZM38.5176 5.49296C36.8793 8.29519 35.5248 11.3071 34.452 14.5257L37.298 15.4743C38.3085 12.4429 39.579 9.62148 41.1074 7.00704L38.5176 5.49296ZM34.4539 14.5199C33.3491 17.7901 32.8125 21.5204 32.8125 25.6875H35.8125C35.8125 21.7712 36.3176 18.3766 37.2961 15.4801L34.4539 14.5199ZM32.8125 25.6875V36.75H35.8125V25.6875H32.8125ZM34.3125 35.25H20.375V38.25H34.3125V35.25ZM21.875 36.75V25.75H18.875V36.75H21.875ZM43.1875 25.75C43.1875 23.7633 43.4601 21.7024 44.0145 19.5639L41.1105 18.8111C40.4983 21.1726 40.1875 23.4867 40.1875 25.75H43.1875ZM44.0161 19.5575C44.5745 17.3639 45.3526 15.2284 46.3519 13.1499L43.6481 11.8501C42.564 14.1049 41.7171 16.4278 41.1089 18.8175L44.0161 19.5575ZM46.3519 13.1499C47.3565 11.0603 48.5206 9.09388 49.8438 7.24936L47.4062 5.50064C45.9794 7.48945 44.7268 9.60637 43.6481 11.8501L46.3519 13.1499ZM49.8438 7.24936C51.1605 5.41397 52.5889 3.80908 54.1269 2.42886L52.1231 0.196137C50.4111 1.73259 48.8395 3.5027 47.4062 5.50064L49.8438 7.24936ZM52.3372 2.58896L60.3372 7.52646L61.9128 4.97354L53.9128 0.0360408L52.3372 2.58896ZM59.8301 5.49296C58.1918 8.29519 56.8373 11.3071 55.7645 14.5257L58.6105 15.4743C59.621 12.4429 60.8915 9.62148 62.4199 7.00704L59.8301 5.49296ZM55.7664 14.5199C54.6616 17.7901 54.125 21.5204 54.125 25.6875H57.125C57.125 21.7712 57.6301 18.3766 58.6086 15.4801L55.7664 14.5199ZM54.125 25.6875V36.75H57.125V25.6875H54.125ZM55.625 35.25H41.6875V38.25H55.625V35.25ZM43.1875 36.75V25.75H40.1875V36.75H43.1875Z" fill="#35C85E" mask="url(#path-1-outside-1_1100_2447)"/>
</svg>
