<svg width="13" height="10" viewBox="0 0 13 10" fill="none" xmlns="http://www.w3.org/2000/svg">
<path d="M4.85375 4.4661C5.44021 5.30964 6.29345 6.00822 7.32375 6.48838L7.87625 5.85488C7.9651 5.75302 8.09647 5.68135 8.2455 5.65344C8.39454 5.62553 8.5509 5.64331 8.685 5.70342C9.56895 6.09893 10.5451 6.3368 11.5494 6.40139C11.7061 6.41156 11.8524 6.46972 11.9591 6.56427C12.0658 6.65883 12.125 6.78283 12.125 6.91156V9.19481C12.125 9.3215 12.0677 9.4437 11.964 9.53776C11.8603 9.63181 11.7177 9.69103 11.5637 9.70395C11.2325 9.7321 10.8988 9.74592 10.5625 9.74592C5.2125 9.74592 0.875 6.19466 0.875 1.81443C0.875 1.53913 0.891875 1.26588 0.92625 0.994671C0.942034 0.868635 1.01437 0.751876 1.12924 0.66699C1.24412 0.582104 1.39338 0.535129 1.54813 0.535156H4.33687C4.4941 0.53514 4.64556 0.583641 4.76105 0.67099C4.87654 0.758338 4.94758 0.878116 4.96 1.00644C5.03889 1.82865 5.32942 2.62788 5.8125 3.3516C5.88592 3.4614 5.90763 3.58941 5.87354 3.71143C5.83945 3.83345 5.75192 3.94101 5.6275 4.01375L4.85375 4.4661ZM3.2775 4.12991L4.465 3.43552C4.12799 2.83994 3.89709 2.20785 3.77937 1.55857H2.13125C2.1275 1.64352 2.12562 1.72897 2.12562 1.81443C2.125 5.62973 5.9025 8.7225 10.5625 8.7225C10.6669 8.7225 10.7712 8.72096 10.875 8.71738V7.368C10.082 7.27162 9.30994 7.08258 8.5825 6.80666L7.73438 7.77891C7.39291 7.67028 7.06125 7.54203 6.74188 7.39513L6.70563 7.37824C5.47974 6.80703 4.46455 5.97586 3.76687 4.97218L3.74625 4.9425C3.56682 4.68102 3.41018 4.40948 3.2775 4.12991Z" fill="black"/>
</svg>
