<svg width="1440" height="710" viewBox="0 0 1440 710" fill="none" xmlns="http://www.w3.org/2000/svg">
<g opacity="0.5">
<path opacity="0.5" d="M-148.559 688.851C461.934 648.769 195.13 418.257 279.059 338.356C302.504 316.036 350.206 322.15 376.359 339.32C411.5 362.389 391.425 410.512 340.687 406.361C289.468 402.172 277.879 343.108 307.186 317.846C321.727 305.313 344.658 299.715 366.752 299.008C448.434 296.406 511.38 348.462 580.308 373.637C630.717 392.052 686.517 404.388 742.824 401.767C805.69 398.845 864.984 375.259 899.692 335.345C983.992 238.418 967.661 52.849 1165.43 29.9078C1340.15 9.64656 1476.74 153.502 1553.13 249.89" stroke="url(#paint0_linear_430_1697)" stroke-width="0.5658" stroke-miterlimit="10"/>
<path opacity="0.5" d="M1552.25 245.496C1505.21 188.213 1435.54 114.004 1350.53 70.3204C1314.35 51.7833 1275.91 38.8492 1234.99 34.3649C1212.37 31.8867 1188.88 32.0067 1164.59 35.2891C1126.16 40.4185 1095.73 51.6807 1070.92 67.1288C1025.93 95.1384 999.226 137.363 977.607 180.975C962.467 211.52 950.142 242.364 937.224 271.28C927.518 293.013 916.58 313.842 901.8 331.972C887.658 349.355 868.524 363.933 846.259 375.062C817.628 389.405 783.96 398.065 748.986 400.213C693.159 403.732 637.168 392.181 586.434 373.699C515.965 348.061 452.859 299.579 374.37 303.574C369.212 303.835 364.038 304.398 358.981 305.26C343.397 307.911 328.646 313.322 318.432 322.342C291.087 346.42 302.72 401.956 350.127 405.298C358.024 405.855 365.081 405.098 371.217 403.281C402.682 394.109 410.379 358.814 380.937 340.684C354.765 324.565 307.892 319.181 284.433 341.577C275.701 349.909 270.673 359.854 267.991 371.028C245.042 466.859 383.511 651.658 -148.155 678.772" stroke="url(#paint1_linear_430_1697)" stroke-width="0.5658" stroke-miterlimit="10"/>
<path opacity="0.5" d="M1551.36 241.091C1503.31 184.597 1431.83 111.467 1346.72 70.3602C1310.43 52.9376 1272.69 41.4985 1232.71 38.1411C1210.6 36.296 1187.61 36.9943 1163.76 40.6475C1126.09 46.4165 1096.02 57.9415 1071.24 73.4762C1026.45 101.514 998.501 143.292 975.734 184.949C959.795 214.125 947.058 242.497 935.763 269.653C927.187 290.277 917.62 310.557 903.909 328.576C890.821 345.873 872.452 360.697 850.756 372.103C822.855 386.853 789.736 395.937 755.149 398.641C699.783 402.968 643.61 392.294 592.552 373.751C520.535 347.651 457.253 302.743 381.99 308.135C377.057 308.489 372.15 309.157 367.4 310.091C352.821 312.958 339.123 318.275 329.68 326.835C304.296 349.735 315.973 401.725 359.568 404.231C366.999 404.658 373.602 403.881 379.284 402.057C408.81 392.876 415.04 359.042 385.499 342.045C359.317 326.977 313.257 322.323 289.784 344.794C281.076 353.12 275.956 363.026 273.115 374.136C248.788 469.405 368.8 650.364 -147.766 668.695" stroke="url(#paint2_linear_430_1697)" stroke-width="0.5658" stroke-miterlimit="10"/>
<path opacity="0.5" d="M1550.47 236.687C1501.4 180.983 1428.11 108.932 1342.89 70.4075C1306.5 54.1059 1269.47 44.1495 1230.43 41.9314C1208.83 40.7195 1186.33 41.9778 1162.92 46.0264C1126.03 52.4043 1096.3 64.2295 1071.55 79.8446C1026.96 107.916 997.768 149.235 973.854 188.943C957.115 216.751 943.975 242.643 934.294 268.039C926.858 287.548 918.644 307.286 906.002 325.201C893.976 342.417 876.365 357.476 855.247 369.164C828.075 384.316 795.505 393.86 761.305 397.091C706.409 402.279 650.054 392.427 598.672 373.817C525.113 347.26 461.614 305.922 389.609 312.705C384.902 313.146 380.263 313.918 375.812 314.925C362.237 318.013 349.592 323.226 340.919 331.33C317.498 353.046 329.21 401.483 369.002 403.172C375.975 403.469 382.116 402.673 387.351 400.841C414.947 391.651 419.718 359.277 390.071 343.413C363.877 329.396 318.631 325.472 295.151 348.013C286.476 356.333 281.264 366.198 278.256 377.252C252.55 471.959 354.114 649.077 -147.36 658.625" stroke="url(#paint3_linear_430_1697)" stroke-width="0.5658" stroke-miterlimit="10"/>
<path opacity="0.5" d="M1549.58 232.286C1499.49 177.365 1424.53 106.229 1339.06 70.4523C1302.61 55.1965 1266.23 46.7983 1228.13 45.7197C1207.04 45.141 1185.04 46.9594 1162.07 51.3974C1125.95 58.3844 1096.57 70.5093 1071.84 86.2051C1027.47 114.304 997.017 155.171 971.956 192.929C954.409 219.368 940.882 242.775 932.808 266.417C926.527 284.817 919.583 303.983 908.086 321.809C897.046 338.917 880.234 354.204 859.728 366.21C833.242 381.721 801.257 391.768 767.451 395.525C713.017 401.57 656.488 392.545 604.774 373.874C529.674 346.855 465.933 309.082 397.212 317.273C392.731 317.808 388.35 318.678 384.214 319.763C371.637 323.067 360.078 328.198 352.151 335.829C330.766 356.402 342.413 401.227 378.427 402.111C384.934 402.271 390.621 401.461 395.402 399.622C421.067 390.43 424.388 359.516 394.624 344.78C368.437 331.819 323.996 328.614 300.493 351.237C291.843 359.551 286.538 369.376 283.372 380.367C256.287 474.512 339.394 647.782 -146.98 648.552" stroke="url(#paint4_linear_430_1697)" stroke-width="0.5658" stroke-miterlimit="10"/>
<path opacity="0.5" d="M1548.69 227.879C1497.59 173.749 1420.84 103.648 1335.24 70.4986C1298.7 56.3454 1263.02 49.449 1225.84 49.5042C1205.28 49.5587 1183.76 51.9313 1161.24 56.7708C1125.9 64.3607 1096.86 76.7919 1072.16 92.5679C1027.99 120.695 996.294 161.109 970.094 196.911C951.747 221.987 937.84 242.894 931.357 264.795C926.239 282.073 920.616 300.704 910.205 318.425C900.211 335.446 884.165 350.968 864.244 363.261C838.472 379.168 807.053 389.689 773.634 393.965C719.662 400.879 662.95 392.671 610.919 373.932C534.27 346.457 470.255 312.25 404.859 321.843C400.595 322.47 396.489 323.438 392.653 324.603C381.064 328.123 370.584 333.166 363.418 340.336C344.02 359.741 355.765 399.197 387.879 401.056C393.897 401.407 399.153 400.257 403.489 398.41C427.214 389.209 429.11 359.768 399.206 346.153C373.042 334.244 329.38 331.769 305.871 354.462C297.254 362.769 291.857 372.554 288.524 383.482C260.06 477.065 324.709 646.494 -146.563 638.477" stroke="url(#paint5_linear_430_1697)" stroke-width="0.5658" stroke-miterlimit="10"/>
<path opacity="0.5" d="M1547.8 223.473C1495.68 170.127 1417.13 101.074 1331.41 70.5399C1294.77 57.4894 1259.78 52.1014 1223.55 53.2903C1203.5 53.9782 1182.49 56.9047 1160.4 62.14C1125.83 70.333 1097.14 83.0702 1072.46 98.9268C1028.5 127.081 995.548 167.043 968.209 200.894C949.063 224.601 934.793 243.003 929.884 263.168C925.946 279.323 921.62 297.419 912.303 315.028C903.346 331.964 888.074 347.72 868.73 360.302C843.679 376.605 812.81 387.592 779.778 392.394C726.268 400.171 669.382 392.785 617.019 373.985C538.829 346.048 474.49 315.421 412.46 326.403C408.412 327.117 404.574 328.189 401.054 329.432C390.445 333.174 381.051 338.117 374.647 344.827C357.237 363.059 368.886 398.452 397.302 399.984C402.857 400.285 407.656 399.035 411.537 397.18C433.332 387.971 433.81 359.996 403.758 347.516C377.624 336.657 334.743 334.914 311.22 357.682C302.627 365.984 297.146 375.728 293.646 386.593C263.804 479.613 310.003 645.199 -146.184 628.396" stroke="url(#paint6_linear_430_1697)" stroke-width="0.5658" stroke-miterlimit="10"/>
<path opacity="0.5" d="M1546.91 219.066C1493.77 166.51 1413.44 98.4996 1327.59 70.5878C1290.84 58.6403 1256.55 54.7545 1221.26 57.0834C1201.73 58.4048 1181.21 61.8855 1159.56 67.5165C1125.76 76.3124 1097.42 89.3496 1072.77 105.293C1029.02 133.481 994.815 172.991 966.328 204.884C946.382 227.222 931.773 243.098 928.415 261.553C925.681 276.572 922.626 294.146 914.404 311.65C906.484 328.5 891.986 344.49 873.229 357.36C848.89 374.058 818.58 385.519 785.942 390.841C732.895 399.493 675.826 392.917 623.147 374.05C543.416 345.65 478.712 318.611 420.081 330.981C416.251 331.788 412.671 332.959 409.475 334.274C399.83 338.239 391.539 343.081 385.897 349.329C370.482 366.388 381.934 397.648 406.746 398.929C411.837 399.192 416.179 397.83 419.615 395.968C439.478 386.75 438.547 360.247 408.33 348.891C382.236 339.088 340.119 338.071 316.581 360.915C308.02 369.21 302.439 378.914 298.781 389.716C267.56 482.174 295.301 643.916 -145.784 618.324" stroke="url(#paint7_linear_430_1697)" stroke-width="0.5658" stroke-miterlimit="10"/>
<path opacity="0.5" d="M1546.02 214.664C1491.87 162.899 1409.71 95.9312 1323.76 70.6353C1286.91 59.7911 1253.32 57.4078 1218.97 60.8706C1199.95 62.8256 1179.93 66.8603 1158.72 72.8934C1125.7 82.2862 1097.7 95.6359 1073.07 111.66C1029.53 139.875 994.079 178.932 964.446 208.874C943.699 229.848 928.759 243.174 926.943 259.931C925.438 273.801 923.64 290.865 916.503 308.257C909.629 325.027 895.889 341.252 877.725 354.404C854.108 371.504 824.356 383.438 792.104 389.274C739.512 398.796 682.277 393.035 629.265 374.101C547.986 345.245 482.867 321.808 427.701 335.546C424.08 336.447 420.767 337.722 417.887 339.109C409.189 343.303 402.025 348.045 397.137 353.826C383.717 369.71 394.944 400.036 416.18 397.861C420.787 397.391 424.692 396.612 427.674 394.742C445.606 385.516 443.291 360.479 412.893 350.252C386.854 341.494 345.484 341.209 321.94 364.128C313.404 372.417 307.739 382.081 303.913 392.82C271.314 484.72 280.596 642.612 -145.385 608.23" stroke="url(#paint8_linear_430_1697)" stroke-width="0.5658" stroke-miterlimit="10"/>
<path opacity="0.5" d="M1545.13 210.256C1489.97 159.275 1406.01 93.3629 1319.93 70.6838C1282.97 60.9431 1250.1 60.0621 1216.67 64.6655C1198.17 67.2541 1178.64 71.8371 1157.87 78.272C1125.63 88.2618 1097.97 101.924 1073.38 118.028C1030.03 146.271 993.336 184.874 962.555 212.865C941.009 232.47 925.77 243.206 925.464 258.309C925.212 271.01 924.637 287.584 918.595 304.871C912.757 321.555 899.792 338.014 882.214 351.454C859.319 368.95 830.116 381.358 798.259 387.714C746.13 398.117 688.712 393.16 635.385 374.165C552.564 344.846 486.975 325.05 435.322 340.118C431.902 341.112 428.864 342.485 426.308 343.951C418.549 348.381 412.513 353.009 408.387 358.335C396.971 373.051 407.842 399.702 425.623 396.805C429.73 396.138 433.215 395.406 435.751 393.529C451.744 384.294 448.061 360.717 417.465 351.626C391.497 343.911 350.867 344.365 327.3 367.361C318.797 375.643 313.04 385.267 309.048 395.949C275.07 487.286 265.893 641.325 -144.985 598.153" stroke="url(#paint9_linear_430_1697)" stroke-width="0.5658" stroke-miterlimit="10"/>
<path opacity="0.5" d="M1544.23 205.848C1488.05 155.658 1402.27 90.7957 1316.1 70.7269C1279.03 62.096 1246.87 62.7179 1214.38 68.4555C1196.4 71.6778 1177.37 76.8088 1157.03 83.652C1125.56 94.2326 1098.25 108.213 1073.68 124.397C1030.54 152.668 992.592 190.818 960.672 216.857C938.326 235.091 922.794 243.189 923.993 256.693C925.018 268.188 925.651 284.315 920.694 301.484C915.903 318.088 903.711 334.781 886.703 348.503C864.521 366.402 835.877 379.282 804.414 386.152C752.74 397.431 695.155 393.29 641.496 374.222C557.134 344.441 491.026 328.33 442.934 344.691C439.715 345.785 436.945 347.262 434.712 348.787C427.877 353.466 423 357.967 419.62 362.832C410.216 376.374 421.794 401.525 435.05 395.736C438.77 395.417 441.722 394.194 443.812 392.302C457.873 383.059 452.83 360.941 422.028 352.994C396.149 346.317 356.234 347.516 332.661 370.581C324.19 378.856 318.333 388.434 314.182 399.06C278.825 489.832 251.197 640.025 -144.593 588.062" stroke="url(#paint10_linear_430_1697)" stroke-width="0.5658" stroke-miterlimit="10"/>
<path opacity="0.5" d="M1543.34 201.438C1486.14 152.04 1398.55 88.2337 1312.28 70.7758C1275.11 63.2548 1243.64 65.3735 1212.1 72.2454C1194.63 76.1015 1176.09 81.7806 1156.2 89.0255C1125.51 100.197 1098.54 114.496 1074 130.761C1031.08 159.064 991.872 196.755 958.805 220.841C935.659 237.712 919.841 243.09 922.538 255.063C924.846 265.309 926.68 281.026 922.809 298.088C919.063 314.613 907.638 331.541 891.216 345.544C869.755 363.844 841.661 377.205 810.585 384.582C759.374 396.749 701.606 393.406 647.631 374.277C561.72 344.04 495.062 331.659 450.571 349.255C447.545 350.45 445.05 352.031 443.149 353.622C437.229 358.568 433.512 362.924 430.886 367.327C423.51 379.688 435.046 401.457 444.509 394.67C447.765 394.252 450.261 392.979 451.897 391.08C464.027 381.828 457.64 361.157 426.616 354.36C400.833 348.708 361.625 350.659 338.038 373.805C329.592 382.075 323.651 391.612 319.333 402.174C282.597 492.382 236.51 638.727 -144.176 577.972" stroke="url(#paint11_linear_430_1697)" stroke-width="0.5658" stroke-miterlimit="10"/>
<path opacity="0.5" d="M1542.44 197.039C1484.23 148.426 1394.82 85.6836 1308.44 70.8309C1271.15 64.4203 1240.4 68.0356 1209.8 76.0481C1192.84 80.5381 1174.81 86.7653 1155.35 94.4185C1125.44 106.181 1098.82 120.792 1074.29 137.143C1031.58 165.474 991.12 202.717 956.914 224.845C932.968 240.344 916.836 242.912 921.059 253.457C924.64 262.386 927.685 277.766 924.901 294.711C922.201 311.155 911.541 328.317 895.705 342.603C874.966 361.311 847.422 375.144 816.741 383.029C765.984 396.084 708.05 393.54 653.742 374.344C566.291 343.644 499.027 335.075 458.185 353.839C455.352 355.139 453.132 356.83 451.563 358.475C446.552 363.713 444.009 367.893 442.129 371.847C436.798 383.026 448.283 401.406 453.946 393.623C456.736 393.105 458.777 391.781 459.967 389.868C470.158 380.608 462.452 361.378 431.181 355.737C405.502 351.104 367.001 353.82 343.399 377.042C334.986 385.304 328.953 394.801 324.468 405.301C286.354 494.944 221.807 637.44 -143.774 567.891" stroke="url(#paint12_linear_430_1697)" stroke-width="0.5658" stroke-miterlimit="10"/>
<path opacity="0.5" d="M1541.55 192.628C1482.32 144.808 1391.08 83.1287 1304.62 70.881C1267.21 65.5808 1237.16 70.6504 1207.51 79.8463C1191.05 84.9457 1173.53 91.7396 1154.51 99.8008C1125.37 112.148 1099.09 127.084 1074.59 143.515C1032.09 171.873 990.383 208.662 955.021 228.831C930.276 242.96 911.308 243.708 919.578 251.827C922.145 259.956 928.689 274.482 926.982 291.315C925.328 307.679 915.435 325.075 900.184 339.643C880.166 358.752 853.173 373.066 822.886 381.459C772.585 395.401 714.484 393.655 659.852 374.398C570.86 343.243 502.976 338.566 465.798 358.41C463.149 359.823 461.213 361.624 459.968 363.317C455.873 368.864 454.505 372.85 453.362 376.349C450.091 386.327 461.502 401.342 463.372 392.556C465.706 391.939 467.283 390.565 468.019 388.645C476.278 379.382 467.261 361.575 435.736 357.103C410.178 353.476 372.36 356.969 348.751 380.26C340.362 388.516 334.237 397.973 329.594 408.409C290.101 497.487 207.102 636.133 -143.382 557.791" stroke="url(#paint13_linear_430_1697)" stroke-width="0.5658" stroke-miterlimit="10"/>
<path opacity="0.5" d="M1540.65 188.223C1480.41 141.194 1387.34 80.5851 1300.79 70.9305C1263.27 66.7471 1233.92 73.3077 1205.21 83.638C1189.27 89.3714 1172.25 96.7071 1153.67 105.177C1125.3 118.108 1099.37 133.369 1074.9 149.88C1032.6 178.265 989.646 214.6 953.145 232.815C927.6 245.58 908.088 243.817 918.114 250.195C921.712 257.191 929.718 271.196 929.089 287.91C928.48 304.194 919.361 321.831 904.68 336.674C885.392 356.191 858.949 370.978 829.048 379.879C779.211 394.716 720.926 393.762 665.971 374.438C575.43 342.821 506.937 342.147 473.41 362.962C470.946 364.493 469.311 366.404 468.38 368.132C465.219 374.014 465.016 377.762 464.603 380.825C463.417 389.57 474.738 401.246 472.807 391.463C474.676 390.747 475.789 389.322 476.087 387.394C482.416 378.123 472.086 361.732 440.299 358.448C414.869 355.821 377.734 360.098 354.103 383.464C345.747 391.708 339.53 401.13 334.72 411.503C293.848 500.015 192.389 634.804 -142.997 547.675" stroke="url(#paint14_linear_430_1697)" stroke-width="0.5658" stroke-miterlimit="10"/>
<path opacity="0.5" d="M1539.76 183.814C1478.5 137.573 1383.6 78.0465 1296.96 70.9852C1259.32 67.9186 1230.68 75.9763 1202.92 87.4411C1187.49 93.8085 1170.96 101.686 1152.82 110.57C1125.24 124.08 1099.65 139.672 1075.2 156.263C1033.11 184.68 988.9 220.555 951.261 236.817C924.916 248.21 904.859 243.943 916.649 248.585C921.279 254.449 930.738 267.938 931.195 284.534C931.64 300.743 923.279 318.609 909.184 333.734C890.618 353.653 864.726 368.925 835.219 378.327C785.845 394.064 727.386 393.896 672.106 374.512C580.025 342.433 510.943 345.861 481.048 367.553C478.77 369.204 477.434 371.225 476.81 372.994C474.617 379.222 475.545 382.702 475.862 385.347C476.751 392.817 487.983 401.202 482.259 390.416C483.663 389.6 484.321 388.125 484.165 386.19C488.562 376.911 476.937 361.917 444.88 359.834C419.578 358.189 383.118 363.262 359.481 386.703C351.149 394.94 344.849 404.322 339.871 414.637C297.621 502.583 177.702 633.521 -142.578 537.597" stroke="url(#paint15_linear_430_1697)" stroke-width="0.5658" stroke-miterlimit="10"/>
<path opacity="0.5" d="M1538.86 179.415C1476.59 133.965 1379.85 75.5227 1293.13 71.0424C1255.37 69.0928 1227.45 78.6414 1200.63 91.247C1185.71 98.2545 1169.68 106.668 1151.98 115.96C1125.16 130.049 1099.92 145.971 1075.51 162.642C1033.62 191.086 988.164 226.513 949.377 240.815C922.232 250.837 901.631 244.059 915.177 246.965C920.838 251.696 931.759 264.663 933.294 281.142C934.793 297.27 927.198 315.369 913.681 330.776C895.844 351.103 870.494 366.855 841.373 376.759C792.463 393.396 733.821 394.014 678.226 374.564C584.604 342.028 514.994 349.656 488.67 372.117C486.585 373.898 485.558 376.022 485.232 377.828C484.048 384.406 486.048 387.595 487.113 389.847C490.018 395.974 501.22 401.129 491.704 389.353C492.643 388.437 492.845 386.912 492.243 384.969C494.701 375.681 481.788 362.073 449.461 361.203C424.295 360.527 388.503 366.415 364.851 389.931C356.553 398.161 350.152 407.503 345.016 417.755C301.387 505.134 163.008 632.219 -142.167 527.501" stroke="url(#paint16_linear_430_1697)" stroke-width="0.5658" stroke-miterlimit="10"/>
<path opacity="0.5" d="M1537.97 175.007C1474.68 130.351 1376.11 72.9914 1289.31 71.0984C1251.43 70.2719 1224.22 81.3116 1198.33 95.0459C1183.93 102.687 1168.39 111.637 1151.14 121.349C1125.09 136.011 1100.21 152.263 1075.82 169.02C1034.14 197.491 987.427 232.463 947.501 244.811C919.557 253.462 898.412 244.179 913.714 245.343C920.405 248.941 932.797 261.386 935.401 277.753C937.954 293.8 931.126 312.14 918.186 327.823C901.071 348.557 876.28 364.794 847.545 375.194C799.099 392.737 740.281 394.136 684.354 374.619C589.183 341.622 519.138 353.551 496.301 376.69C494.401 378.608 493.7 380.829 493.663 382.665C493.529 389.593 496.502 392.476 498.373 394.344C503.144 399.109 514.474 401.054 501.149 388.28C501.622 387.265 501.37 385.689 500.313 383.739C500.84 374.443 486.63 362.202 454.026 362.564C428.995 362.845 393.88 369.56 370.214 393.151C361.939 401.375 355.455 410.675 350.152 420.864C305.144 507.677 148.313 630.909 -141.763 517.396" stroke="url(#paint17_linear_430_1697)" stroke-width="0.5658" stroke-miterlimit="10"/>
<path opacity="0.5" d="M1537.06 170.599C1472.76 126.73 1372.36 70.4726 1285.47 71.1491C1247.47 71.4461 1220.98 83.9766 1196.03 98.8455C1182.14 107.121 1167.1 116.607 1150.29 126.733C1125.01 141.967 1100.47 158.556 1076.11 175.393C1034.64 203.89 986.688 238.407 945.607 248.801C916.855 256.087 895.173 244.294 912.232 243.722C919.955 246.186 933.808 258.109 937.49 274.357C941.105 290.33 935.035 308.904 922.664 324.863C906.279 346.004 882.039 362.727 853.69 373.622C805.708 392.072 746.707 394.257 690.464 374.673C593.752 341.214 523.383 357.523 503.914 381.264C502.225 383.324 501.822 385.63 502.068 387.508C503.008 394.774 506.89 397.394 509.607 398.848C516.114 402.327 527.694 400.99 510.576 387.214C510.592 386.093 509.876 384.473 508.374 382.515C506.969 373.211 491.462 362.319 458.589 363.937C433.694 365.162 399.247 372.711 375.566 396.376C367.325 404.594 360.748 413.853 355.278 423.979C308.892 510.224 133.601 629.602 -141.377 507.289" stroke="url(#paint18_linear_430_1697)" stroke-width="0.5658" stroke-miterlimit="10"/>
<path opacity="0.5" d="M1536.16 166.193C1470.84 123.117 1368.61 67.9565 1281.63 71.2083C1243.52 72.6347 1217.74 86.644 1193.74 102.654C1180.36 111.563 1165.81 121.579 1149.45 132.132C1124.93 147.932 1100.75 164.863 1076.41 181.78C1035.15 210.304 985.943 244.366 943.723 252.806C914.171 258.72 891.945 244.422 910.759 242.108C919.514 243.438 934.837 254.84 939.588 270.976C944.266 286.868 938.953 305.676 927.161 321.916C911.514 343.465 887.816 360.673 859.853 372.064C812.343 391.427 753.159 394.385 696.583 374.735C598.331 340.821 527.771 361.548 511.536 385.839C510.058 388.048 509.971 390.433 510.49 392.353C512.538 399.937 517.28 402.357 520.859 403.353C529.096 405.644 540.94 400.921 520.021 386.148C519.572 384.928 518.4 383.257 516.444 381.292C513.099 371.98 496.295 362.418 463.154 365.305C438.394 367.463 404.623 375.863 380.928 399.603C372.712 407.814 366.043 417.033 360.414 427.095C312.65 512.779 118.898 628.29 -140.973 497.189" stroke="url(#paint19_linear_430_1697)" stroke-width="0.5658" stroke-miterlimit="10"/>
<path opacity="0.5" d="M1535.27 161.791C1468.93 119.509 1364.88 65.451 1277.8 71.2664C1239.57 73.8222 1214.55 89.3524 1191.44 106.455C1178.62 116.022 1164.52 126.55 1148.6 137.517C1124.84 153.89 1101.03 171.157 1076.72 188.154C1035.66 216.71 985.205 250.31 941.837 256.797C911.485 261.339 888.418 237.808 909.285 240.486C918.912 241.721 935.873 251.562 941.685 267.58C947.425 283.391 942.87 302.439 931.655 318.955C916.738 340.917 893.591 358.605 866.014 370.492C818.977 390.766 759.609 394.499 702.71 374.789C602.909 340.413 532.306 365.581 519.157 390.411C517.906 392.769 518.119 395.22 518.903 397.196C522.066 405.079 527.687 407.348 532.101 407.862C542.138 409.025 554.169 400.863 529.457 385.092C528.543 383.773 526.916 382.052 524.514 380.079C519.238 370.758 501.119 362.516 467.727 366.683C443.084 369.762 409.999 379.025 386.29 402.84C378.106 411.044 371.345 420.223 365.55 430.221C316.407 515.337 104.203 626.993 -140.57 487.097" stroke="url(#paint20_linear_430_1697)" stroke-width="0.5658" stroke-miterlimit="10"/>
<path opacity="0.5" d="M1534.37 157.384C1467.01 115.89 1361.13 62.9474 1273.97 71.3259C1235.63 75.0112 1211.31 92.0202 1189.14 110.263C1176.83 120.465 1163.22 131.523 1147.75 142.916C1124.75 159.856 1101.3 177.465 1077.01 194.541C1036.17 223.123 984.45 256.275 939.944 260.801C908.792 263.977 884.787 242.803 907.804 238.871C918.43 237.059 936.893 248.292 943.774 264.198C950.577 279.927 946.78 299.216 936.134 316.007C921.947 338.376 899.351 356.556 872.16 368.932C825.604 390.124 766.035 394.625 708.812 374.849C607.471 340.012 536.941 369.611 526.762 394.985C525.755 397.497 526.242 400.009 527.309 402.033C531.594 410.196 538.143 412.036 543.335 412.359C555.191 413.09 564.021 403.553 538.884 384.019C537.262 382.753 535.423 380.828 532.575 378.848C525.367 369.519 505.925 362.577 472.291 368.043C447.757 372.03 415.367 382.163 391.651 406.053C383.492 414.25 376.639 423.388 370.685 433.323C320.163 517.87 89.4993 625.671 -140.166 476.981" stroke="url(#paint21_linear_430_1697)" stroke-width="0.5658" stroke-miterlimit="10"/>
<path opacity="0.5" d="M1533.47 152.978C1465.1 112.278 1357.4 60.4504 1270.14 71.3802C1231.69 76.2012 1208.09 94.6827 1186.85 114.067C1175.05 124.902 1161.93 136.49 1146.91 148.303C1124.66 165.803 1101.58 183.755 1077.31 200.917C1036.68 229.525 983.712 262.221 938.058 264.787C906.107 266.592 881.509 243.239 906.33 237.238C917.909 234.436 937.928 244.997 945.871 260.791C953.744 276.438 950.706 295.968 940.629 313.034C927.18 335.81 905.135 354.482 878.313 367.347C832.238 389.464 772.477 394.727 714.931 374.891C612.049 339.599 541.706 373.577 534.384 399.546C533.637 402.205 534.39 404.785 535.731 406.864C541.138 415.295 548.583 417.317 554.586 416.849C568.411 415.772 578.087 403.025 548.328 382.939C546.291 381.566 543.947 379.598 540.645 377.611C531.506 368.28 510.723 362.62 476.855 369.397C452.431 374.287 420.743 385.302 397.013 409.266C388.886 417.456 381.942 426.553 375.821 436.431C323.92 520.409 74.7964 624.354 -139.762 466.87" stroke="url(#paint22_linear_430_1697)" stroke-width="0.5658" stroke-miterlimit="10"/>
<path opacity="0.5" d="M1532.57 148.573C1463.18 108.667 1353.65 57.9546 1266.3 71.4419C1227.74 77.3983 1204.84 97.3526 1184.55 117.871C1173.26 129.34 1160.61 141.459 1146.06 153.691C1124.57 171.758 1101.86 190.052 1077.62 207.293C1037.19 235.927 982.98 268.168 936.18 268.779C903.428 269.212 878.312 243.644 904.864 235.617C917.452 231.812 938.963 241.72 947.967 257.402C956.902 272.962 954.63 292.738 945.123 310.08C932.412 333.263 910.918 352.426 884.474 365.781C838.879 388.816 778.919 394.847 721.048 374.945C616.618 339.192 546.559 377.503 542.005 404.119C541.526 406.92 542.537 409.561 544.143 411.707C550.664 420.394 559.039 422.307 565.828 421.358C581.592 419.15 591.913 402.563 557.763 381.877C555.31 380.386 552.461 378.387 548.713 376.385C537.634 367.046 515.503 362.663 481.427 370.769C457.086 376.556 426.118 388.458 402.374 412.49C394.272 420.674 387.243 429.73 380.955 439.544C327.676 522.954 60.1005 623.042 -139.367 456.765" stroke="url(#paint23_linear_430_1697)" stroke-width="0.5658" stroke-miterlimit="10"/>
<path opacity="0.5" d="M1531.67 144.172C1461.28 105.054 1349.94 55.4696 1262.47 71.5022C1223.8 78.5941 1201.62 100.027 1182.26 121.68C1171.5 133.783 1159.32 146.432 1145.23 159.09C1124.48 177.718 1102.14 196.359 1077.93 213.68C1037.71 242.346 982.243 274.125 934.303 272.782C900.753 271.849 875.148 244.009 903.399 234.001C917.023 229.179 940.008 238.442 950.074 254.012C960.079 269.49 958.565 289.506 949.627 307.123C937.655 330.719 916.711 350.367 890.645 364.212C845.54 388.171 785.379 394.964 727.185 375.002C621.214 338.794 551.503 381.352 549.644 408.689C549.442 411.625 550.694 414.334 552.583 416.541C560.216 425.472 569.537 427.281 577.096 425.852C594.815 422.506 605.628 402.14 567.225 380.806C564.339 379.202 561.003 377.166 556.8 375.158C543.791 365.81 520.294 362.699 486.009 372.133C461.753 378.81 431.504 391.606 407.753 415.713C399.684 423.89 392.555 432.905 386.109 442.655C331.451 525.496 45.4152 621.721 -138.945 446.656" stroke="url(#paint24_linear_430_1697)" stroke-width="0.5658" stroke-miterlimit="10"/>
<path opacity="0.5" d="M1530.77 139.765C1459.36 101.441 1346.21 52.9786 1258.64 71.5626C1219.86 79.79 1198.38 102.696 1179.96 125.49C1169.71 138.226 1158.01 151.405 1144.37 164.483C1124.36 183.671 1102.41 202.661 1078.22 220.061C1038.21 248.752 981.496 280.076 932.41 276.778C898.059 274.474 871.991 244.336 901.918 232.385C916.592 226.521 941.036 235.164 952.163 250.627C963.239 266.018 962.483 286.273 954.106 304.167C942.881 328.169 922.48 348.315 896.79 362.643C852.175 387.532 791.805 395.081 733.287 375.054C625.776 338.384 556.453 385.125 557.25 413.26C557.341 416.33 558.817 419.107 560.981 421.381C569.719 430.556 579.994 432.256 588.323 430.352C608.006 425.856 619.196 401.768 576.646 379.736C573.319 378.013 569.503 375.952 564.854 373.93C549.913 364.574 525.025 362.722 490.566 373.497C466.369 381.065 436.872 394.748 413.1 418.935C405.063 427.104 397.843 436.079 391.229 445.766C335.193 528.037 30.6967 620.404 -138.556 436.547" stroke="url(#paint25_linear_430_1697)" stroke-width="0.5658" stroke-miterlimit="10"/>
<path opacity="0.5" d="M1529.87 135.362C1457.44 97.8272 1342.49 50.4987 1254.8 71.622C1215.92 80.991 1195.15 105.363 1177.66 129.291C1167.93 142.662 1156.7 156.364 1143.52 169.875C1124.26 189.629 1102.68 208.961 1078.52 226.44C1038.71 255.157 980.747 286.031 930.521 280.773C895.371 277.097 868.854 244.63 900.441 230.761C916.174 223.849 942.068 231.871 954.257 247.229C966.403 262.532 966.405 283.033 958.598 301.202C948.111 325.611 928.269 346.248 902.949 361.072C858.832 386.884 798.253 395.196 739.412 375.108C630.352 337.978 561.447 388.827 564.869 417.827C565.244 421.02 566.954 423.878 569.4 426.219C579.235 435.631 590.473 437.227 599.571 434.85C621.225 429.203 632.711 401.426 586.087 378.663C582.319 376.822 578.024 374.729 572.921 372.699C556.04 363.336 529.745 362.737 495.127 374.858C470.99 383.312 442.238 397.893 418.459 422.148C410.447 430.311 403.143 439.245 396.362 448.867C338.947 530.569 15.9914 619.079 -138.154 426.43" stroke="url(#paint26_linear_430_1697)" stroke-width="0.5658" stroke-miterlimit="10"/>
<path opacity="0.5" d="M1528.97 130.961C1455.52 94.2203 1338.77 48.0198 1250.97 71.6885C1211.98 82.199 1191.91 108.043 1175.36 133.106C1166.14 147.11 1155.39 161.343 1142.68 175.273C1124.15 195.588 1102.96 215.261 1078.82 232.826C1039.22 261.568 980.008 291.986 928.636 284.774C892.686 279.732 865.72 244.906 898.968 229.143C915.775 221.177 943.105 228.591 956.355 243.843C969.571 259.052 970.332 279.805 963.093 298.249C953.353 323.071 934.062 344.199 909.103 359.507C865.492 386.248 804.688 395.323 745.523 375.163C634.923 337.579 566.434 392.456 572.484 422.401C573.151 425.716 575.087 428.654 577.815 431.062C588.738 440.707 600.946 442.199 610.815 439.359C634.441 432.55 646.182 401.128 595.525 377.602C591.316 375.649 586.541 373.518 580.992 371.481C562.18 362.11 534.461 362.765 499.702 376.238C475.598 385.577 447.624 401.056 423.822 425.386C415.843 433.542 408.439 442.434 401.499 451.993C342.706 533.125 1.29881 617.777 -137.755 416.331" stroke="url(#paint27_linear_430_1697)" stroke-width="0.5658" stroke-miterlimit="10"/>
<path opacity="0.5" d="M1528.07 126.557C1453.61 90.6117 1335.06 45.5451 1247.13 71.7471C1208.05 83.3989 1188.67 110.71 1173.06 136.913C1164.37 151.551 1154.08 166.314 1141.83 180.669C1124.03 201.545 1103.23 221.565 1079.12 239.209C1039.73 267.983 979.268 297.939 926.749 288.772C890 282.359 862.592 245.162 897.501 227.53C915.383 218.497 944.147 225.309 958.459 240.454C972.745 255.576 974.314 276.58 967.595 295.294C958.659 320.534 939.861 342.148 915.272 357.939C872.166 385.61 811.146 395.441 751.657 375.215C639.517 337.17 571.442 396.026 580.121 426.972C581.081 430.396 583.233 433.422 586.244 435.897C598.246 445.773 611.442 447.161 622.074 443.853C647.67 435.887 659.617 400.835 604.976 376.526C600.318 374.454 595.071 372.293 589.069 370.248C568.325 360.869 539.166 362.778 504.281 377.596C480.212 387.821 453.007 404.193 429.2 428.596C421.245 436.739 413.757 445.597 406.651 455.098C346.479 535.659 -13.3879 616.453 -137.335 406.217" stroke="url(#paint28_linear_430_1697)" stroke-width="0.5658" stroke-miterlimit="10"/>
<path opacity="0.5" d="M1527.16 122.151C1451.69 86.9938 1331.41 43.1583 1243.3 71.8087C1204.14 84.6441 1185.44 113.379 1170.76 140.716C1162.58 155.988 1152.75 171.281 1140.98 186.056C1123.91 207.498 1103.5 227.859 1079.42 245.583C1040.24 274.382 978.529 303.882 924.863 292.761C887.314 284.976 859.456 245.389 896.027 225.9C914.991 215.795 945.214 221.998 960.555 237.057C975.935 252.065 978.23 273.335 972.081 292.33C963.875 317.97 945.653 340.087 921.424 356.361C878.825 384.968 817.588 395.549 757.767 375.264C644.078 336.759 576.4 399.538 587.735 431.533C588.986 435.067 591.364 438.185 594.658 440.727C607.74 450.835 621.924 452.138 633.316 448.343C660.901 439.245 673.014 400.557 614.412 375.452C609.305 373.263 603.587 371.07 597.139 369.017C574.455 359.631 543.848 362.788 508.846 378.957C484.795 390.067 458.375 407.337 434.562 431.814C426.64 439.95 419.06 448.761 411.787 458.205C350.237 538.195 -28.0901 615.126 -136.929 396.105" stroke="url(#paint29_linear_430_1697)" stroke-width="0.5658" stroke-miterlimit="10"/>
<path opacity="0.5" d="M1526.27 117.745C1449.77 83.383 1327.69 40.6327 1239.47 71.8648C1200.21 85.817 1182.21 116.042 1168.47 144.52C1160.8 160.425 1151.41 176.237 1140.15 191.442C1123.76 213.434 1103.79 234.153 1079.73 251.956C1040.75 280.781 977.79 309.831 922.985 296.743C884.636 287.587 856.336 245.598 894.561 224.265C914.599 213.081 946.241 218.702 962.66 233.647C979.094 248.574 982.155 270.077 976.584 289.354C969.107 315.394 951.487 338.031 927.594 354.771C885.552 384.342 824.038 395.644 763.902 375.294C648.673 336.334 581.365 402.989 595.373 436.081C596.916 439.718 599.512 442.93 603.088 445.545C617.25 455.885 632.412 457.071 644.575 452.821C674.122 442.536 686.41 400.285 623.856 374.361C618.3 372.059 612.111 369.828 605.209 367.769C580.594 358.38 548.513 362.786 513.419 380.299C489.369 392.296 463.76 410.463 439.924 435.014C432.027 443.143 424.354 451.913 416.923 461.293C353.995 540.719 -42.7835 613.785 -136.523 385.975" stroke="url(#paint30_linear_430_1697)" stroke-width="0.5658" stroke-miterlimit="10"/>
<path opacity="0.5" d="M1525.36 113.351C1447.85 79.7836 1323.96 38.1188 1235.63 71.9388C1196.25 87.0139 1178.97 118.73 1166.17 148.341C1148.68 188.773 1120.69 228.09 1080.02 258.353C1041.26 287.203 977.035 315.797 921.082 300.755C881.934 290.233 853.183 245.831 893.07 222.666C914.191 210.396 947.244 215.441 964.74 230.28C982.236 245.119 986.047 266.862 981.062 286.419C962.383 359.613 864.674 407.324 770.004 375.365C640.473 331.641 572.24 423.158 611.494 450.398C667.16 489.031 735.22 400.886 613.279 366.561C562.605 348.62 486.366 385.566 422.059 464.422C357.753 543.277 -57.4848 612.485 -136.125 375.887" stroke="url(#paint31_linear_430_1697)" stroke-width="0.5658" stroke-miterlimit="10"/>
<path opacity="0.5" d="M1522.96 109.841C1447.96 77.3586 1328.04 40.2698 1240.85 75.6679C1202.55 91.2213 1185.27 122.499 1172.42 151.927C1154.87 192.082 1127.01 231.124 1086.74 261.303C1048.25 290.165 984.97 318.642 929.478 304.667C890.617 294.902 861.719 252.227 899.123 229.943C907.606 224.884 918.202 222.894 928.822 223.41C942.979 224.079 957.151 229.179 966.388 237.362C982.665 251.695 985.562 272.691 980.087 291.613C959.603 362.351 862.728 409.203 768.751 378.94C641.447 337.944 573.661 427.251 610.431 454.791C662.442 493.753 727.451 408.763 607.714 376.133C556.73 359.437 482.187 396.23 416.343 471.939C349.183 549.152 -60.4736 613.106 -136.995 379.237" stroke="url(#paint32_linear_430_1697)" stroke-width="0.5658" stroke-miterlimit="10"/>
<path opacity="0.5" d="M1520.55 106.342C1448.05 74.9381 1332.13 42.3998 1246.07 79.4132C1208.85 95.4261 1191.58 126.291 1178.66 155.535C1161.04 195.414 1133.33 234.187 1093.45 264.27C1055.24 293.136 992.881 321.498 937.85 308.589C899.283 299.58 870.238 258.634 905.159 237.235C913.062 232.375 923.009 230.482 932.96 230.989C946.25 231.642 959.501 236.581 968.028 244.461C983.036 258.326 985.068 278.523 979.097 296.824C956.815 365.092 860.797 411.098 767.49 382.53C642.461 344.25 575.039 431.323 609.359 459.2C657.682 498.449 719.673 416.649 602.141 385.726C550.847 370.269 477.868 406.919 410.611 479.472C340.499 555.106 -63.4702 613.742 -137.889 382.609" stroke="url(#paint33_linear_430_1697)" stroke-width="0.5658" stroke-miterlimit="10"/>
<path opacity="0.5" d="M1518.16 102.838C1448.15 72.518 1336.25 44.4927 1251.3 83.1465C1215.14 99.6007 1197.9 130.07 1184.91 159.13C1167.22 198.734 1139.66 237.237 1100.18 267.223C1062.25 296.1 1000.82 324.347 946.238 312.498C907.957 304.245 878.765 265.027 911.204 244.515C918.527 239.861 927.816 238.057 937.107 238.562C949.53 239.206 961.885 243.969 969.676 251.547C983.441 264.925 984.591 284.343 978.123 302.021C954.051 367.814 858.918 412.984 766.238 386.107C643.517 350.523 576.383 435.34 608.305 463.601C652.905 503.088 711.922 424.533 596.585 395.306C544.973 381.095 473.426 417.592 404.904 486.998C331.735 561.11 -66.4499 614.364 -138.758 385.967" stroke="url(#paint34_linear_430_1697)" stroke-width="0.5658" stroke-miterlimit="10"/>
<path opacity="0.5" d="M1515.75 99.3347C1448.25 70.0993 1340.38 46.5499 1256.52 86.887C1221.43 103.764 1204.21 133.857 1191.16 162.727C1173.41 202.054 1145.98 240.282 1106.89 270.184C1069.25 299.065 1008.74 327.202 954.617 316.414C916.631 308.917 887.284 271.428 917.249 251.802C923.992 247.346 932.623 245.632 941.254 246.135C952.818 246.763 964.26 251.358 971.324 258.633C983.844 271.524 984.114 290.157 977.14 307.219C951.295 370.518 857.062 414.864 764.977 389.685C644.613 356.771 577.676 439.309 607.234 467.997C648.1 507.661 704.144 432.412 591.012 404.886C539.091 391.92 468.826 428.255 399.172 494.517C322.832 567.154 -69.4461 614.987 -139.651 389.32" stroke="url(#paint35_linear_430_1697)" stroke-width="0.5658" stroke-miterlimit="10"/>
<path opacity="0.5" d="M1513.35 95.8388C1448.35 67.6879 1344.51 48.5831 1261.74 90.6281C1227.72 107.909 1210.52 137.637 1197.41 166.33C1179.59 205.374 1152.3 243.339 1113.62 273.144C1076.25 302.03 1016.67 330.057 963.014 320.329C925.315 313.589 895.888 277.882 923.302 259.082C929.482 254.843 937.447 253.208 945.409 253.708C956.106 254.32 966.643 258.74 972.989 265.725C984.257 278.129 983.653 295.977 976.183 312.423C948.581 373.214 855.264 416.743 763.75 393.261C645.783 362.998 578.976 443.222 606.205 472.391C643.327 512.164 696.409 440.29 585.481 414.464C533.25 402.737 464.119 438.89 393.491 502.041C313.857 573.242 -72.4002 615.613 -140.495 392.684" stroke="url(#paint36_linear_430_1697)" stroke-width="0.5658" stroke-miterlimit="10"/>
<path opacity="0.5" d="M1510.95 92.3358C1448.44 65.2695 1348.65 50.5717 1266.96 94.368C1234.01 112.035 1216.82 141.423 1203.65 169.931C1185.76 208.699 1158.61 246.395 1120.33 276.103C1083.24 305 1024.58 332.911 971.386 324.243C933.981 318.259 904.416 284.292 929.339 266.366C934.947 262.333 942.246 260.781 949.54 261.28C959.378 261.876 969.002 266.127 974.621 272.81C984.637 284.721 983.168 301.783 975.193 317.619C945.849 375.89 853.475 418.613 762.481 396.836C646.953 369.192 580.218 447.079 605.126 476.784C638.511 516.591 688.632 448.165 579.909 424.035C527.368 413.553 459.222 449.496 387.76 509.557C304.709 579.356 -75.4032 616.232 -141.379 396.035" stroke="url(#paint37_linear_430_1697)" stroke-width="0.5658" stroke-miterlimit="10"/>
<path opacity="0.5" d="M1508.54 88.847C1448.54 62.8653 1352.79 52.5377 1272.19 98.1153C1240.3 116.149 1223.14 145.216 1209.91 173.534C1191.95 212.025 1164.94 249.445 1127.05 279.062C1090.24 307.964 1032.54 335.678 979.774 328.163C942.671 322.874 912.969 290.709 935.383 273.658C940.412 269.829 947.054 268.368 953.687 268.864C962.658 269.444 971.369 273.521 976.27 279.913C985.025 291.331 982.699 307.601 974.211 322.834C943.151 378.572 851.735 420.494 761.23 400.43C648.188 375.372 581.449 450.887 604.065 481.195C633.735 520.957 680.865 456.059 574.346 433.63C521.496 424.394 454.192 460.087 382.046 517.09C295.456 585.509 -78.3808 616.869 -142.254 399.404" stroke="url(#paint38_linear_430_1697)" stroke-width="0.5658" stroke-miterlimit="10"/>
<path opacity="0.5" d="M1506.14 85.3467C1448.63 60.4495 1356.92 54.461 1277.41 101.857C1246.57 120.24 1229.45 149.003 1216.16 177.136C1198.13 215.35 1171.27 252.501 1133.78 282.027C1097.25 310.939 1040.47 338.532 988.161 332.083C951.352 327.544 921.521 297.125 941.435 280.942C945.892 277.318 951.868 275.947 957.841 276.435C965.953 276.999 973.743 280.901 977.926 286.997C985.42 297.923 982.253 313.394 973.244 328.029C940.5 381.222 850.043 422.343 759.985 404.004C649.47 381.502 582.694 454.614 603.018 485.592C629.02 525.227 673.113 463.94 568.798 443.205C515.638 435.207 449.027 470.617 376.339 524.61C286.078 591.651 -81.3597 617.487 -143.121 402.766" stroke="url(#paint39_linear_430_1697)" stroke-width="0.5658" stroke-miterlimit="10"/>
<path opacity="0.5" d="M1503.73 81.8572C1448.73 58.0384 1361.05 56.352 1282.63 105.602C1252.83 124.316 1235.76 152.787 1222.4 180.743C1204.31 218.68 1177.59 255.561 1140.5 284.99C1104.25 313.907 1048.39 341.377 996.541 336C960.019 332.211 930.066 303.538 947.473 288.23C951.358 284.811 956.676 283.524 961.98 284.015C969.226 284.57 976.103 288.291 979.567 294.097C985.792 304.524 981.793 319.202 972.263 333.241C937.867 383.874 848.377 424.195 758.726 407.595C650.795 387.608 583.93 458.289 601.949 489.999C624.355 529.419 665.337 471.829 563.227 452.795C509.758 446.043 443.707 481.111 370.618 532.139C276.562 597.805 -84.3442 618.119 -144.003 406.132" stroke="url(#paint40_linear_430_1697)" stroke-width="0.5658" stroke-miterlimit="10"/>
<path opacity="0.5" d="M1501.33 78.3655C1448.82 55.6312 1365.16 58.2039 1287.86 109.345C1259.09 128.377 1242.07 156.575 1228.65 184.34C1210.49 221.994 1183.91 258.605 1147.21 287.944C1111.24 316.864 1056.31 344.218 1004.93 339.907C968.702 336.868 938.627 309.941 953.526 295.507C956.839 292.294 961.491 291.096 966.136 291.586C972.522 292.125 978.47 295.666 981.224 301.18C986.171 311.109 981.365 324.988 971.29 338.436C935.275 386.504 846.76 426.017 757.483 411.169C652.175 393.654 585.214 461.885 600.896 494.39C619.777 533.512 657.587 479.701 557.673 462.363C503.894 456.855 438.269 491.53 364.905 539.651C266.921 603.922 -87.3288 618.736 -144.869 409.481" stroke="url(#paint41_linear_430_1697)" stroke-width="0.5658" stroke-miterlimit="10"/>
<path opacity="0.5" d="M1498.92 74.8802C1448.92 53.2304 1369.25 60.0252 1293.08 113.099C1265.33 132.432 1248.37 160.375 1234.9 187.955C1216.66 225.333 1190.23 261.674 1153.92 290.921C1118.23 319.852 1064.23 347.078 1013.3 343.839C977.362 341.556 947.19 316.368 959.556 302.803C962.298 299.794 966.284 298.687 970.268 299.168C975.788 299.691 980.813 303.045 982.858 308.282C986.528 317.7 980.923 330.791 970.302 343.649C932.709 389.15 845.161 427.832 756.217 414.754C653.573 399.662 586.523 465.43 599.828 498.792C615.282 537.541 649.813 487.585 552.104 471.947C498.015 467.684 432.691 501.907 359.185 547.181C257.149 610.021 -90.3114 619.37 -145.749 412.849" stroke="url(#paint42_linear_430_1697)" stroke-width="0.5658" stroke-miterlimit="10"/>
<path opacity="0.5" d="M1496.52 71.39C1449.02 50.8247 1373.32 61.8111 1298.31 116.842C1271.57 136.457 1254.69 164.162 1241.15 191.558C1222.85 228.659 1196.56 264.73 1160.66 293.88C1125.24 322.815 1072.16 349.924 1021.7 347.757C986.043 346.225 955.774 322.776 965.608 310.092C967.787 307.288 971.107 306.265 974.414 306.75C979.075 307.257 983.171 310.418 984.505 315.376C986.897 324.272 980.502 336.588 969.327 348.856C930.207 391.783 843.624 429.62 754.973 418.34C655.04 405.625 587.909 468.918 598.775 503.193C610.923 541.51 642.054 495.468 546.549 481.531C492.15 478.506 427.018 512.219 353.472 554.703C247.25 616.074 -93.2964 619.997 -146.623 416.216" stroke="url(#paint43_linear_430_1697)" stroke-width="0.5658" stroke-miterlimit="10"/>
<path opacity="0.5" d="M1494.12 67.903C1449.12 48.4218 1377.36 63.5573 1303.53 120.593C1277.78 140.478 1261 167.959 1247.4 195.164C1229.04 231.987 1202.88 267.783 1167.37 296.842C1132.24 325.787 1080.08 352.774 1030.08 351.672C994.719 350.889 964.352 329.167 971.654 317.376C973.269 314.771 975.915 313.844 978.562 314.321C982.356 314.813 985.53 317.775 986.155 322.467C987.269 330.827 980.1 342.374 968.347 354.058C927.739 394.417 842.114 431.374 753.715 421.921C656.533 411.527 589.372 472.356 597.715 507.596C606.672 545.424 634.297 503.352 540.988 491.11C486.28 489.33 421.23 522.454 347.761 562.226C237.236 622.063 -96.2786 620.62 -147.494 419.579" stroke="url(#paint44_linear_430_1697)" stroke-width="0.5658" stroke-miterlimit="10"/>
<path opacity="0.5" d="M1491.71 64.415C1449.22 46.018 1381.36 65.2721 1308.74 124.337C1283.98 144.48 1267.31 171.741 1253.65 198.768C1235.22 235.314 1209.2 270.839 1174.09 299.807C1139.23 328.756 1088 355.627 1038.46 355.591C1003.39 355.564 972.952 335.555 977.697 324.658C978.749 322.251 980.721 321.422 982.707 321.896C985.635 322.372 987.894 325.122 987.802 329.555C987.645 337.361 979.712 348.163 967.372 359.258C925.336 397.053 840.641 433.093 752.471 425.5C658.072 417.37 590.937 475.759 596.661 511.99C602.549 549.288 626.537 511.222 535.442 500.685C480.424 500.15 415.363 532.62 342.056 569.747C227.102 627.966 -99.2465 621.247 -148.359 422.939" stroke="url(#paint45_linear_430_1697)" stroke-width="0.5658" stroke-miterlimit="10"/>
<path opacity="0.5" d="M1489.31 60.9367C1449.31 43.6177 1385.31 66.9664 1313.97 128.095C1290.17 148.484 1273.62 175.544 1259.9 202.386C1241.39 238.649 1215.52 273.911 1180.81 302.782C1146.23 331.741 1095.92 358.495 1046.85 359.519C1012.06 360.248 981.546 341.927 983.744 331.955C984.232 329.74 985.53 329.007 986.856 329.479C988.925 329.945 990.27 332.472 989.453 336.651C988.041 343.891 979.335 353.961 966.392 364.467C922.977 399.71 839.195 434.784 751.214 429.088C659.636 423.16 592.613 479.15 595.594 516.394C598.544 553.141 618.764 519.106 529.873 510.263C474.546 510.966 409.39 542.711 336.337 577.264C216.853 633.782 -102.236 621.871 -149.23 426.303" stroke="url(#paint46_linear_430_1697)" stroke-width="0.5658" stroke-miterlimit="10"/>
<path opacity="0.5" d="M1486.9 57.4478C1449.41 41.2129 1389.22 68.6137 1319.19 131.836C1296.34 152.459 1279.92 179.329 1266.13 205.988C1247.56 241.974 1221.84 276.96 1187.52 305.739C1153.22 334.702 1103.84 361.346 1055.23 363.429C1020.73 364.914 990.129 348.251 989.78 339.234C989.704 337.206 990.337 336.581 990.995 337.051C992.196 337.501 992.652 339.797 991.093 343.742C988.468 350.408 978.965 359.759 965.41 369.671C920.667 402.385 837.779 436.42 749.955 432.671C661.222 428.882 594.394 482.532 594.534 520.792C594.661 556.984 611.007 526.984 524.312 519.841C468.675 521.789 403.356 552.736 330.618 584.788C206.484 639.491 -105.218 622.503 -150.11 429.667" stroke="url(#paint47_linear_430_1697)" stroke-width="0.5658" stroke-miterlimit="10"/>
<path opacity="0.5" d="M1484.5 53.9693C1449.5 38.8184 1393.08 70.2475 1324.41 135.593C1302.49 156.444 1286.23 183.131 1272.38 209.599C1253.75 245.307 1228.16 280.024 1194.24 308.705C1160.22 337.673 1111.75 364.201 1063.6 367.355C1029.39 369.595 998.661 354.567 995.825 346.522C995.176 344.674 995.144 344.164 995.141 344.626C995.484 345.06 995.059 347.132 992.742 350.83C988.935 356.916 978.611 365.567 964.437 374.871C918.406 405.08 836.394 438.004 748.712 436.244C662.855 434.527 596.332 485.909 593.481 525.187C590.894 560.829 603.249 534.859 518.759 529.416C462.812 532.607 397.27 562.679 324.914 592.302C196.046 645.064 -108.193 623.125 -150.973 433.023" stroke="url(#paint48_linear_430_1697)" stroke-width="0.5658" stroke-miterlimit="10"/>
<path opacity="0.5" d="M1482.09 50.4844C1449.59 36.4172 1396.88 71.845 1329.63 139.336C1308.63 160.404 1292.53 186.913 1278.63 213.202C1259.92 248.634 1234.48 283.081 1200.95 311.671C1167.22 340.649 1119.67 367.061 1071.98 371.274C1038.06 374.27 1007.12 360.872 1001.86 353.809C1000.61 352.142 999.943 351.74 999.272 352.205C998.748 352.624 997.474 354.476 994.374 357.93C989.428 363.446 978.258 371.385 963.438 380.078C916.172 407.811 835.008 439.531 747.437 439.83C664.47 440.115 598.354 489.325 592.396 529.588C587.203 564.707 595.458 542.74 513.173 538.99C456.916 543.419 391.107 572.555 319.178 599.822C185.479 650.503 -111.192 623.748 -151.869 436.39" stroke="url(#paint49_linear_430_1697)" stroke-width="0.5658" stroke-miterlimit="10"/>
<path opacity="0.5" d="M1479.69 47.005C1449.69 34.0215 1400.63 73.4183 1334.84 143.091C1314.75 164.369 1298.84 190.712 1284.88 216.817C1266.1 251.972 1240.8 286.142 1207.68 314.642C1174.22 343.623 1127.6 369.931 1080.38 375.197C1046.74 378.949 1015.55 367.219 1007.92 361.1C1006.08 359.62 1004.77 359.325 1003.43 359.783C1002.05 360.186 999.939 361.831 996.047 365.02C989.98 369.992 977.955 377.213 962.49 385.281C914.021 410.576 833.678 440.995 746.219 443.413C666.148 445.626 600.567 492.779 591.377 533.986C583.653 568.618 587.742 550.617 507.653 548.567C451.087 554.24 384.985 582.354 313.5 607.345C174.901 655.793 -114.14 624.381 -152.707 439.755" stroke="url(#paint50_linear_430_1697)" stroke-width="0.5658" stroke-miterlimit="10"/>
<path opacity="0.5" d="M1477.29 43.5224C1449.79 31.6226 1404.32 74.9709 1340.07 146.835C1320.86 168.318 1305.16 194.501 1291.12 220.416C1272.28 255.288 1247.13 289.195 1214.39 317.597C1181.22 346.589 1135.52 372.78 1088.76 379.105C1055.4 383.618 1023.95 373.593 1013.96 368.369C1011.5 367.088 1009.57 366.89 1007.57 367.345C1005.32 367.732 1002.39 369.188 997.688 372.102C990.508 376.553 977.637 383.044 961.509 390.476C911.864 413.369 832.313 442.37 744.961 446.988C667.785 451.068 602.856 496.27 590.31 538.376C580.13 572.562 579.97 558.485 502.085 558.129C445.21 565.045 378.795 592.076 307.782 614.847C164.211 660.886 -117.129 624.993 -153.577 443.099" stroke="url(#paint51_linear_430_1697)" stroke-width="0.5658" stroke-miterlimit="10"/>
<path opacity="0.5" d="M1474.88 40.0421C1449.88 29.2257 1407.93 76.5022 1345.29 150.587C1326.95 172.276 1311.47 198.298 1297.37 224.029C1278.46 258.623 1253.44 292.261 1221.11 320.572C1188.21 349.568 1143.44 375.655 1097.14 383.032C1064.08 388.301 1032.37 380.023 1020 375.664C1016.95 374.588 1014.38 374.473 1011.72 374.932C1008.61 375.303 1004.85 376.582 999.337 379.202C991.045 383.151 977.327 388.906 960.528 395.69C909.716 416.224 830.937 443.685 743.703 450.582C669.419 456.449 605.254 499.84 589.25 542.785C576.657 576.573 572.205 566.373 496.525 567.716C439.34 575.876 372.603 601.751 302.064 622.38C153.483 665.834 -120.11 625.638 -154.456 446.482" stroke="url(#paint52_linear_430_1697)" stroke-width="0.5658" stroke-miterlimit="10"/>
<path opacity="0.5" d="M1472.48 36.5582C1449.98 26.819 1411.48 78.0189 1350.51 154.329C1333.02 176.217 1317.77 202.079 1303.62 227.631C1284.64 261.949 1259.76 295.311 1227.83 323.531C1195.2 352.537 1151.35 378.515 1105.52 386.95C1072.74 392.981 1040.82 386.449 1026.04 382.948C1022.39 382.084 1019.18 382.052 1015.86 382.503C1011.88 382.864 1007.28 383.973 1000.98 386.293C991.548 389.759 977.008 394.771 959.546 400.894C907.577 419.112 829.533 444.906 742.452 454.161C671.033 461.752 607.743 503.466 588.19 547.184C573.227 580.635 564.448 574.25 490.972 577.292C433.478 586.689 366.425 611.347 296.361 629.897C142.731 670.569 -123.084 626.266 -155.318 449.842" stroke="url(#paint53_linear_430_1697)" stroke-width="0.5658" stroke-miterlimit="10"/>
<path opacity="0.5" d="M1470.07 33.0777C1450.07 24.4218 1414.96 79.5219 1355.73 158.074C1339.08 180.161 1324.08 205.868 1309.86 231.23C1290.82 265.271 1266.08 298.363 1234.55 326.486C1202.21 355.496 1159.28 381.37 1113.91 390.858C1081.42 397.65 1049.32 392.876 1032.1 390.216C1027.86 389.563 1024.01 389.615 1020.02 390.063C1015.19 390.409 1009.73 391.361 1002.64 393.367C992.068 396.363 976.714 400.644 958.588 406.082C905.455 422.027 828.118 446.007 741.217 457.729C672.637 466.979 610.325 507.148 587.145 551.568C569.839 584.736 556.698 582.112 485.427 586.846C427.623 597.487 360.277 620.865 290.658 637.398C131.974 675.086 -126.049 626.874 -156.182 453.186" stroke="url(#paint54_linear_430_1697)" stroke-width="0.5658" stroke-miterlimit="10"/>
<path opacity="0.5" d="M1467.67 29.5985C1450.16 22.0257 1418.37 81.0149 1360.95 161.825C1345.11 184.107 1330.39 209.665 1316.11 234.842C1297 268.607 1272.4 301.429 1241.26 329.461C1209.2 358.475 1167.21 384.245 1122.29 394.785C1090.1 402.339 1057.81 399.316 1038.13 397.51C1033.31 397.068 1028.81 397.197 1024.15 397.643C1018.45 397.973 1012.14 398.768 1004.27 400.467C992.532 402.993 976.39 406.549 957.592 411.296C903.279 425.012 826.611 447.037 739.952 461.324C674.167 472.172 612.928 510.934 586.079 555.977C566.439 588.924 548.927 589.999 479.86 596.432C421.739 608.316 354.139 630.352 284.941 644.931C121.205 679.42 -129.037 627.52 -157.05 456.569" stroke="url(#paint55_linear_430_1697)" stroke-width="0.5658" stroke-miterlimit="10"/>
<path opacity="0.5" d="M1465.26 26.1172C1450.27 19.6273 1421.7 82.5014 1366.17 165.567C1351.14 188.05 1336.69 213.452 1322.35 238.445C1303.17 271.927 1278.72 304.48 1247.97 332.421C1216.18 361.446 1175.11 387.112 1130.66 398.698C1098.75 407.013 1066.3 405.741 1044.17 404.788C1038.77 404.558 1033.61 404.77 1028.29 405.214C1021.72 405.528 1014.55 406.172 1005.91 407.551C992.995 409.614 976.064 412.458 956.61 416.495C901.095 428.013 825.041 447.937 738.693 464.903C675.644 477.289 615.581 514.773 585.01 560.372C563.03 593.153 541.162 597.871 474.291 605.996C415.86 619.117 348.03 639.762 279.214 652.437C110.444 683.517 -132.026 628.139 -157.937 459.918" stroke="url(#paint56_linear_430_1697)" stroke-width="0.5658" stroke-miterlimit="10"/>
<path opacity="0.5" d="M1462.85 22.6409C1450.36 17.2339 1424.96 83.9878 1371.39 169.32C1357.14 192.004 1343 217.244 1328.59 242.053C1309.34 275.258 1285.04 307.542 1254.69 335.386C1223.19 364.414 1183.05 389.983 1139.04 402.615C1107.44 411.691 1074.81 412.169 1050.21 412.064C1044.23 412.039 1038.42 412.341 1032.44 412.776C1025.01 413.075 1016.96 413.567 1007.56 414.634C993.458 416.233 975.739 418.377 955.636 421.692C898.886 431.045 823.385 448.728 737.45 468.481C677.078 482.356 618.277 518.682 583.958 564.764C559.632 597.436 533.406 605.734 468.739 615.564C409.999 629.928 341.995 649.131 273.512 659.952C99.7592 687.402 -134.999 628.769 -158.8 463.278" stroke="url(#paint57_linear_430_1697)" stroke-width="0.5658" stroke-miterlimit="10"/>
<path opacity="0.5" d="M1460.45 19.1574C1450.45 14.8333 1428.15 85.4684 1376.6 173.06C1363.14 195.951 1349.3 221.028 1334.84 245.653C1315.52 278.582 1291.36 310.596 1261.41 338.343C1230.18 367.381 1191 392.895 1147.42 406.53C1116.13 416.41 1083.33 418.59 1056.26 419.345C1049.69 419.53 1043.23 419.91 1036.58 420.349C1028.29 420.632 1019.36 420.968 1009.21 421.72C993.903 422.851 975.397 424.313 954.655 426.893C896.628 434.106 821.603 449.403 736.191 472.063C678.404 487.394 620.967 522.652 582.898 569.168C556.21 601.779 525.641 613.614 463.179 625.142C404.129 640.749 336.008 658.46 267.794 667.478C89.1268 691.087 -137.988 629.411 -159.678 466.655" stroke="url(#paint58_linear_430_1697)" stroke-width="0.5658" stroke-miterlimit="10"/>
<path opacity="0.5" d="M1458.05 15.6784C1450.55 12.4308 1431.27 86.9488 1381.83 176.809C1369.12 199.908 1355.61 224.822 1341.09 249.263C1321.71 281.915 1297.69 313.654 1268.13 341.316C1237.19 370.359 1198.93 395.762 1155.81 410.456C1124.81 421.09 1091.87 425.014 1062.31 426.635C1055.17 427.025 1048.04 427.495 1040.74 427.926C1031.58 428.199 1021.78 428.371 1010.87 428.811C994.358 429.473 975.056 430.259 953.689 432.098C894.355 437.197 819.701 449.982 734.949 475.644C679.655 492.388 623.666 526.68 581.846 573.563C552.774 606.157 517.893 621.486 457.627 634.705C398.268 651.549 330.102 667.736 262.092 674.984C78.6034 694.54 -140.952 630.026 -160.54 470.005" stroke="url(#paint59_linear_430_1697)" stroke-width="0.5658" stroke-miterlimit="10"/>
<path opacity="0.5" d="M1455.64 12.196C1450.64 10.031 1434.31 88.4393 1387.04 180.548C1375.08 203.861 1361.92 228.606 1347.33 252.857C1327.88 285.232 1304 316.702 1274.83 344.267C1244.17 373.32 1206.84 398.607 1164.18 414.359C1133.47 425.748 1100.37 431.452 1068.34 433.897C1060.62 434.504 1052.84 435.051 1044.87 435.48C1034.85 435.737 1024.16 435.753 1012.5 435.885C994.785 436.078 974.688 436.201 952.697 437.287C892.006 440.285 817.606 450.438 733.688 479.214C680.788 497.356 626.341 530.742 580.785 577.948C549.304 610.569 510.127 629.347 452.074 644.264C392.405 662.351 324.268 676.968 256.381 682.491C68.1641 697.797 -143.934 630.649 -161.403 473.357" stroke="url(#paint60_linear_430_1697)" stroke-width="0.5658" stroke-miterlimit="10"/>
<path opacity="0.5" d="M1453.23 8.72348C1450.74 7.64105 1437.28 89.9409 1392.26 184.302C1381.03 207.836 1368.22 232.399 1353.57 256.472C1334.05 288.565 1310.31 319.772 1281.56 347.239C1251.17 376.297 1214.77 401.474 1172.57 418.284C1142.15 430.427 1108.9 437.857 1074.38 441.186C1066.08 441.991 1057.65 442.628 1049.01 443.055C1038.13 443.296 1026.55 443.156 1014.14 442.974C995.214 442.699 974.298 442.16 951.715 442.491C889.618 443.402 815.343 450.809 732.429 482.8C681.807 502.331 628.994 534.87 579.716 582.349C545.795 615.034 502.355 637.223 446.505 653.832C386.528 673.161 318.5 686.183 250.663 690.001C57.8446 700.869 -146.914 631.276 -162.281 476.712" stroke="url(#paint61_linear_430_1697)" stroke-width="0.5658" stroke-miterlimit="10"/>
<path opacity="0.5" d="M1450.83 5.23993C1450.83 5.23993 1397.83 434.889 1053.15 450.624C944.842 452.709 774.778 410.084 578.665 586.749C382.552 763.42 -141.275 730.641 -163.149 480.087" stroke="url(#paint62_linear_430_1697)" stroke-width="0.5658" stroke-miterlimit="10"/>
</g>
<defs>
<linearGradient id="paint0_linear_430_1697" x1="404.781" y1="238.562" x2="851.594" y2="804.168" gradientUnits="userSpaceOnUse">
<stop stop-color="#1BA4E5" stop-opacity="0.5"/>
<stop offset="1" stop-color="#0F32E7"/>
</linearGradient>
<linearGradient id="paint1_linear_430_1697" x1="409.997" y1="237.635" x2="852.802" y2="798.135" gradientUnits="userSpaceOnUse">
<stop stop-color="#1BA4E5" stop-opacity="0.5"/>
<stop offset="1" stop-color="#B40FE7"/>
</linearGradient>
<linearGradient id="paint2_linear_430_1697" x1="406.619" y1="230.522" x2="851.729" y2="793.907" gradientUnits="userSpaceOnUse">
<stop stop-color="#1BA4E5" stop-opacity="0.5"/>
<stop offset="1" stop-color="#0F25E7"/>
</linearGradient>
<linearGradient id="paint3_linear_430_1697" x1="403.339" y1="223.332" x2="850.757" y2="789.601" gradientUnits="userSpaceOnUse">
<stop stop-color="#1BA4E5" stop-opacity="0.5"/>
<stop offset="1" stop-color="#0F18E7"/>
</linearGradient>
<linearGradient id="paint4_linear_430_1697" x1="400.198" y1="216.028" x2="849.923" y2="785.182" gradientUnits="userSpaceOnUse">
<stop stop-color="#1BA4E5" stop-opacity="0.5"/>
<stop offset="1" stop-color="#B40FE7"/>
</linearGradient>
<linearGradient id="paint5_linear_430_1697" x1="397.13" y1="208.67" x2="849.162" y2="780.708" gradientUnits="userSpaceOnUse">
<stop stop-color="#1BA4E5" stop-opacity="0.5"/>
<stop offset="1" stop-color="#B40FE7"/>
</linearGradient>
<linearGradient id="paint6_linear_430_1697" x1="394.157" y1="201.233" x2="848.495" y2="776.154" gradientUnits="userSpaceOnUse">
<stop stop-color="#1BA4E5" stop-opacity="0.5"/>
<stop offset="1" stop-color="#B40FE7"/>
</linearGradient>
<linearGradient id="paint7_linear_430_1697" x1="391.287" y1="193.716" x2="847.931" y2="771.52" gradientUnits="userSpaceOnUse">
<stop stop-color="#1BA4E5" stop-opacity="0.5"/>
<stop offset="1" stop-color="#B40FE7"/>
</linearGradient>
<linearGradient id="paint8_linear_430_1697" x1="388.517" y1="186.118" x2="847.465" y2="766.804" gradientUnits="userSpaceOnUse">
<stop stop-color="#1BA4E5" stop-opacity="0.5"/>
<stop offset="1" stop-color="#B40FE7"/>
</linearGradient>
<linearGradient id="paint9_linear_430_1697" x1="385.849" y1="178.441" x2="847.099" y2="762.008" gradientUnits="userSpaceOnUse">
<stop stop-color="#1BA4E5" stop-opacity="0.5"/>
<stop offset="1" stop-color="#B40FE7"/>
</linearGradient>
<linearGradient id="paint10_linear_430_1697" x1="383.282" y1="170.683" x2="846.832" y2="757.13" gradientUnits="userSpaceOnUse">
<stop stop-color="#1BA4E5" stop-opacity="0.5"/>
<stop offset="1" stop-color="#B40FE7"/>
</linearGradient>
<linearGradient id="paint11_linear_430_1697" x1="380.817" y1="162.844" x2="846.665" y2="752.17" gradientUnits="userSpaceOnUse">
<stop stop-color="#1BA4E5" stop-opacity="0.5"/>
<stop offset="1" stop-color="#B40FE7"/>
</linearGradient>
<linearGradient id="paint12_linear_430_1697" x1="378.454" y1="154.93" x2="846.598" y2="747.133" gradientUnits="userSpaceOnUse">
<stop stop-color="#1BA4E5" stop-opacity="0.5"/>
<stop offset="1" stop-color="#B40FE7"/>
</linearGradient>
<linearGradient id="paint13_linear_430_1697" x1="376.192" y1="146.931" x2="846.628" y2="742.01" gradientUnits="userSpaceOnUse">
<stop stop-color="#1BA4E5" stop-opacity="0.5"/>
<stop offset="1" stop-color="#B40FE7"/>
</linearGradient>
<linearGradient id="paint14_linear_430_1697" x1="374.032" y1="138.857" x2="846.759" y2="736.811" gradientUnits="userSpaceOnUse">
<stop stop-color="#1BA4E5" stop-opacity="0.5"/>
<stop offset="1" stop-color="#B40FE7"/>
</linearGradient>
<linearGradient id="paint15_linear_430_1697" x1="371.973" y1="130.701" x2="846.987" y2="731.529" gradientUnits="userSpaceOnUse">
<stop stop-color="#1BA4E5" stop-opacity="0.5"/>
<stop offset="1" stop-color="#B40FE7"/>
</linearGradient>
<linearGradient id="paint16_linear_430_1697" x1="370.013" y1="122.47" x2="847.313" y2="726.171" gradientUnits="userSpaceOnUse">
<stop stop-color="#1BA4E5" stop-opacity="0.5"/>
<stop offset="1" stop-color="#B40FE7"/>
</linearGradient>
<linearGradient id="paint17_linear_430_1697" x1="368.152" y1="114.161" x2="847.734" y2="720.733" gradientUnits="userSpaceOnUse">
<stop stop-color="#1BA4E5" stop-opacity="0.5"/>
<stop offset="1" stop-color="#B40FE7"/>
</linearGradient>
<linearGradient id="paint18_linear_430_1697" x1="366.346" y1="105.808" x2="848.212" y2="715.254" gradientUnits="userSpaceOnUse">
<stop stop-color="#1BA4E5" stop-opacity="0.5"/>
<stop offset="1" stop-color="#B40FE7"/>
</linearGradient>
<linearGradient id="paint19_linear_430_1697" x1="364.542" y1="97.4565" x2="848.69" y2="709.777" gradientUnits="userSpaceOnUse">
<stop stop-color="#1BA4E5" stop-opacity="0.5"/>
<stop offset="1" stop-color="#130FE7"/>
</linearGradient>
<linearGradient id="paint20_linear_430_1697" x1="362.738" y1="89.1036" x2="849.166" y2="704.297" gradientUnits="userSpaceOnUse">
<stop stop-color="#1BA4E5" stop-opacity="0.5"/>
<stop offset="1" stop-color="#0F25E7"/>
</linearGradient>
<linearGradient id="paint21_linear_430_1697" x1="360.935" y1="80.7519" x2="849.64" y2="698.817" gradientUnits="userSpaceOnUse">
<stop stop-color="#1BA4E5" stop-opacity="0.5"/>
<stop offset="1" stop-color="#0F3FE7"/>
</linearGradient>
<linearGradient id="paint22_linear_430_1697" x1="359.087" y1="72.4263" x2="850.073" y2="693.369" gradientUnits="userSpaceOnUse">
<stop stop-color="#1BA4E5" stop-opacity="0.5"/>
<stop offset="1" stop-color="#130FE7"/>
</linearGradient>
<linearGradient id="paint23_linear_430_1697" x1="356.75" y1="64.467" x2="850.024" y2="688.3" gradientUnits="userSpaceOnUse">
<stop stop-color="#1BA4E5" stop-opacity="0.5"/>
<stop offset="1" stop-color="#B40FE7"/>
</linearGradient>
<linearGradient id="paint24_linear_430_1697" x1="353.915" y1="56.9017" x2="849.475" y2="683.624" gradientUnits="userSpaceOnUse">
<stop stop-color="#1BA4E5" stop-opacity="0.5"/>
<stop offset="1" stop-color="#B40FE7"/>
</linearGradient>
<linearGradient id="paint25_linear_430_1697" x1="350.679" y1="49.6533" x2="848.524" y2="679.264" gradientUnits="userSpaceOnUse">
<stop stop-color="#1BA4E5" stop-opacity="0.5"/>
<stop offset="1" stop-color="#0F25E7"/>
</linearGradient>
<linearGradient id="paint26_linear_430_1697" x1="347.113" y1="42.6688" x2="847.24" y2="675.167" gradientUnits="userSpaceOnUse">
<stop stop-color="#1BA4E5" stop-opacity="0.5"/>
<stop offset="1" stop-color="#0F18E7"/>
</linearGradient>
<linearGradient id="paint27_linear_430_1697" x1="343.281" y1="35.8931" x2="845.688" y2="671.278" gradientUnits="userSpaceOnUse">
<stop stop-color="#1BA4E5" stop-opacity="0.5"/>
<stop offset="1" stop-color="#130FE7"/>
</linearGradient>
<linearGradient id="paint28_linear_430_1697" x1="339.221" y1="29.3012" x2="843.906" y2="667.572" gradientUnits="userSpaceOnUse">
<stop stop-color="#1BA4E5" stop-opacity="0.5"/>
<stop offset="1" stop-color="#200FE7"/>
</linearGradient>
<linearGradient id="paint29_linear_430_1697" x1="334.971" y1="22.858" x2="841.933" y2="664.014" gradientUnits="userSpaceOnUse">
<stop stop-color="#1BA4E5" stop-opacity="0.5"/>
<stop offset="1" stop-color="#130FE7"/>
</linearGradient>
<linearGradient id="paint30_linear_430_1697" x1="330.559" y1="16.5456" x2="839.795" y2="660.585" gradientUnits="userSpaceOnUse">
<stop stop-color="#1BA4E5" stop-opacity="0.5"/>
<stop offset="1" stop-color="#0F25E7"/>
</linearGradient>
<linearGradient id="paint31_linear_430_1697" x1="326.007" y1="10.3501" x2="837.515" y2="657.272" gradientUnits="userSpaceOnUse">
<stop stop-color="#1BA4E5" stop-opacity="0.5"/>
<stop offset="1" stop-color="#0F18E7"/>
</linearGradient>
<linearGradient id="paint32_linear_430_1697" x1="326.963" y1="12.2636" x2="834.532" y2="654.215" gradientUnits="userSpaceOnUse">
<stop stop-color="#1BA4E5" stop-opacity="0.5"/>
<stop offset="1" stop-color="#0F25E7"/>
</linearGradient>
<linearGradient id="paint33_linear_430_1697" x1="327.909" y1="14.1892" x2="831.539" y2="651.17" gradientUnits="userSpaceOnUse">
<stop stop-color="#1BA4E5" stop-opacity="0.5"/>
<stop offset="1" stop-color="#200FE7"/>
</linearGradient>
<linearGradient id="paint34_linear_430_1697" x1="328.845" y1="16.1238" x2="828.533" y2="648.133" gradientUnits="userSpaceOnUse">
<stop stop-color="#1BA4E5" stop-opacity="0.5"/>
<stop offset="1" stop-color="#0F25E7"/>
</linearGradient>
<linearGradient id="paint35_linear_430_1697" x1="329.77" y1="18.0684" x2="825.516" y2="645.105" gradientUnits="userSpaceOnUse">
<stop stop-color="#1BA4E5" stop-opacity="0.5"/>
<stop offset="1" stop-color="#0F25E7"/>
</linearGradient>
<linearGradient id="paint36_linear_430_1697" x1="330.684" y1="20.0234" x2="822.485" y2="642.088" gradientUnits="userSpaceOnUse">
<stop stop-color="#1BA4E5" stop-opacity="0.5"/>
<stop offset="1" stop-color="#B40FE7"/>
</linearGradient>
<linearGradient id="paint37_linear_430_1697" x1="331.585" y1="21.9873" x2="819.441" y2="639.079" gradientUnits="userSpaceOnUse">
<stop stop-color="#1BA4E5" stop-opacity="0.5"/>
<stop offset="1" stop-color="#0F25E7"/>
</linearGradient>
<linearGradient id="paint38_linear_430_1697" x1="332.474" y1="23.9694" x2="816.382" y2="636.087" gradientUnits="userSpaceOnUse">
<stop stop-color="#1BA4E5" stop-opacity="0.5"/>
<stop offset="1" stop-color="#0F25E7"/>
</linearGradient>
<linearGradient id="paint39_linear_430_1697" x1="333.348" y1="25.9566" x2="813.307" y2="633.101" gradientUnits="userSpaceOnUse">
<stop stop-color="#1BA4E5" stop-opacity="0.5"/>
<stop offset="1" stop-color="#0F25E7"/>
</linearGradient>
<linearGradient id="paint40_linear_430_1697" x1="334.21" y1="27.9596" x2="810.219" y2="630.129" gradientUnits="userSpaceOnUse">
<stop stop-color="#1BA4E5" stop-opacity="0.5"/>
<stop offset="1" stop-color="#0F25E7"/>
</linearGradient>
<linearGradient id="paint41_linear_430_1697" x1="335.057" y1="29.9778" x2="807.115" y2="627.173" gradientUnits="userSpaceOnUse">
<stop stop-color="#1BA4E5" stop-opacity="0.5"/>
<stop offset="1" stop-color="#200FE7"/>
</linearGradient>
<linearGradient id="paint42_linear_430_1697" x1="335.89" y1="32.0081" x2="803.997" y2="624.228" gradientUnits="userSpaceOnUse">
<stop stop-color="#1BA4E5" stop-opacity="0.5"/>
<stop offset="1" stop-color="#0F25E7"/>
</linearGradient>
<linearGradient id="paint43_linear_430_1697" x1="336.705" y1="34.0518" x2="800.859" y2="621.296" gradientUnits="userSpaceOnUse">
<stop stop-color="#1BA4E5" stop-opacity="0.5"/>
<stop offset="1" stop-color="#0F25E7"/>
</linearGradient>
<linearGradient id="paint44_linear_430_1697" x1="337.505" y1="36.1047" x2="797.707" y2="618.373" gradientUnits="userSpaceOnUse">
<stop stop-color="#1BA4E5" stop-opacity="0.5"/>
<stop offset="1" stop-color="#0F18E7"/>
</linearGradient>
<linearGradient id="paint45_linear_430_1697" x1="338.288" y1="38.1755" x2="794.537" y2="615.469" gradientUnits="userSpaceOnUse">
<stop stop-color="#1BA4E5" stop-opacity="0.5"/>
<stop offset="1" stop-color="#0F25E7"/>
</linearGradient>
<linearGradient id="paint46_linear_430_1697" x1="339.056" y1="40.2627" x2="791.353" y2="612.58" gradientUnits="userSpaceOnUse">
<stop stop-color="#1BA4E5" stop-opacity="0.5"/>
<stop offset="1" stop-color="#B40FE7"/>
</linearGradient>
<linearGradient id="paint47_linear_430_1697" x1="339.805" y1="42.3583" x2="794.024" y2="617.133" gradientUnits="userSpaceOnUse">
<stop stop-color="#1BA4E5" stop-opacity="0.5"/>
<stop offset="1" stop-color="#0F18E7"/>
</linearGradient>
<linearGradient id="paint48_linear_430_1697" x1="340.537" y1="44.4713" x2="797.479" y2="622.717" gradientUnits="userSpaceOnUse">
<stop stop-color="#1BA4E5" stop-opacity="0.5"/>
<stop offset="1" stop-color="#130FE7"/>
</linearGradient>
<linearGradient id="paint49_linear_430_1697" x1="341.253" y1="46.5969" x2="800.92" y2="628.318" gradientUnits="userSpaceOnUse">
<stop stop-color="#1BA4E5" stop-opacity="0.5"/>
<stop offset="1" stop-color="#0F18E7"/>
</linearGradient>
<linearGradient id="paint50_linear_430_1697" x1="341.951" y1="48.7349" x2="804.349" y2="633.938" gradientUnits="userSpaceOnUse">
<stop stop-color="#1BA4E5" stop-opacity="0.5"/>
<stop offset="1" stop-color="#130FE7"/>
</linearGradient>
<linearGradient id="paint51_linear_430_1697" x1="342.634" y1="50.8886" x2="807.768" y2="639.579" gradientUnits="userSpaceOnUse">
<stop stop-color="#1BA4E5" stop-opacity="0.5"/>
<stop offset="1" stop-color="#0F25E7"/>
</linearGradient>
<linearGradient id="paint52_linear_430_1697" x1="343.299" y1="53.0505" x2="811.174" y2="645.235" gradientUnits="userSpaceOnUse">
<stop stop-color="#1BA4E5" stop-opacity="0.5"/>
<stop offset="1" stop-color="#200FE7"/>
</linearGradient>
<linearGradient id="paint53_linear_430_1697" x1="343.949" y1="55.2266" x2="814.571" y2="650.913" gradientUnits="userSpaceOnUse">
<stop stop-color="#1BA4E5" stop-opacity="0.5"/>
<stop offset="1" stop-color="#0F32E7"/>
</linearGradient>
<linearGradient id="paint54_linear_430_1697" x1="344.584" y1="57.417" x2="817.96" y2="656.614" gradientUnits="userSpaceOnUse">
<stop stop-color="#1BA4E5" stop-opacity="0.5"/>
<stop offset="1" stop-color="#0F18E7"/>
</linearGradient>
<linearGradient id="paint55_linear_430_1697" x1="345.207" y1="59.6128" x2="821.345" y2="662.329" gradientUnits="userSpaceOnUse">
<stop stop-color="#1BA4E5" stop-opacity="0.5"/>
<stop offset="1" stop-color="#0F25E7"/>
</linearGradient>
<linearGradient id="paint56_linear_430_1697" x1="345.816" y1="61.822" x2="824.723" y2="668.067" gradientUnits="userSpaceOnUse">
<stop stop-color="#1BA4E5" stop-opacity="0.5"/>
<stop offset="1" stop-color="#0F32E7"/>
</linearGradient>
<linearGradient id="paint57_linear_430_1697" x1="346.414" y1="64.0385" x2="828.1" y2="673.825" gradientUnits="userSpaceOnUse">
<stop stop-color="#1BA4E5" stop-opacity="0.5"/>
<stop offset="1" stop-color="#0F18E7"/>
</linearGradient>
<linearGradient id="paint58_linear_430_1697" x1="347.001" y1="66.2615" x2="831.48" y2="679.606" gradientUnits="userSpaceOnUse">
<stop stop-color="#1BA4E5" stop-opacity="0.5"/>
<stop offset="1" stop-color="#0F25E7"/>
</linearGradient>
<linearGradient id="paint59_linear_430_1697" x1="347.579" y1="68.4898" x2="834.858" y2="685.402" gradientUnits="userSpaceOnUse">
<stop stop-color="#1BA4E5" stop-opacity="0.5"/>
<stop offset="1" stop-color="#0F25E7"/>
</linearGradient>
<linearGradient id="paint60_linear_430_1697" x1="348.148" y1="70.7267" x2="838.239" y2="691.223" gradientUnits="userSpaceOnUse">
<stop stop-color="#1BA4E5" stop-opacity="0.5"/>
<stop offset="1" stop-color="#130FE7"/>
</linearGradient>
<linearGradient id="paint61_linear_430_1697" x1="348.71" y1="72.9731" x2="841.628" y2="697.071" gradientUnits="userSpaceOnUse">
<stop stop-color="#1BA4E5" stop-opacity="0.5"/>
<stop offset="1" stop-color="#B40FE7"/>
</linearGradient>
<linearGradient id="paint62_linear_430_1697" x1="349.236" y1="75.2427" x2="844.998" y2="702.964" gradientUnits="userSpaceOnUse">
<stop stop-color="#1BA4E5" stop-opacity="0.5"/>
<stop offset="1" stop-color="#0F25E7"/>
</linearGradient>
</defs>
</svg>
