<svg width="15" height="5" viewBox="0 0 15 5" fill="none" xmlns="http://www.w3.org/2000/svg">
<path d="M0.455696 2.04233C0.534775 1.96259 0.653069 1.92884 0.757389 1.95005C0.857853 1.95965 0.960829 1.9613 1.06311 1.96294C1.09654 1.96348 1.12989 1.96402 1.16306 1.96483C1.21368 1.96671 1.26418 1.96845 1.31459 1.97018C1.37733 1.97233 1.43992 1.97447 1.50243 1.9769C1.53615 1.97821 1.56983 1.97959 1.60351 1.9811C1.86975 1.99221 2.1377 1.99989 2.40362 2.00502C2.73223 2.00267 3.0606 1.99139 3.38914 1.9801C3.70781 1.96914 4.02666 1.95819 4.34608 1.95537C4.95018 1.94864 5.55542 1.95503 6.15813 1.9614L6.32128 1.96311C6.84735 1.96881 7.37547 1.96031 7.9036 1.9518C8.02127 1.94991 8.13893 1.94802 8.25658 1.94628C8.91179 1.93748 9.56736 1.92635 10.2233 1.91283C10.5887 1.9054 10.9562 1.90052 11.322 1.89909C11.6029 1.89783 11.8829 1.90362 12.1634 1.90943C12.2342 1.91091 12.305 1.91236 12.3759 1.91372L12.3848 1.91364C12.3882 1.91363 12.3915 1.91364 12.3947 1.91369C12.4001 1.91377 12.4052 1.91396 12.4102 1.91433C12.6593 1.91783 12.9083 1.91617 13.1576 1.9145C13.2653 1.91377 13.373 1.91304 13.4809 1.91273C13.6304 1.9126 13.7786 1.91353 13.9268 1.91447L13.9343 1.91451C13.8334 1.81963 13.7311 1.7258 13.6285 1.63436C13.596 1.60554 13.5632 1.57689 13.5304 1.54822C13.4458 1.47415 13.3609 1.39991 13.2791 1.32221C13.1485 1.19878 13.0176 1.07769 12.8826 0.959883C12.7731 0.873874 12.6647 0.789126 12.5539 0.704204C12.5314 0.68682 12.5084 0.669668 12.4853 0.652471C12.4238 0.606672 12.3619 0.560479 12.3071 0.508538C12.1925 0.399471 12.1918 0.212164 12.3094 0.0912884C12.4257 -0.0284997 12.622 -0.0430769 12.7366 0.0659902C12.7471 0.0763496 12.7591 0.0856177 12.7707 0.0972468C12.8465 0.157466 12.923 0.216371 12.9995 0.2752C13.1479 0.389396 13.296 0.503314 13.4375 0.626063C13.4992 0.678767 13.5575 0.734746 13.6161 0.790893L13.6164 0.791225C13.6598 0.832806 13.7032 0.874454 13.7481 0.914924C13.8481 1.00513 13.9483 1.09353 14.0492 1.18256L14.0924 1.22073C14.2175 1.33237 14.3405 1.4463 14.4634 1.56023C14.5663 1.65557 14.6692 1.75091 14.7733 1.84483C14.865 1.92828 14.9584 2.02499 14.9557 2.16074C14.9538 2.28107 14.8798 2.37971 14.778 2.4407C14.7715 2.46043 14.7626 2.47997 14.7512 2.49909C14.6844 2.61078 14.5954 2.70048 14.5037 2.79236C14.4529 2.84328 14.4045 2.89439 14.3527 2.94404C14.2253 3.0665 14.0977 3.18906 13.9692 3.31026C13.7347 3.53059 13.509 3.75638 13.2974 3.994C13.1576 4.15968 13.0189 4.31825 12.844 4.45139C12.8035 4.48182 12.7616 4.51114 12.7197 4.54049C12.6693 4.57581 12.6188 4.61115 12.5706 4.64844C12.557 4.676 12.5386 4.7032 12.5133 4.72749C12.4002 4.84275 12.1966 4.86511 12.0852 4.75151C12.078 4.7426 12.0705 4.73606 12.0644 4.72844C11.9982 4.64339 11.9696 4.52429 12.0217 4.41384C12.0585 4.3344 12.1131 4.27422 12.1823 4.22115C12.2385 4.17722 12.2961 4.13597 12.3535 4.09487C12.4365 4.03549 12.5191 3.97639 12.5965 3.90981C12.6568 3.85127 12.7113 3.79109 12.7676 3.72748C12.9724 3.48695 13.1865 3.25787 13.4173 3.03844C13.4741 2.98446 13.5313 2.9307 13.5885 2.87689C13.7185 2.75468 13.8488 2.63226 13.9757 2.50669C13.9393 2.50664 13.9029 2.50658 13.8664 2.50652L13.8629 2.5065C13.591 2.50608 13.3195 2.50568 13.0474 2.50883C12.6014 2.51319 12.1574 2.50365 11.7157 2.49417L11.7018 2.49387L11.7011 2.49381C11.7005 2.49374 11.7 2.49369 11.6994 2.49368C11.6985 2.49362 11.6977 2.49374 11.6971 2.49383C11.696 2.49398 11.6953 2.4941 11.6946 2.49331L11.6923 2.49314L11.6851 2.49258C11.0425 2.48924 10.3965 2.50113 9.75388 2.51448C9.26391 2.52476 8.77451 2.53105 8.28512 2.53735L8.27548 2.53746C8.11534 2.53952 7.9552 2.54158 7.79505 2.54379C7.14699 2.55314 6.49962 2.55778 5.85293 2.54935C5.19293 2.54107 4.53089 2.5386 3.86988 2.55411C3.79304 2.55604 3.7162 2.5584 3.63938 2.56101C3.53925 2.56441 3.43915 2.56822 3.33907 2.57204C2.95922 2.58654 2.57962 2.60102 2.20049 2.59276C1.98398 2.58848 1.76804 2.58021 1.55211 2.57195C1.48007 2.5692 1.40802 2.56644 1.33595 2.56383L1.33166 2.56366C1.19026 2.55861 1.04882 2.55355 0.906071 2.54957L0.879009 2.54844L0.858543 2.5475C0.810046 2.54532 0.761894 2.54313 0.712777 2.54292C0.621753 2.53825 0.523239 2.52703 0.45914 2.46122C0.455752 2.45827 0.452643 2.45509 0.44959 2.45167C0.447337 2.44915 0.445114 2.44649 0.442834 2.4437L0.438345 2.43814C0.343559 2.32583 0.344912 2.15777 0.455696 2.04233Z" fill="white"/>
<path d="M11.6813 2.49348C11.6861 2.49385 11.6885 2.49404 11.6923 2.49314C11.6899 2.49296 11.6861 2.49385 11.6813 2.49348Z" fill="white"/>
<path d="M11.6957 2.49458C11.6957 2.49458 11.698 2.49477 11.6994 2.49368C11.6979 2.49366 11.6965 2.49388 11.6957 2.49458Z" fill="white"/>
</svg>
